<?xml version="1.0" standalone="no"?>
<!DOCTYPE svg PUBLIC "-//W3C//DTD SVG 1.1//EN" "http://www.w3.org/Graphics/SVG/1.1/DTD/svg11.dtd" >
<svg>
<metadata>
Created by FontForge 20090914 at Fri Feb  3 16:26:11 2023
 By www-data
Copyright 2020 The JetBrains Mono Project Authors (https://github.com/JetBrains/JetBrainsMono)
</metadata>
<defs>
<font id="JetBrainsMono-Light" horiz-adv-x="600" >
  <font-face 
    font-family="JetBrains Mono Light"
    font-weight="300"
    font-stretch="normal"
    units-per-em="1000"
    panose-1="2 0 0 9 0 0 0 0 0 0"
    ascent="800"
    descent="-200"
    x-height="550"
    cap-height="730"
    bbox="-1735 -300 1170 1020"
    underline-thickness="50"
    underline-position="-130"
    unicode-range="U+000D-U+FEFF"
  />
<missing-glyph 
d="M90 0v730h420v-730h-420zM160 50h300v571zM140 109l300 571h-300v-571z" />
    <glyph glyph-name=".notdef" 
d="M90 0v730h420v-730h-420zM160 50h300v571zM140 109l300 571h-300v-571z" />
    <glyph glyph-name="CR" unicode="&#xd;" 
 />
    <glyph glyph-name="space" unicode=" " 
 />
    <glyph glyph-name="exclam" unicode="!" 
d="M273 212l-20 387v131h94v-131l-20 -387h-54zM289 -5c-16.667 0 -30.5 5.5 -41.5 16.5s-16.5 25.167 -16.5 42.5c0 16.667 5.5 30.5 16.5 41.5s24.833 16.5 41.5 16.5h24c18.667 0 33 -5.33301 43 -16s15 -24.667 15 -42c0 -16.667 -5.5 -30.667 -16.5 -42
s-24.833 -17 -41.5 -17h-24z" />
    <glyph glyph-name="quotedbl" unicode="&#x22;" 
d="M368 430l-11 210v90h88v-90l-10 -210h-67zM166 430l-11 210v90h88v-90l-10 -210h-67z" />
    <glyph glyph-name="numbersign" unicode="#" 
d="M85 0l38 203h-88v59h99l38 206h-102v59h113l38 203h63l-37 -203h166l38 203h64l-38 -203h88v-59h-99l-38 -206h102v-59h-113l-38 -203h-63l37 203h-166l-38 -203h-64zM198 262h167l37 206h-167z" />
    <glyph glyph-name="dollar" unicode="$" 
d="M278 -140l0.00195312 130.999c-62.667 4.66699 -111.834 24.5 -147.501 59.5s-54.167 81.167 -55.5 138.5h80c0 -35.333 10.833 -64.166 32.5 -86.499s51.834 -35.833 90.501 -40.5v278l-27 8c-50 14.667 -88.5 39.834 -115.5 75.501s-40.5 77.5 -40.5 125.5
c0 53.333 16.5 97 49.5 131s77.5 53.333 133.5 58v132h54v-131c55.333 -4.66699 99.666 -24.334 132.999 -59.001s50 -79.334 50 -134.001h-79c0 34 -9.16699 61.667 -27.5 83s-43.833 34.333 -76.5 39v-262l37 -12c49.333 -15.333 87.666 -41.333 114.999 -78
s41 -79.667 41 -129c0 -54.667 -17.5 -99.667 -52.5 -135s-81.833 -55.666 -140.5 -60.999v-131h-54zM332.002 61.999c36 5.33301 63.832 18.5 83.499 39.5s29.5 48.833 29.5 83.5c0 32 -8.66699 59.833 -26 83.5s-41.666 40.167 -72.999 49.5l-14 4v-260zM278.001 393.999
v274c-32.667 -4.66699 -58 -16.667 -76 -36s-27 -44.666 -27 -75.999c0 -34.667 10.5 -64.334 31.5 -89.001s50.833 -40.667 89.5 -48z" />
    <glyph glyph-name="percent" unicode="%" 
d="M16 0l502 730h66l-502 -730h-66zM444 -5c-41.333 0 -74.333 11.833 -99 35.5s-37 56.5 -37 98.5v67c0 42 12.333 74.833 37 98.5s57.667 35.5 99 35.5s74.166 -11.833 98.499 -35.5s36.5 -56.5 36.5 -98.5v-67c0 -42 -12.167 -74.833 -36.5 -98.5
s-57.166 -35.5 -98.499 -35.5zM444 57c46 0 69 24 69 72v67c0 48.667 -23 73 -69 73c-46.667 0 -70 -24.333 -70 -73v-67c0 -48 23.333 -72 70 -72zM156 400c-40.667 0 -73.334 11.833 -98.001 35.5s-37 56.5 -37 98.5v67c0 42 12.333 74.833 37 98.5
s57.334 35.5 98.001 35.5c41.333 0 74.333 -11.833 99 -35.5s37 -56.5 37 -98.5v-67c0 -42 -12.333 -74.833 -37 -98.5s-57.667 -35.5 -99 -35.5zM156 461c46.667 0 70 24.333 70 73v67c0 48.667 -23.333 73 -70 73c-22.667 0 -39.834 -6 -51.501 -18
s-17.5 -30.333 -17.5 -55v-67c0 -24.667 5.83301 -43 17.5 -55s28.834 -18 51.501 -18z" />
    <glyph glyph-name="ampersand" unicode="&#x26;" 
d="M227 -10c-52.667 0 -94 14.666 -124 43.999s-45 69.666 -45 120.999v121c0 38.667 9.83301 70.667 29.5 96s47.5 42.333 83.5 51l-7 3c-22 29.333 -37.833 56.333 -47.5 81s-14.5 49.334 -14.5 74.001c0 31.333 7.33301 59 22 83s35.167 42.667 61.5 56
s57.166 20 92.499 20c37.333 0 69.833 -7.16699 97.5 -21.5s49 -34.166 64 -59.499s22.5 -55.333 22.5 -90h-80c0 20.667 -4.33301 38.5 -13 53.5s-20.667 26.833 -36 35.5s-33.666 13 -54.999 13c-19.333 0 -36.333 -3.83301 -51 -11.5s-26 -18.334 -34 -32.001
s-12 -29.834 -12 -48.501c0 -17.333 4 -36.166 12 -56.499s19.333 -40.166 34 -59.499l174 -239l75 136h82l-111 -199l118 -161h-87l-71 95c-49.333 -70 -109.333 -105 -180 -105zM232 60.999c25.333 0 49.3311 8.16699 71.998 24.5s42.334 39.833 59.001 70.5l-154 209
c-23.333 -2.66699 -41.166 -11.667 -53.499 -27s-18.5 -36 -18.5 -62v-121c0 -28.667 8.5 -51.5 25.5 -68.5s40.167 -25.5 69.5 -25.5z" />
    <glyph glyph-name="quotesingle" unicode="'" 
d="M263 430l-11 145v155h88v-155l-10 -145h-67z" />
    <glyph glyph-name="parenleft" unicode="(" 
d="M485 -120c-94 23.333 -166.667 68.667 -218 136s-77 151 -77 251v186c0 66 11.833 125.167 35.5 177.5s57.5 96.5 101.5 132.5s96.667 61.667 158 77v-76c-44 -10 -82 -29.5 -114 -58.5s-56.667 -64.833 -74 -107.5s-26 -91 -26 -145v-186
c0 -52.667 8.66699 -100.5 26 -143.5s42 -78.667 74 -107s70 -47.5 114 -57.5v-79z" />
    <glyph glyph-name="parenright" unicode=")" 
d="M115 -120l-0.00195312 78.999c44.667 10 82.834 29.167 114.501 57.5s56.167 64 73.5 107s26 90.833 26 143.5v186c0 54 -8.66699 102.333 -26 145s-42 78.5 -74 107.5s-70 48.5 -114 58.5v76c62 -15.333 114.833 -41 158.5 -77s77.334 -80.167 101.001 -132.5
s35.5 -111.5 35.5 -177.5v-186c0 -100 -25.667 -183.667 -77 -251s-124 -112.666 -218 -135.999z" />
    <glyph glyph-name="asterisk" unicode="*" 
d="M177 97l-65.0029 44.999l60 84c9.33301 14 19.666 27 30.999 39s22.5 22.833 33.5 32.5l28.5 25.5l-3 9l-38.5 4.5c-14.333 1.66699 -29.166 4.16699 -44.499 7.5s-30.666 7.66602 -45.999 12.999l-96 35l27 75l96 -35c15.333 -5.33301 30 -11.833 44 -19.5
s27.333 -15.5 40 -23.5s23.334 -15.667 32.001 -23l6 5l-9 39c-3.33301 14.667 -6.16602 30.167 -8.49902 46.5s-3.5 32.833 -3.5 49.5v104h78v-104c0 -16.667 -1 -33.167 -3 -49.5s-4.83301 -31.833 -8.5 -46.5s-7.16699 -27.667 -10.5 -39l6 -5
c9.33301 7.33301 20.166 15 32.499 23s25.5 15.833 39.5 23.5s28.667 13.834 44 18.501l97 35l27 -74l-97 -35c-14.667 -5.33301 -29.667 -9.66602 -45 -12.999s-30.166 -5.83301 -44.499 -7.5l-38.5 -4.5l-4 -10l29.5 -25.5c11 -9.66699 22 -20.5 33 -32.5
s21.167 -24.667 30.5 -38l60 -85l-65 -45l-60 85c-8.66699 14 -16.834 28.167 -24.501 42.5s-14.167 28.333 -19.5 42s-10 26.167 -14 37.5h-9l-14 -37c-5.33301 -14 -11.666 -28.167 -18.999 -42.5s-16 -28.5 -26 -42.5z" />
    <glyph glyph-name="plus" unicode="+" 
d="M261 96v199h-193v71h193v199h78v-199h193v-71h-193v-199h-78z" />
    <glyph glyph-name="comma" unicode="," 
d="M172 -160l78 311h120l-129 -311h-69z" />
    <glyph glyph-name="hyphen" unicode="-" 
d="M140 295v70h320v-70h-320z" />
    <glyph glyph-name="period" unicode="." 
d="M300 -10c-24.667 0 -44.167 7.16699 -58.5 21.5s-21.5 33.5 -21.5 57.5c0 25.333 7.16699 45.333 21.5 60s33.833 22 58.5 22s44.167 -7.33301 58.5 -22s21.5 -34.667 21.5 -60c0 -24 -7.16699 -43.167 -21.5 -57.5s-33.833 -21.5 -58.5 -21.5z" />
    <glyph glyph-name="slash" unicode="/" 
d="M80 -110l356 940h84l-356 -940h-84z" />
    <glyph glyph-name="zero" unicode="0" 
d="M300 -10c-44 0 -82.332 8.83398 -114.999 26.501s-57.834 42.667 -75.501 75s-26.5 70.166 -26.5 113.499v320c0 44 8.83301 82 26.5 114s42.834 56.833 75.501 74.5s71 26.5 115 26.5c44.667 0 83.167 -8.83301 115.5 -26.5s57.333 -42.5 75 -74.5s26.5 -70 26.5 -114
v-320c0 -44 -8.83301 -82 -26.5 -114s-42.834 -56.833 -75.501 -74.5s-71 -26.5 -115 -26.5zM300.001 60.001c42 0 75.5 13.333 100.5 40s37.5 61.667 37.5 105v320c0 43.333 -12.5 78.333 -37.5 105s-58.5 40 -100.5 40s-75.5 -13.333 -100.5 -40s-37.5 -61.667 -37.5 -105
v-320c0 -43.333 12.5 -78.333 37.5 -105s58.5 -40 100.5 -40zM300.001 309.001c-17.333 0 -31.166 5.5 -41.499 16.5s-15.5 25.167 -15.5 42.5s5.16699 31.166 15.5 41.499s24.166 15.5 41.499 15.5s31.166 -5.16699 41.499 -15.5s15.5 -24.166 15.5 -41.499
s-5.16699 -31.5 -15.5 -42.5s-24.166 -16.5 -41.499 -16.5z" />
    <glyph glyph-name="one" unicode="1" 
d="M93 0v72h200v591l-198 -147v88l170 126h107v-658h165v-72h-444z" />
    <glyph glyph-name="two" unicode="2" 
d="M93 0l0.000976562 82l225 236c40 42 69.333 80 88 114s28 67 28 99c0 42.667 -12.167 76.5 -36.5 101.5s-57.5 37.5 -99.5 37.5c-44 0 -78.833 -12.667 -104.5 -38s-38.5 -60 -38.5 -104h-80c1.33301 43.333 11.333 81 30 113s44.5 56.5 77.5 73.5s71.5 25.5 115.5 25.5
s82.167 -8.33301 114.5 -25s57.166 -40.5 74.499 -71.5s26 -68.167 26 -111.5c0 -42 -11.333 -84 -34 -126s-59 -89 -109 -141l-190 -193h347v-72h-434z" />
    <glyph glyph-name="three" unicode="3" 
d="M289 -10c-42.667 0 -80.168 8.66699 -112.501 26s-57.333 41.5 -75 72.5s-26.5 67.167 -26.5 108.5h80c0 -42.667 12 -76 36 -100s57 -36 99 -36c42.667 0 75.834 12.5 99.501 37.5s35.5 57.833 35.5 98.5v58c0 43.333 -11.833 76.833 -35.5 100.5
s-56.834 35.5 -99.501 35.5h-69v78l184 189h-301v72h381v-79l-194 -200v10c65.333 0 117.333 -18.5 156 -55.5s58 -87.167 58 -150.5v-58c0 -41.333 -9 -77.5 -27 -108.5s-43.167 -55.167 -75.5 -72.5s-70.166 -26 -113.499 -26z" />
    <glyph glyph-name="four" unicode="4" 
d="M417 0v163h-332v130l290 437h86l-296 -455v-40h252v185h79v-420h-79z" />
    <glyph glyph-name="five" unicode="5" 
d="M299 -10c-59.333 0 -107.667 15.5 -145 46.5s-59 72.833 -65 125.5h79c3.33301 -32 16.333 -56.833 39 -74.5s53.334 -26.5 92.001 -26.5c43.333 0 76.333 12.167 99 36.5s34 58.833 34 103.5v70c0 44 -11.167 78.167 -33.5 102.5s-55.166 36.5 -98.499 36.5
c-28 0 -52.333 -7.5 -73 -22.5s-35.334 -35.5 -44.001 -61.5h-79l5 404h378v-72h-301l-3 -260h26l-27 -28c0 34 13 60.833 39 80.5s60.667 29.5 104 29.5c59.333 0.666992 105.166 -17.5 137.499 -54.5s48.5 -88.5 48.5 -154.5v-70c0 -64.667 -18.667 -116 -56 -154
s-89.333 -57 -156 -57z" />
    <glyph glyph-name="six" unicode="6" 
d="M301 -10c-46 0 -86.166 9.83398 -120.499 29.501s-60.833 47 -79.5 82s-28 75.833 -28 122.5c0 35.333 5 70 15 104s25 67 45 99l185 303h88l-208 -335l4 -3c12 16.667 29.333 30.5 52 41.5s48.667 16.5 78 16.5c39.333 0 73.666 -9.33301 102.999 -28
s52 -44.834 68 -78.501s24 -73.5 24 -119.5c0 -46.667 -9.33301 -87.5 -28 -122.5s-45 -62.333 -79 -82s-73.667 -29.5 -119 -29.5zM300.001 61.001c44.667 0 80.501 14.833 107.501 44.5s40.5 69.167 40.5 118.5c0 48 -13.5 86.667 -40.5 116s-62.833 44 -107.5 44
c-44 0 -79.667 -14.667 -107 -44s-41 -68 -41 -116c-0.666992 -49.333 12.666 -88.833 39.999 -118.5s63.333 -44.5 108 -44.5z" />
    <glyph glyph-name="seven" unicode="7" 
d="M191 0l262 656h-291v-119h-81v193h451v-79l-254 -651h-87z" />
    <glyph glyph-name="eight" unicode="8" 
d="M300 -10c-44 0 -82.332 7.66895 -114.999 23.002s-57.834 37.5 -75.501 66.5s-26.5 63.167 -26.5 102.5c0 43.333 11.833 80.666 35.5 111.999s61.834 59.333 114.501 84l95 47c32.667 15.333 57.167 34.5 73.5 57.5s24.5 48.5 24.5 76.5c0 34 -11.333 61 -34 81
s-53.334 30 -92.001 30c-38 0 -68.167 -10.167 -90.5 -30.5s-33.5 -47.5 -33.5 -81.5c0 -28 8 -53.333 24 -76s39 -41.334 69 -56.001l95 -46c54 -26 93 -54.667 117 -86s36 -68.666 36 -111.999c0 -58.667 -19.5 -105.334 -58.5 -140.001s-91.833 -52 -158.5 -52z
M300.001 61.002c42.667 0 76.498 10.998 101.498 32.998s37.5 51.667 37.5 89c0 30 -8.33301 57.333 -25 82s-41 44.667 -73 60l-94 47c-51.333 24.667 -89 52 -113 82s-36 65.667 -36 107c0 36 8.33301 67.5 25 94.5s40.167 48 70.5 63s65.833 22.5 106.5 22.5
s76.334 -7.5 107.001 -22.5s54.5 -36 71.5 -63s25.5 -58.5 25.5 -94.5c0 -40.667 -12 -76 -36 -106s-63 -58 -117 -84l-94 -46c-31.333 -15.333 -55.166 -35.166 -71.499 -59.499s-24.5 -51.5 -24.5 -81.5c0 -37.333 12.5 -67.166 37.5 -89.499s58.833 -33.5 101.5 -33.5z
" />
    <glyph glyph-name="nine" unicode="9" 
d="M194 0l207.999 335l-4 3c-12 -16.667 -29.333 -30.5 -52 -41.5s-48.667 -16.5 -78 -16.5c-39.333 0 -73.666 9.33301 -102.999 28s-52 45 -68 79s-24 73.667 -24 119c0 47.333 9.33301 88.333 28 123s45.167 61.834 79.5 81.501s73.833 29.5 118.5 29.5
c46 0 86.167 -9.83301 120.5 -29.5s60.833 -46.834 79.5 -81.501s28 -75.667 28 -123c0 -34.667 -4.83301 -69.167 -14.5 -103.5s-24.5 -67.5 -44.5 -99.5l-186 -303h-88zM299.999 346c44.667 0 80.499 14.666 107.499 43.999s40.5 68.333 40.5 117
c0.666992 48.667 -12.666 87.834 -39.999 117.501s-63.333 44.5 -108 44.5s-80.5 -14.833 -107.5 -44.5s-40.5 -69.167 -40.5 -118.5c0 -48 13.5 -86.667 40.5 -116s62.833 -44 107.5 -44z" />
    <glyph glyph-name="colon" unicode=":" 
d="M300 412c-24 0 -43.333 6.66699 -58 20s-22 31.333 -22 54c0 22 7.33301 39.833 22 53.5s34 20.5 58 20.5c24.667 0 44.167 -6.83301 58.5 -20.5s21.5 -31.5 21.5 -53.5c0 -22.667 -7.16699 -40.667 -21.5 -54s-33.833 -20 -58.5 -20zM300 -10
c-24 0 -43.333 6.83301 -58 20.5s-22 31.5 -22 53.5c0 22.667 7.33301 40.667 22 54s34 20 58 20c24.667 0 44.167 -6.66699 58.5 -20s21.5 -31.333 21.5 -54c0 -22 -7.16699 -39.833 -21.5 -53.5s-33.833 -20.5 -58.5 -20.5z" />
    <glyph glyph-name="semicolon" unicode=";" 
d="M175 -160l79 311h119l-128 -311h-70zM291 413c-21.333 0 -39 6.83301 -53 20.5s-21 31.167 -21 52.5s7 39 21 53s31.667 21 53 21h18c21.333 0 38.833 -7 52.5 -21s20.5 -31.667 20.5 -53s-6.83301 -38.833 -20.5 -52.5s-31.167 -20.5 -52.5 -20.5h-18z" />
    <glyph glyph-name="less" unicode="&#x3c;" 
d="M514 69l-428.001 218v86l428 218v-78l-305 -152c-13.333 -6.66699 -26.166 -12.667 -38.499 -18s-21.5 -9 -27.5 -11l29 -12c12.667 -5.33301 25 -11 37 -17l305 -154v-80z" />
    <glyph glyph-name="equal" unicode="=" 
d="M88 413v71h424v-71h-424zM88 177v70h424v-70h-424z" />
    <glyph glyph-name="greater" unicode="&#x3e;" 
d="M86 69l0.000976562 78l305 152c13.333 6.66699 26.166 12.667 38.499 18s21.5 9 27.5 11l-29 12c-12.667 5.33301 -25 11 -37 17l-305 154v80l428 -218v-86z" />
    <glyph glyph-name="question" unicode="?" 
d="M219 205l-0.00195312 176.997h50c44 0 79 12.5 105 37.5s39 58.167 39 99.5s-13 74.5 -39 99.5s-61.333 37.5 -106 37.5h-124v74h124c45.333 0 84.833 -8.66699 118.5 -26s59.834 -41.666 78.501 -72.999s28 -68.666 28 -111.999
c0 -38.667 -8.16699 -73.167 -24.5 -103.5s-39.166 -54.166 -68.499 -71.499s-63.333 -27 -102 -29v-110h-79zM245.998 -5.00293c-17.333 0 -31.5 5.5 -42.5 16.5s-16.5 25.167 -16.5 42.5c0 16.667 5.5 30.5 16.5 41.5s25.167 16.5 42.5 16.5h23
c18.667 0 33.167 -5.33301 43.5 -16s15.5 -24.667 15.5 -42c0 -16.667 -5.5 -30.667 -16.5 -42s-25.167 -17 -42.5 -17h-23z" />
    <glyph glyph-name="at" unicode="@" 
d="M325 -180c-56 0 -104.498 12 -145.498 36s-72.833 57.833 -95.5 101.5s-34 95.167 -34 154.5v337c0 60 10.667 111.833 32 155.5s51.666 77.167 90.999 100.5s86.666 35 141.999 35c50 0 93 -10 129 -30s63.667 -48.5 83 -85.5s29 -81.167 29 -132.5v-427h-64v58h-27
l19 20c0 -26.667 -10 -48 -30 -64s-46.333 -24 -79 -24c-43.333 0 -76.5 13.167 -99.5 39.5s-34.5 64.833 -34.5 115.5v123c0 49.333 11.5 87 34.5 113s56.167 39 99.5 39c33.333 0 59.833 -8 79.5 -24s29.5 -37.333 29.5 -64l-16 20h25l-9 70v5c0 40 -6.5 73.667 -19.5 101
s-32 48.166 -57 62.499s-55.833 21.5 -92.5 21.5c-61.333 0 -108.833 -20 -142.5 -60s-50.5 -96 -50.5 -168v-337c0 -69.333 18 -124.166 54 -164.499s85.667 -60.5 149 -60.5h71v-67h-71zM399.002 113c28.667 0 50 8.66699 64 26s21 43.333 21 78v116
c0 32 -7 55.667 -21 71s-35.333 23 -64 23s-50.167 -7.83301 -64.5 -23.5s-21.5 -39.167 -21.5 -70.5v-123c0 -32.667 7.16699 -57 21.5 -73s35.833 -24 64.5 -24z" />
    <glyph glyph-name="A" unicode="A" 
d="M55 0l193 730h105l192 -730h-80l-51 198h-228l-50 -198h-81zM202 266h195l-62 244c-10 40.667 -18 74.834 -24 102.501s-9.66699 45.5 -11 53.5c-1.33301 -8 -5 -25.833 -11 -53.5s-14 -61.834 -24 -102.501z" />
    <glyph glyph-name="B" unicode="B" 
d="M98 0l0.000976562 729.999h201c65.333 0 116.666 -16.833 153.999 -50.5s56 -79.834 56 -138.501c0 -33.333 -6.83301 -62.5 -20.5 -87.5s-33 -44.333 -58 -58s-55.167 -20.167 -90.5 -19.5v14c38 0 70.833 -7.5 98.5 -22.5s49.167 -36.667 64.5 -65
s23 -61.833 23 -100.5c0 -41.333 -8.66699 -77.166 -26 -107.499s-42 -53.666 -74 -69.999s-70.333 -24.5 -115 -24.5h-213zM175.001 71.999l129 -0.000976562c44.667 0 79.834 11.833 105.501 35.5s38.5 55.834 38.5 96.501c0 42 -12.833 75.833 -38.5 101.5
s-60.834 38.5 -105.501 38.5h-129v-272zM175.001 412.998h124c40.667 0 72.667 11 96 33s35 52 35 90s-11.5 67.833 -34.5 89.5s-55.167 32.5 -96.5 32.5h-124v-245z" />
    <glyph glyph-name="C" unicode="C" 
d="M305 -10c-43.333 0 -80.833 8.33301 -112.5 25s-56.167 40.667 -73.5 72s-26 68 -26 110v336c0 42.667 8.66699 79.5 26 110.5s41.833 54.833 73.5 71.5s69.167 25 112.5 25c42.667 0 79.834 -8.5 111.501 -25.5s56.167 -41.167 73.5 -72.5s26 -68.666 26 -111.999h-79
c0 44 -11.667 78.167 -35 102.5s-55.666 36.5 -96.999 36.5s-73.833 -11.833 -97.5 -35.5s-35.5 -57.167 -35.5 -100.5v-336c0 -42.667 11.833 -76 35.5 -100s56.167 -36 97.5 -36s73.666 12.167 96.999 36.5s35 58.5 35 102.5h79c0 -42.667 -8.66699 -79.834 -26 -111.501
s-41.833 -56 -73.5 -73s-68.834 -25.5 -111.501 -25.5z" />
    <glyph glyph-name="D" unicode="D" 
d="M97 0v730h181c46.667 0 87.167 -9 121.5 -27s60.833 -43.5 79.5 -76.5s28 -71.5 28 -115.5v-291c0 -44.667 -9.33301 -83.5 -28 -116.5s-45.167 -58.5 -79.5 -76.5s-74.833 -27 -121.5 -27h-181zM176 71h101.999c46.667 0 83.334 13.333 110.001 40s40 63 40 109v291
c0 45.333 -13.5 81.333 -40.5 108s-63.5 40 -109.5 40h-102v-588z" />
    <glyph glyph-name="E" unicode="E" 
d="M105 0v730h412v-72h-333v-241h298v-71h-298v-274h333v-72h-412z" />
    <glyph glyph-name="F" unicode="F" 
d="M100 0v731h425v-73h-347v-256h319v-72h-317v-330h-80z" />
    <glyph glyph-name="G" unicode="G" 
d="M305 -10c-43.333 0 -80.833 8.33301 -112.5 25s-56.167 40.667 -73.5 72s-26 68 -26 110v336c0 42.667 8.66699 79.5 26 110.5s41.833 54.833 73.5 71.5s69.167 25 112.5 25c42.667 0 79.834 -8.5 111.501 -25.5s56.167 -41.167 73.5 -72.5s26 -68.666 26 -111.999h-79
c0 44 -11.667 78.167 -35 102.5s-55.666 36.5 -96.999 36.5s-73.833 -11.833 -97.5 -35.5s-35.5 -57.167 -35.5 -100.5v-336c0 -42.667 11.833 -76 35.5 -100s56.167 -36 97.5 -36s73.666 12.167 96.999 36.5s35 58.5 35 102.5v95h-155v73h234v-168
c0 -42.667 -8.66699 -79.834 -26 -111.501s-41.833 -56 -73.5 -73s-68.834 -25.5 -111.501 -25.5z" />
    <glyph glyph-name="H" unicode="H" 
d="M98 0v730h79v-316h246v316h79v-730h-79v341h-246v-341h-79z" />
    <glyph glyph-name="I" unicode="I" 
d="M109 0v72h151v586h-151v72h382v-72h-150v-586h150v-72h-382z" />
    <glyph glyph-name="J" unicode="J" 
d="M271 -10c-68 0 -121.5 19.333 -160.5 58s-58.5 91.667 -58.5 159h79c0 -46 12.333 -81.833 37 -107.5s59 -38.5 103 -38.5s78.5 12.833 103.5 38.5s37.5 61.5 37.5 107.5v450h-179v73h258v-523c0 -67.333 -19.667 -120.333 -59 -159s-93 -58 -161 -58z" />
    <glyph glyph-name="K" unicode="K" 
d="M97 0v730h79v-317h120l162 317h87l-179 -350l189 -380h-92l-169 343h-118v-343h-79z" />
    <glyph glyph-name="L" unicode="L" 
d="M116 0v730h80v-658h336v-72h-416z" />
    <glyph glyph-name="M" unicode="M" 
d="M80 0l-0.00292969 730h107l83 -248c6.66699 -19.333 13 -39 19 -59s10.333 -35.667 13 -47l13.5 47c5.66699 20 11.834 40 18.501 60l79 247h107v-730h-78v312c0 28 0.833008 59.167 2.5 93.5s3.83398 68.833 6.50098 103.5l8 99.5l7 81.5l-123 -369h-84l-124 369
c2.66699 -22.667 5.33398 -49.167 8.00098 -79.5s5 -62.666 7 -96.999s3.83301 -68.833 5.5 -103.5s2.5 -67.334 2.5 -98.001v-312h-78z" />
    <glyph glyph-name="N" unicode="N" 
d="M95 0v730.003h106l235 -638c-0.666992 15.333 -1.66699 34.166 -3 56.499s-2.5 45.166 -3.5 68.499s-1.5 44.333 -1.5 63v450h77v-730h-107l-233 638c1.33301 -13.333 2.33301 -30.5 3 -51.5s1.5 -43.333 2.5 -67s1.5 -46.834 1.5 -69.501v-450h-77z" />
    <glyph glyph-name="O" unicode="O" 
d="M300 -10c-42.667 0 -79.5 8.33301 -110.5 25s-54.833 40.5 -71.5 71.5s-25 67.833 -25 110.5v336c0 42.667 8.33301 79.5 25 110.5s40.5 54.833 71.5 71.5s67.833 25 110.5 25s79.5 -8.33301 110.5 -25s54.833 -40.5 71.5 -71.5s25 -67.833 25 -110.5v-336
c0 -42.667 -8.33301 -79.5 -25 -110.5s-40.5 -54.833 -71.5 -71.5s-67.833 -25 -110.5 -25zM300 61c41.333 0 73 11.833 95 35.5s33 57.167 33 100.5v336c0 43.333 -11.167 76.833 -33.5 100.5s-53.833 35.5 -94.5 35.5s-72.167 -11.833 -94.5 -35.5
s-33.5 -57.167 -33.5 -100.5v-336c0 -43.333 11.167 -76.833 33.5 -100.5s53.833 -35.5 94.5 -35.5z" />
    <glyph glyph-name="P" unicode="P" 
d="M97 0v730.002h229c44.667 0 83.5 -8.66699 116.5 -26s58.5 -41.833 76.5 -73.5s27 -69.167 27 -112.5c0 -42.667 -9 -79.834 -27 -111.501s-43.5 -56.334 -76.5 -74.001s-71.833 -26.5 -116.5 -26.5h-150v-306h-79zM176 378.002h150c42 0 75.5 12.667 100.5 38
s37.5 59.333 37.5 102c0 43.333 -12.5 77.5 -37.5 102.5s-58.5 37.5 -100.5 37.5h-150v-280z" />
    <glyph glyph-name="Q" unicode="Q" 
d="M429 -180l-107.999 178.002l12 -6c-3.33301 0 -8 -0.333008 -14 -1s-12.333 -1 -19 -1c-43.333 0 -81 8.66699 -113 26s-56.667 41.833 -74 73.5s-26 68.834 -26 111.501v328c0 43.333 8.66699 80.666 26 111.999s42 55.666 74 72.999s69.667 26 113 26
c44 0 81.833 -8.83301 113.5 -26.5s56.167 -42.167 73.5 -73.5s26 -68.333 26 -111v-328c0 -44 -9.33301 -82.333 -28 -115s-45.334 -57.334 -80.001 -74.001l117 -192h-93zM300.001 61.002c41.333 0 74 12.667 98 38s36 59.333 36 102v328c0 43.333 -12 77.5 -36 102.5
s-56.667 37.5 -98 37.5c-40.667 0 -73.167 -12.5 -97.5 -37.5s-36.5 -59.167 -36.5 -102.5v-328c0 -42.667 12.167 -76.667 36.5 -102s56.833 -38 97.5 -38z" />
    <glyph glyph-name="R" unicode="R" 
d="M97 0l0.000976562 730h220c43.333 0 81.166 -8.66699 113.499 -26s57.333 -41.5 75 -72.5s26.5 -67.5 26.5 -109.5c0 -50 -13.333 -92.667 -40 -128s-63 -59 -109 -71l158 -323h-94l-146 315h-125v-315h-79zM176.001 387l141 0.000976562c40.667 0 73.167 12.333 97.5 37
s36.5 57.667 36.5 99s-12.167 74.166 -36.5 98.499s-56.833 36.5 -97.5 36.5h-141v-271z" />
    <glyph glyph-name="S" unicode="S" 
d="M304 -10c-46.667 0 -86.999 7.99805 -120.999 23.998s-60.333 38.833 -79 68.5s-28.334 65.167 -29.001 106.5h80c0 -39.333 13.333 -70.5 40 -93.5s63 -34.5 109 -34.5c44 0 78.5 11 103.5 33s37.5 52.333 37.5 91c0 32 -8.66699 59.833 -26 83.5
s-41.666 40.167 -72.999 49.5l-95 30c-50 14.667 -88.5 39.834 -115.5 75.501s-40.5 77.5 -40.5 125.5c0 39.333 8.66699 73.166 26 101.499s41.833 50.5 73.5 66.5s68.834 24 111.501 24c63.333 0 114 -17.667 152 -53s57 -82.666 57 -141.999h-79c0 38 -11.667 68 -35 90
s-55.333 33 -96 33s-72.5 -9.83301 -95.5 -29.5s-34.5 -47.5 -34.5 -83.5c0 -31.333 8.66699 -58.666 26 -81.999s41.666 -40 72.999 -50l95 -30c49.333 -15.333 87.666 -41.333 114.999 -78s41 -79.667 41 -129c0 -39.333 -9.16699 -73.833 -27.5 -103.5
s-44 -52.667 -77 -69s-71.833 -24.5 -116.5 -24.5z" />
    <glyph glyph-name="T" unicode="T" 
d="M261 0v658h-205v73h488v-73h-204v-658h-79z" />
    <glyph glyph-name="U" unicode="U" 
d="M300 -10c-65.333 0 -115.831 18.668 -151.498 56.001s-53.5 87.666 -53.5 150.999v533h79v-533c0 -42 10.667 -75.167 32 -99.5s52.666 -36.5 93.999 -36.5s72.666 12.167 93.999 36.5s32 57.5 32 99.5v533h79v-533c0 -64 -17.667 -114.5 -53 -151.5
s-86 -55.5 -152 -55.5z" />
    <glyph glyph-name="V" unicode="V" 
d="M246 0l-191.001 730h82l131 -510c8 -33.333 15 -64.333 21 -93s10.333 -50.334 13 -65.001c2.66699 14.667 6.83398 36.334 12.501 65.001s12.5 59.667 20.5 93l130 510h80l-192 -730h-107z" />
    <glyph glyph-name="W" unicode="W" 
d="M115 0l-85.998 730h75l59 -540l4.5 -45.5c1.66699 -16.333 3.16699 -32.333 4.5 -48s2 -28.834 2 -39.501c1.33301 10.667 2.83301 23.834 4.5 39.501s3.5 31.667 5.5 48s4 31.5 6 45.5l70 540h85l65 -540c2 -14 4 -29.167 6 -45.5l6 -48
c2 -15.667 3.33301 -28.834 4 -39.501c1.33301 10.667 2.66602 23.834 3.99902 39.501s3 31.667 5 48s3.66699 31.5 5 45.5l58 540h73l-87 -730h-102l-65 545c-2 15.333 -3.83301 31 -5.5 47s-3.33398 31.167 -5.00098 45.5s-3.16699 26.166 -4.5 35.499
c-0.666992 -9.33301 -2 -21 -4 -35s-3.83301 -29.167 -5.5 -45.5s-3.5 -32.166 -5.5 -47.499l-71 -545h-101z" />
    <glyph glyph-name="X" unicode="X" 
d="M43 0l212 373l-199 357h91l115 -218l20.5 -38.5l18.5 -35.5l18.5 35.5l20.5 38.5l117 218h87l-199 -352l212 -378h-91l-128 237l-20.5 39c-7.66699 14.667 -13.5 26.667 -17.5 36l-18.5 -35.5l-20.5 -38.5l-130 -238h-88z" />
    <glyph glyph-name="Y" unicode="Y" 
d="M260 0v275l-221 455h82l150 -308c8 -16 14.5 -30 19.5 -42s8.5 -21 10.5 -27c2 6 5.66699 15 11 27l19 42l148 308h82l-221 -455v-275h-80z" />
    <glyph glyph-name="Z" unicode="Z" 
d="M87 0v79l336 579h-332v72h411v-81l-335 -577h346v-72h-426z" />
    <glyph glyph-name="bracketleft" unicode="[" 
d="M209 -110v940h240v-71h-161v-798h161v-71h-240z" />
    <glyph glyph-name="backslash" unicode="\" 
d="M436 -110l-356 940h84l356 -940h-84z" />
    <glyph glyph-name="bracketright" unicode="]" 
d="M151 -110v71h161v798h-161v71h240v-940h-240z" />
    <glyph glyph-name="asciicircum" unicode="^" 
d="M85 340l179 390h75l176 -390h-75l-112 259c-5.33301 13.333 -10.333 26.5 -15 39.5s-8 22.833 -10 29.5l-11.5 -29.5c-5 -13 -10.5 -26.167 -16.5 -39.5l-115 -259h-75z" />
    <glyph glyph-name="underscore" unicode="_" 
d="M60 -92v67h480v-67h-480z" />
    <glyph glyph-name="grave" unicode="`" 
d="M301 645l-114 140h90l109 -140h-85z" />
    <glyph glyph-name="a" unicode="a" 
d="M257 -10c-58 0 -103.67 14.832 -137.003 44.499s-50 69.834 -50 120.501c0 50 16.333 89.5 49 118.5s76.667 43.5 132 43.5h175v58c0 36.667 -10.667 65 -32 85s-51.666 30 -90.999 30c-34.667 0 -63.5 -7.66699 -86.5 -23s-36.167 -36 -39.5 -62h-80
c6.66699 47.333 28.834 85 66.501 113s84.834 42 141.501 42c61.333 0 110 -16.5 146 -49.5s54 -77.5 54 -133.5v-377h-78v107h-13l15 16c0 -40.667 -15.667 -73 -47 -97s-73 -36 -125 -36zM275.997 53.999c44 0 80 11 108 33s42 50.667 42 86v83h-174
c-31.333 0 -56.333 -8.66699 -75 -26s-28 -41 -28 -71c0 -32 11.333 -57.5 34 -76.5s53.667 -28.5 93 -28.5z" />
    <glyph glyph-name="b" unicode="b" 
d="M327 -10c-46 0 -83.167 12.501 -111.5 37.501s-42.5 59.167 -42.5 102.5l24 -33h-21v-97h-79v730h79v-157l-1 -120h19l-21 -33c0 42.667 14.333 76.667 43 102s65.667 38 111 38c55.333 0 99.666 -18.333 132.999 -55s50 -86.334 50 -149.001v-163
c0 -62 -16.667 -111.333 -50 -148s-77.666 -55 -132.999 -55zM302 59.001c40 0 71.333 11.998 94 35.998s34 58 34 102v156c0 44 -11.333 78 -34 102s-54 36 -94 36c-38.667 0 -69.334 -12.167 -92.001 -36.5s-34 -58.166 -34 -101.499v-156
c0 -43.333 11.333 -77.166 34 -101.499s53.334 -36.5 92.001 -36.5z" />
    <glyph glyph-name="c" unicode="c" 
d="M303 -10c-42.667 0 -80 8.33301 -112 25s-56.833 40.5 -74.5 71.5s-26.5 67.833 -26.5 110.5v156c0 42.667 8.83301 79.5 26.5 110.5s42.5 54.833 74.5 71.5s69.333 25 112 25c62.667 0 113 -17 151 -51s57.667 -80.333 59 -139h-79c-1.33301 38 -13.5 67.333 -36.5 88
s-54.5 31 -94.5 31c-40.667 0 -73 -11.833 -97 -35.5s-36 -57.167 -36 -100.5v-156c0 -42.667 12 -76 36 -100s56.333 -36 97 -36c40 0 71.5 10.5 94.5 31.5s35.167 50.167 36.5 87.5h79c-1.33301 -58.667 -21 -105 -59 -139s-88.333 -51 -151 -51z" />
    <glyph glyph-name="d" unicode="d" 
d="M273 -10c-54.667 0 -98.832 18.332 -132.499 54.999s-50.5 86 -50.5 148v163c0 62.667 16.667 112.334 50 149.001s77.666 55 132.999 55c46 0 83.167 -12.667 111.5 -38s42.5 -59.333 42.5 -102l-21 33h19l-1 120v157h79v-730h-79v97h-21l24 33
c0 -43.333 -14.167 -77.5 -42.5 -102.5s-65.5 -37.5 -111.5 -37.5zM298.002 58.999c39.333 0 70.166 12.1689 92.499 36.502s33.5 58.166 33.5 101.499v156c0 43.333 -11.167 77.166 -33.5 101.499s-53.166 36.5 -92.499 36.5c-40 0 -71.333 -12 -94 -36s-34 -58 -34 -102
v-156c0 -44 11.333 -78 34 -102s54 -36 94 -36z" />
    <glyph glyph-name="e" unicode="e" 
d="M300 -10c-42.667 0 -79.666 8.50098 -110.999 25.501s-55.666 41.167 -72.999 72.5s-26 67.666 -26 108.999v156c0 42 8.66699 78.5 26 109.5s41.666 55 72.999 72s68.333 25.5 111 25.5s79.667 -8.5 111 -25.5s55.666 -41 72.999 -72s26 -67.5 26 -109.5v-97h-342v-59
c0 -44.667 11.5 -79.167 34.5 -103.5s55.5 -36.5 97.5 -36.5c35.333 0 64.166 7 86.499 21s36.5 34.333 42.5 61h79c-7.33301 -46 -29.666 -82.333 -66.999 -109s-84.333 -40 -141 -40zM432.001 309.001l0.000976562 44c0 44.667 -11.333 79.167 -34 103.5
s-55.334 36.5 -98.001 36.5c-42 0 -74.5 -12.167 -97.5 -36.5s-34.5 -58.833 -34.5 -103.5v-35h272z" />
    <glyph glyph-name="f" unicode="f" 
d="M225 0v423h-162v72h162v99c0 42 13.167 75.167 39.5 99.5s62.5 36.5 108.5 36.5h159v-72h-159c-22 0 -38.833 -5.5 -50.5 -16.5s-17.5 -26.833 -17.5 -47.5v-99h227v-72h-227v-423h-80z" />
    <glyph glyph-name="g" unicode="g" 
d="M164 -180l0.000976562 71.999h167c31.333 0 54.5 7.33301 69.5 22s22.5 37 22.5 67v64l2 104h-18l19 23c0 -41.333 -13.667 -74.333 -41 -99s-64 -37 -110 -37c-56 0 -100.333 18.5 -133 55.5s-49 86.5 -49 148.5v117c0 62 16.333 111.333 49 148s77 55 133 55
c46 0 82.667 -12.167 110 -36.5s41 -57.166 41 -98.499l-18 23h16v102h78v-569c0 -50.667 -14.833 -90.167 -44.5 -118.5s-71.834 -42.5 -126.501 -42.5h-167zM298.001 104.999c39.333 0 70.166 12.1689 92.499 36.502s33.5 58.166 33.5 101.499v110
c0 43.333 -11.167 77.166 -33.5 101.499s-53.166 36.5 -92.499 36.5c-40 0 -71 -12 -93 -36s-33 -58 -33 -102v-110c0 -44 11 -78 33 -102s53 -36 93 -36z" />
    <glyph glyph-name="h" unicode="h" 
d="M97 0l-0.000976562 730h79v-172v-106h20l-22 -32c0 44 13.5 78.333 40.5 103s63.833 37 110.5 37c54.667 0 98.334 -17.167 131.001 -51.5s49 -80.833 49 -139.5v-369h-79v360c0 42 -11 74.667 -33 98s-52 35 -90 35c-39.333 0 -70.333 -12.333 -93 -37s-34 -59 -34 -103
v-353h-79z" />
    <glyph glyph-name="i" unicode="i" 
d="M88 0v72h196v406h-171v72h251v-478h186v-72h-462zM315 651c-20.667 0 -37.167 5.33203 -49.5 15.999s-18.5 25.334 -18.5 44.001c0 19.333 6.16699 34.666 18.5 45.999s28.833 17 49.5 17s37.167 -5.66699 49.5 -17s18.5 -26.666 18.5 -45.999
c0 -18 -6.16699 -32.5 -18.5 -43.5s-28.833 -16.5 -49.5 -16.5z" />
    <glyph glyph-name="j" unicode="j" 
d="M88 -180l0.000976562 73h130c43.333 0 76.666 11.5 99.999 34.5s35 55.5 35 97.5v453h-236v72h315v-525c0 -62.667 -19.167 -112.5 -57.5 -149.5s-90.5 -55.5 -156.5 -55.5h-130zM387.001 651c-20.667 0 -37.167 5.33203 -49.5 15.999s-18.5 25.334 -18.5 44.001
c0 19.333 6.16699 34.666 18.5 45.999s28.833 17 49.5 17s37.167 -5.66699 49.5 -17s18.5 -26.666 18.5 -45.999c0 -18 -6.16699 -32.5 -18.5 -43.5s-28.833 -16.5 -49.5 -16.5z" />
    <glyph glyph-name="k" unicode="k" 
d="M100 0v730h79v-411h113l163 231h92l-185 -262l188 -288h-93l-164 250h-114v-250h-79z" />
    <glyph glyph-name="l" unicode="l" 
d="M372 0c-31.333 0 -58.499 6 -81.499 18s-40.833 29.333 -53.5 52s-19 49.334 -19 80.001v508h-183v72h262v-580c0 -24.667 6.66699 -43.834 20 -57.501s31.666 -20.5 54.999 -20.5h175v-72h-175z" />
    <glyph glyph-name="m" unicode="m" 
d="M69 0l-0.000976562 550h70v-68h15l-11 -22c0 30.667 8.16699 55 24.5 73s38.833 27 67.5 27c30 0 53.5 -10.667 70.5 -32s25.833 -51.333 26.5 -90l-21 44h33l-14 -22c0 30.667 8.33301 55 25 73s39.334 27 68.001 27c34 0 60.5 -12.667 79.5 -38s28.5 -59 28.5 -101
v-421h-74v421c0 24 -5.33301 42.833 -16 56.5s-25.667 20.5 -45 20.5s-34.666 -6.83301 -45.999 -20.5s-17 -32.5 -17 -56.5v-421h-66v421c0 24.667 -5.5 43.667 -16.5 57s-26.167 20 -45.5 20s-34.333 -6.66699 -45 -20s-16.334 -32.333 -17.001 -57v-421h-74z" />
    <glyph glyph-name="n" unicode="n" 
d="M97 0l-0.000976562 550h79v-102h20l-22 -29c0 44 13.5 78.5 40.5 103.5s63.833 37.5 110.5 37.5c54.667 0 98.334 -17.167 131.001 -51.5s49 -80.833 49 -139.5v-369h-79v360c0 42 -11 74.333 -33 97s-52 34 -90 34c-39.333 0 -70.333 -12 -93 -36s-34 -58 -34 -102v-353
h-79z" />
    <glyph glyph-name="o" unicode="o" 
d="M300 -9c-42.667 0 -79.667 8.33301 -111 25s-55.666 40.667 -72.999 72s-26 68.333 -26 111v152c0 43.333 8.66699 80.5 26 111.5s41.666 54.833 72.999 71.5s68.333 25 111 25s79.667 -8.33301 111 -25s55.666 -40.5 72.999 -71.5s26 -67.833 26 -110.5v-153
c0 -42.667 -8.66699 -79.667 -26 -111s-41.666 -55.333 -72.999 -72s-68.333 -25 -111 -25zM300 62c41.333 0 73.333 11.667 96 35s34 57.333 34 102v152c0 44.667 -11.5 78.667 -34.5 102s-54.833 35 -95.5 35s-72.5 -11.667 -95.5 -35s-34.5 -57.333 -34.5 -102v-152
c0 -44.667 11.5 -78.667 34.5 -102s54.833 -35 95.5 -35z" />
    <glyph glyph-name="p" unicode="p" 
d="M97 -180v730h79v-97h21l-24 -33c0 43.333 14.167 77.5 42.5 102.5s65.833 37.5 112.5 37.5c55.333 0 99.5 -18.167 132.5 -54.5s49.5 -85.833 49.5 -148.5v-163c0 -42 -7.66699 -78.167 -23 -108.5s-36.5 -53.833 -63.5 -70.5s-58.833 -25 -95.5 -25
c-46 0 -83.333 12.667 -112 38s-43 59.333 -43 102l21 -33h-19l1 -112v-165h-79zM303 59c40 0 71.167 11.9971 93.5 35.9971s33.5 58 33.5 102v156c0 44.667 -11.167 78.834 -33.5 102.501s-53.5 35.5 -93.5 35.5c-38.667 0 -69.5 -12.167 -92.5 -36.5
s-34.5 -58.166 -34.5 -101.499v-156c0 -43.333 11.5 -77.166 34.5 -101.499s53.833 -36.5 92.5 -36.5z" />
    <glyph glyph-name="q" unicode="q" 
d="M424 -180l-0.00195312 156.999l1 120h-19l21 33c0 -42.667 -14.167 -76.667 -42.5 -102s-65.5 -38 -111.5 -38c-55.333 0 -99.166 18.333 -131.499 55s-48.5 86.334 -48.5 149.001v163c0 62.667 16.333 112.167 49 148.5s76.334 54.5 131.001 54.5
c46 0 83.167 -12.5 111.5 -37.5s42.5 -59.167 42.5 -102.5l-24 33h21v97h79v-730h-79zM297.998 58.999c39.333 0 70.166 12.1699 92.499 36.5029s33.5 58.166 33.5 101.499v156c0 43.333 -11.167 77.166 -33.5 101.499s-53.166 36.5 -92.499 36.5
c-40 0 -71 -11.833 -93 -35.5s-33 -57.834 -33 -102.501v-156c0 -44 11 -78 33 -102s53 -36 93 -36z" />
    <glyph glyph-name="r" unicode="r" 
d="M115 0l-0.000976562 549.999h78v-102h19l-28 -63c0.666992 56 14.334 99.167 41.001 129.5s65 45.5 115 45.5c58 0 104.167 -18.167 138.5 -54.5s51.5 -85.166 51.5 -146.499v-33h-81v27c0 44.667 -11 79.167 -33 103.5s-53.333 36.5 -94 36.5
c-39.333 0 -70.333 -12.333 -93 -37s-34 -59 -34 -103v-353h-80z" />
    <glyph glyph-name="s" unicode="s" 
d="M280 -9c-36 0 -67.6689 5.99805 -95.002 17.998s-49 28.833 -65 50.5s-25.667 46.834 -29 75.501h79c4.66699 -22 16.5 -39.667 35.5 -53s43.833 -20 74.5 -20h49c35.333 0 62.166 7.83301 80.499 23.5s27.5 36.5 27.5 62.5c0 24.667 -8 44.667 -24 60s-39 25.333 -69 30
l-83 13c-52 8.66699 -91.167 25.334 -117.5 50.001s-39.5 59.334 -39.5 104.001c0 48.667 15.833 86.5 47.5 113.5s77.5 40.5 137.5 40.5h39c52 0 93.833 -12.333 125.5 -37s50.834 -58 57.501 -100h-80c-4 20 -14.833 36 -32.5 48s-41.167 18 -70.5 18h-39
c-35.333 0 -61.666 -7.16699 -78.999 -21.5s-26 -34.833 -26 -61.5c0 -24 7.33301 -42.167 22 -54.5s37 -20.833 67 -25.5l82 -13c54.667 -8.66699 95.334 -25.834 122.001 -51.501s40 -61.5 40 -107.5c0 -50 -16 -89.5 -48 -118.5s-78.667 -43.5 -140 -43.5h-49z" />
    <glyph glyph-name="t" unicode="t" 
d="M360 0c-46 0 -81.667 12.167 -107 36.5s-38 58.833 -38 103.5v338h-156v72h156v155h80v-155h221v-72h-221v-338c0 -45.333 21.667 -68 65 -68h146v-72h-146z" />
    <glyph glyph-name="u" unicode="u" 
d="M299 -10c-62 0 -111.5 18.667 -148.5 56s-55.5 88 -55.5 152v352h79v-352c0 -43.333 11.167 -77.166 33.5 -101.499s52.833 -36.5 91.5 -36.5c39.333 0 70.333 12.167 93 36.5s34 58.166 34 101.499v352h79v-352c0 -64 -18.667 -114.667 -56 -152s-87.333 -56 -150 -56z
" />
    <glyph glyph-name="v" unicode="v" 
d="M247 0l-186 550h81l127 -381l19 -61.5l14 -47.5l14 47.5l19 61.5l124 381h80l-186 -550h-106z" />
    <glyph glyph-name="w" unicode="w" 
d="M128 0l-88.9971 550h71l59 -395l6.5 -49c2.33301 -18 4.16602 -33 5.49902 -45c1.33301 12 3.66602 27 6.99902 45s6 34.333 8 49l66 395h76l67 -395c2 -14.667 4.5 -31 7.5 -49s5.16699 -33 6.5 -45c1.33301 12 3.5 27 6.5 45s5.5 34.333 7.5 49l60 395h68l-93 -550h-90
l-61 383c-2.66699 18.667 -5.83398 37.834 -9.50098 57.501s-6.16699 35.167 -7.5 46.5c-2 -11.333 -4.5 -26.833 -7.5 -46.5s-6.16699 -38.834 -9.5 -57.501l-64 -383h-91z" />
    <glyph glyph-name="x" unicode="x" 
d="M57 0l194.999 283l-183 267h93l116 -178c4 -6.66699 8.16699 -14.167 12.5 -22.5s7.83301 -14.833 10.5 -19.5c2.66699 4.66699 6.16699 11.167 10.5 19.5s8.5 15.833 12.5 22.5l116 178h92l-183 -268l194 -282h-93l-124 188c-4.66699 6.66699 -9.16699 14.667 -13.5 24
s-8.16602 16.666 -11.499 21.999c-2.66699 -5.33301 -6.66699 -12.666 -12 -21.999s-10.333 -17.333 -15 -24l-125 -188h-92z" />
    <glyph glyph-name="y" unicode="y" 
d="M184 -180l80.999 214.998l-204 515h88l130 -343c5.33301 -13.333 10.5 -28.166 15.5 -44.499s8.83301 -29.833 11.5 -40.5c3.33301 10.667 7.33301 24.334 12 41.001s9.33398 31.667 14.001 45l122 342h85l-271 -730h-84z" />
    <glyph glyph-name="z" unicode="z" 
d="M93 0v78l313 400h-304v72h393v-79l-317 -399h329v-72h-414z" />
    <glyph glyph-name="braceleft" unicode="{" 
d="M463 -110c-37.333 0 -69.499 6.33301 -96.499 19s-47.333 31.167 -61 55.5s-19.5 53.5 -17.5 87.5l11 173c2 35.333 -3.33301 60.666 -16 75.999s-40.667 23 -84 23h-110v71h110c42.667 0 70.667 7.83301 84 23.5s18.666 41.167 15.999 76.5l-11 173
c-2 34.667 3.83301 64 17.5 88s34 42.333 61 55s59.167 19 96.5 19h48v-71h-48c-30.667 0 -54.834 -7.66699 -72.501 -23s-25.5 -38 -23.5 -68l11 -173c3.33301 -41.333 -6.33398 -74.5 -29.001 -99.5s-54 -37.5 -94 -37.5v5c40 0 71.333 -12.667 94 -38
s32.334 -58.666 29.001 -99.999l-11 -173c-2 -30 5.83301 -52.667 23.5 -68s41.834 -23 72.501 -23h48v-71h-48z" />
    <glyph glyph-name="bar" unicode="|" 
d="M260 -110v940h80v-940h-80z" />
    <glyph glyph-name="braceright" unicode="}" 
d="M89 -110v71h47c31.333 0 55.666 7.66699 72.999 23s25.333 38 24 68l-11 173c-2.66699 41.333 7.16602 74.666 29.499 99.999s53.5 38 93.5 38v-5c-40 0 -71.167 12.5 -93.5 37.5s-32.166 58.167 -29.499 99.5l11 173c1.33301 30 -6.66699 52.667 -24 68
s-41.666 23 -72.999 23h-47v71h47c37.333 0 69.5 -6.33301 96.5 -19s47.5 -31 61.5 -55s20 -53.333 18 -88l-11 -173c-2 -35.333 3.5 -60.833 16.5 -76.5s40.833 -23.5 83.5 -23.5h110v-71h-110c-42.667 0 -70.5 -7.66699 -83.5 -23s-18.5 -40.666 -16.5 -75.999l11 -173
c2 -34 -4 -63.167 -18 -87.5s-34.5 -42.833 -61.5 -55.5s-59.167 -19 -96.5 -19h-47z" />
    <glyph glyph-name="asciitilde" unicode="~" 
d="M70 256v71.998c0 38 11.333 68.167 34 90.5s52.667 33.5 90 33.5c24 0 44.5 -4.33301 61.5 -13s31.833 -19.667 44.5 -33s24.167 -26.666 34.5 -39.999s21.166 -24.5 32.499 -33.5s24.333 -13.5 39 -13.5c16 0 28.167 5 36.5 15s12.5 24.333 12.5 43v72h75v-72
c0 -37.333 -11.167 -67.333 -33.5 -90s-51.833 -34 -88.5 -34c-24.667 0 -45.667 4.33301 -63 13s-32.166 19.834 -44.499 33.501s-23.833 27 -34.5 40s-21.5 24 -32.5 33s-23.833 13.5 -38.5 13.5c-15.333 0 -27.5 -5 -36.5 -15s-13.5 -24.333 -13.5 -43v-72h-75z" />
    <glyph glyph-name="uni00A0" unicode="&#xa0;" 
 />
    <glyph glyph-name="exclamdown" unicode="&#xa1;" 
d="M254 -180v134l19 384h55l20 -384v-134h-94zM292 438c-18.667 0 -33.667 5.49902 -45 16.499s-17 25.5 -17 43.5c0 17.333 5.66699 31.333 17 42s26.333 16 45 16h16c18.667 0 33.667 -5.16699 45 -15.5s17 -24.166 17 -41.499c0 -18.667 -5.66699 -33.5 -17 -44.5
s-26.333 -16.5 -45 -16.5h-16z" />
    <glyph glyph-name="cent" unicode="&#xa2;" 
d="M282 -140v830h54v-830h-54zM303 -10c-42.667 0 -80 8.33301 -112 25s-56.833 40.5 -74.5 71.5s-26.5 67.833 -26.5 110.5v156c0 42.667 8.83301 79.5 26.5 110.5s42.5 54.833 74.5 71.5s69.333 25 112 25c62.667 0 113 -17 151 -51s57.667 -80.333 59 -139h-79
c-1.33301 38 -13.5 67.333 -36.5 88s-54.5 31 -94.5 31c-40.667 0 -73 -11.833 -97 -35.5s-36 -57.167 -36 -100.5v-156c0 -42.667 12 -76 36 -100s56.333 -36 97 -36c40 0 71.5 10.5 94.5 31.5s35.167 50.167 36.5 87.5h79c-1.33301 -58.667 -21 -105 -59 -139
s-88.333 -51 -151 -51z" />
    <glyph glyph-name="sterling" unicode="&#xa3;" 
d="M75 0l0.000976562 87c16.667 12 33.667 27 51 45s32.166 37.167 44.499 57.5s18.5 40.166 18.5 59.499c0 28 -3.33301 52.5 -10 73.5s-14.834 40.333 -24.501 58l-29 51c-9.66699 16.333 -17.834 34.166 -24.501 53.499s-10 42 -10 68c0 38 8.5 71 25.5 99
s41.167 49.667 72.5 65s68.333 23 111 23c44 0 82 -7.5 114 -22.5s56.667 -36.667 74 -65s26.333 -62.5 27 -102.5h-83c0 36.667 -12 65.667 -36 87s-56.333 32 -97 32c-40 0 -71.333 -10.5 -94 -31.5s-34 -50.5 -34 -88.5c0 -22 3.33301 -41.5 10 -58.5
s14.834 -33.333 24.501 -49l29 -49c9.66699 -17 17.834 -36.5 24.501 -58.5s10 -48 10 -78c0 -28.667 -6 -55.167 -18 -79.5s-26.833 -45.666 -44.5 -63.999s-34.5 -32.166 -50.5 -41.499h379v-71h-460zM75.001 309v71h360v-71h-360z" />
    <glyph glyph-name="currency" unicode="&#xa4;" 
d="M498 118l-86 85.999c-15.333 -10 -32.5 -17.833 -51.5 -23.5s-38.833 -8.5 -59.5 -8.5c-21.333 0 -41.5 2.83301 -60.5 8.5s-36.5 13.5 -52.5 23.5l-85 -85l-55 55l84 84c-11.333 16 -20 33.833 -26 53.5s-9 40.167 -9 61.5c0 22 3.16699 42.667 9.5 62
s14.833 37 25.5 53l-86 86l56 56l88 -88c15.333 10.667 32.5 18.667 51.5 24s38.833 8 59.5 8c43.333 0 81.333 -11 114 -33l84 84l54 -54l-83 -84c10.667 -16 19 -33.667 25 -53s9 -39.666 9 -60.999s-3 -41.833 -9 -61.5s-14.667 -37.5 -26 -53.5l85 -85zM301 235.999
c25.333 0 48.333 6 69 18s36.834 28.333 48.501 49s17.5 44 17.5 70s-5.83301 49.333 -17.5 70s-27.834 37 -48.501 49s-43.667 18 -69 18s-48.333 -6 -69 -18s-37 -28.333 -49 -49s-18 -44 -18 -70s6 -49.333 18 -70s28.333 -37 49 -49s43.667 -18 69 -18z" />
    <glyph glyph-name="yen" unicode="&#xa5;" 
d="M60 270v68h480v-68h-480zM60 127v68h480v-68h-480zM260 0v275l-221 455h82l150 -308c8 -16 14.5 -30 19.5 -42s8.5 -21 10.5 -27c2 6 5.66699 15 11 27l19 42l148 308h82l-221 -455v-275h-80z" />
    <glyph glyph-name="brokenbar" unicode="&#xa6;" 
d="M260 450v380h80v-380h-80zM260 -110v380h80v-380h-80z" />
    <glyph glyph-name="section" unicode="&#xa7;" 
d="M282 -154c-35.333 0 -67.334 6.33301 -96.001 19s-52.167 30.334 -70.5 53.001s-29.833 49 -34.5 79h83c6 -23.333 19.667 -42.666 41 -57.999s47 -23 77 -23h39c38 0 67.167 8.33301 87.5 25s30.5 38.667 30.5 66c0 25.333 -8.5 46.666 -25.5 63.999
s-41.5 29.333 -73.5 36l-96 21c-46 10 -82.833 29.667 -110.5 59s-41.5 63.666 -41.5 102.999c0 36.667 11.667 68.667 35 96s53 43.333 89 48v7c-17.333 0.666992 -35.333 5.83398 -54 15.501s-34.5 24.667 -47.5 45s-19.5 47.166 -19.5 80.499
c0 48.667 17 87.167 51 115.5s81 42.5 141 42.5h33c52 0 95.667 -13 131 -39s56 -60.333 62 -103h-83c-4.66699 20.667 -17 37.667 -37 51s-44.333 20 -73 20h-33c-34.667 0 -62 -7.83301 -82 -23.5s-30 -36.834 -30 -63.501c0 -23.333 8.66699 -43.166 26 -59.499
s41.666 -28.166 72.999 -35.499l94 -20c46 -10 82.333 -29.333 109 -58s40 -63.334 40 -104.001c0 -38 -11.5 -70.333 -34.5 -97s-53.5 -41 -91.5 -43v-6c18.667 -2 37.834 -8.5 57.501 -19.5s36.334 -27 50.001 -48s20.5 -47.5 20.5 -79.5
c0 -51.333 -17.5 -91.833 -52.5 -121.5s-83.5 -44.5 -145.5 -44.5h-39zM330.999 181c20.667 -4 39 -1.33105 55 8.00195s28.5 23.666 37.5 42.999s13.5 40.666 13.5 63.999c0 25.333 -7.66699 47.333 -23 66s-35.333 30.667 -60 36l-74 16c-20 4 -38.167 1.33301 -54.5 -8
s-29.333 -23.333 -39 -42s-14.5 -39.667 -14.5 -63c0 -26 7.66699 -48.5 23 -67.5s36 -31.167 62 -36.5z" />
    <glyph glyph-name="dieresis" unicode="&#xa8;" 
d="M409 651c-18 0 -32.667 5.33203 -44 15.999s-17 25.334 -17 44.001c0 19.333 5.66699 34.666 17 45.999s26 17 44 17c18.667 0 33.5 -5.66699 44.5 -17s16.5 -26.666 16.5 -45.999c0 -18 -5.5 -32.5 -16.5 -43.5s-25.833 -16.5 -44.5 -16.5zM189 650.999
c-18 0 -32.667 5.33203 -44 15.999s-17 25.334 -17 44.001c0 19.333 5.66699 34.666 17 45.999s26 17 44 17s32.667 -5.66699 44 -17s17 -26.666 17 -45.999c0 -18 -5.66699 -32.5 -17 -43.5s-26 -16.5 -44 -16.5z" />
    <glyph glyph-name="copyright" unicode="&#xa9;" 
d="M300 110c-50 0 -94.167 10 -132.5 30s-68 48 -89 84s-31.5 78 -31.5 126v150c0 48 10.5 90 31.5 126s50.667 64 89 84s82.5 30 132.5 30c50.667 0 95 -10 133 -30s67.5 -48 88.5 -84s31.5 -78 31.5 -126v-150c0 -48 -10.5 -90 -31.5 -126s-50.5 -64 -88.5 -84
s-82.333 -30 -133 -30zM300 157c40 0 75.167 8 105.5 24s53.833 38.5 70.5 67.5s25 62.833 25 101.5v150c0 38.667 -8.33301 72.334 -25 101.001s-40.167 51.167 -70.5 67.5s-65.5 24.5 -105.5 24.5s-75.167 -8.16699 -105.5 -24.5s-53.833 -38.833 -70.5 -67.5
s-25 -62.334 -25 -101.001v-150c0 -38.667 8.33301 -72.5 25 -101.5s40.167 -51.5 70.5 -67.5s65.5 -24 105.5 -24zM305 245c-36.667 0 -66.167 10.5 -88.5 31.5s-33.5 48.833 -33.5 83.5v130c0 34.667 11.167 62.5 33.5 83.5s51.833 31.5 88.5 31.5s66 -10.5 88 -31.5
s33 -48.833 33 -83.5h-59c0 19.333 -5.83301 34.833 -17.5 46.5s-26.5 17.5 -44.5 17.5c-18.667 0 -33.834 -5.83301 -45.501 -17.5s-17.5 -27.167 -17.5 -46.5v-130c0 -19.333 5.83301 -34.833 17.5 -46.5s26.834 -17.5 45.501 -17.5c18 0 32.833 5.83301 44.5 17.5
s17.5 27.167 17.5 46.5h59c0 -34.667 -11 -62.5 -33 -83.5s-51.333 -31.5 -88 -31.5z" />
    <glyph glyph-name="ordfeminine" unicode="&#xaa;" 
d="M376 455v55h-3v140c0 16 -6.16699 28.833 -18.5 38.5s-28.833 14.5 -49.5 14.5c-18 0 -33.167 -4 -45.5 -12s-19.833 -18.333 -22.5 -31h-46c4 24.667 16.167 44.167 36.5 58.5s46.166 21.5 77.499 21.5c34.667 0 62.334 -8 83.001 -24s31 -38 31 -66v-195h-43zM274 450
c-29.333 0 -52.999 7.83301 -70.999 23.5s-27 36.5 -27 62.5c0 25.333 9.16699 45.833 27.5 61.5s43.5 23.5 75.5 23.5h105v-38h-105c-18 0 -32 -4.16699 -42 -12.5s-15 -19.833 -15 -34.5c0 -15.333 6 -27.666 18 -36.999s27.667 -14 47 -14c26.667 0 47.667 6.33301 63 19
s23 29.667 23 51h11v-45h-11c-6.66699 -18.667 -18.834 -33.334 -36.501 -44.001s-38.5 -16 -62.5 -16z" />
    <glyph glyph-name="guillemotleft" unicode="&#xab;" 
d="M471 40l-203 240l203 240h94l-207 -238l207 -242h-94zM239 40l-204 240l204 240h93l-206 -238l206 -242h-93z" />
    <glyph glyph-name="logicalnot" unicode="&#xac;" 
d="M454 208v132h-384v71h460v-203h-76z" />
    <glyph glyph-name="uni00AD" unicode="&#xad;" 
d="M140 295v70h320v-70h-320z" />
    <glyph glyph-name="registered" unicode="&#xae;" 
d="M300 110c-50 0 -94.167 10 -132.5 30s-68 48 -89 84s-31.5 78 -31.5 126v150c0 48 10.5 90 31.5 126s50.667 64 89 84s82.5 30 132.5 30c50.667 0 95 -10 133 -30s67.5 -48 88.5 -84s31.5 -78 31.5 -126v-150c0 -48 -10.5 -90 -31.5 -126s-50.5 -64 -88.5 -84
s-82.333 -30 -133 -30zM364 250l-65 155h57l68 -155h-60zM300 157c40 0 75.167 8 105.5 24s53.833 38.5 70.5 67.5s25 62.833 25 101.5v150c0 38.667 -8.33301 72.334 -25 101.001s-40.167 51.167 -70.5 67.5s-65.5 24.5 -105.5 24.5s-75.167 -8.16699 -105.5 -24.5
s-53.833 -38.833 -70.5 -67.5s-25 -62.334 -25 -101.001v-150c0 -38.667 8.33301 -72.5 25 -101.5s40.167 -51.5 70.5 -67.5s65.5 -24 105.5 -24zM193 250v350h111c35.333 0 63.333 -9.5 84 -28.5s31 -44.167 31 -75.5c0 -32 -10.333 -57.5 -31 -76.5
s-48.667 -28.5 -84 -28.5h-55v-141h-56zM249 439l55 0.000976562c18 0 32.333 5 43 15s16 24 16 42c0 17.333 -5.33301 31.166 -16 41.499s-25 15.5 -43 15.5h-55v-114z" />
    <glyph glyph-name="macron" unicode="&#xaf;" 
d="M145 674v66h310v-66h-310z" />
    <glyph glyph-name="degree" unicode="&#xb0;" 
d="M300 450c-44 0 -79.833 13.333 -107.5 40s-41.5 61.667 -41.5 105s13.833 78.333 41.5 105s63.5 40 107.5 40c44.667 0 80.667 -13.333 108 -40s41 -61.667 41 -105s-13.667 -78.333 -41 -105s-63.333 -40 -108 -40zM299 498c28 0 50.667 9 68 27s26 41.333 26 70
c0 29.333 -8.66699 53 -26 71s-40 27 -68 27c-27.333 0 -49.5 -9 -66.5 -27s-25.5 -41.667 -25.5 -71c0 -28.667 8.5 -52 25.5 -70s39.167 -27 66.5 -27z" />
    <glyph glyph-name="plusminus" unicode="&#xb1;" 
d="M70 0v63h191v237h-195v71h195v199h77v-199h196v-71h-196v-237h192v-63h-460z" />
    <glyph glyph-name="uni00B2" unicode="&#xb2;" 
d="M167 405l0.000976562 77.002l159 121c16.667 12.667 29.667 27.5 39 44.5s14 33.5 14 49.5c0 26.667 -7.33301 47.667 -22 63s-34.334 23 -59.001 23s-44.334 -7.66699 -59.001 -23s-22 -36.333 -22 -63h-64c2 43.333 16 78 42 104s60.333 39 103 39
c44.667 0 79.834 -12.667 105.501 -38s38.5 -59.333 38.5 -102c0 -24.667 -7.33301 -49.834 -22 -75.501s-35 -47.834 -61 -66.501l-127 -95h222v-58h-287z" />
    <glyph glyph-name="uni00B3" unicode="&#xb3;" 
d="M284 395c-44.667 0 -80.168 12.499 -106.501 37.499s-39.5 58.833 -39.5 101.5h63c0 -25.333 7.33301 -45.333 22 -60s35 -22 61 -22c24.667 0 44.334 7.33301 59.001 22s22 34.667 22 60c0 24.667 -7.16699 44.334 -21.5 59.001s-33.833 22 -58.5 22h-30v62l95 96h-182
v58h235v-70l-116 -117v24c43.333 0 77.833 -12 103.5 -36s38.5 -56.667 38.5 -98c0 -42.667 -13 -76.5 -39 -101.5s-61.333 -37.5 -106 -37.5z" />
    <glyph glyph-name="acute" unicode="&#xb4;" 
d="M218 645l106 140h87l-112 -140h-81z" />
    <glyph glyph-name="uni00B5" unicode="&#xb5;" 
d="M93 -180l0.000976562 730h80v-356c0 -42.667 10.167 -75.5 30.5 -98.5s52.166 -34.5 95.499 -34.5c44 0 76.333 11.5 97 34.5s31 55.833 31 98.5v356h80v-356c0 -64 -17.5 -114 -52.5 -150s-83.833 -54 -146.5 -54c-29.333 0 -54.833 3.83301 -76.5 11.5
s-39.167 17.667 -52.5 30s-22.333 24.833 -27 37.5h-4c0.666992 0 2.16699 -4.33301 4.5 -13s4.5 -19 6.5 -31s3.33301 -23.667 4 -35l10 -170h-80z" />
    <glyph glyph-name="paragraph" unicode="&#xb6;" 
d="M259 -180v490.001c-55.333 0 -100 15.167 -134 45.5s-51 70.166 -51 119.499v90c0 50 17 90 51 120s78.667 45 134 45h72v-910h-72zM429 -179.999v910h72v-910h-72z" />
    <glyph glyph-name="periodcentered" unicode="&#xb7;" 
d="M300 261c-24.667 0 -44.167 7.16699 -58.5 21.5s-21.5 33.5 -21.5 57.5c0 25.333 7.16699 45.333 21.5 60s33.833 22 58.5 22s44.167 -7.33301 58.5 -22s21.5 -34.667 21.5 -60c0 -24 -7.16699 -43.167 -21.5 -57.5s-33.833 -21.5 -58.5 -21.5z" />
    <glyph glyph-name="cedilla" unicode="&#xb8;" 
d="M206 -201v50h73c15.333 0 27.5 4 36.5 12s13.5 16.333 13.5 25c0 12.667 -9.5 23.5 -28.5 32.5s-45.5 13.5 -79.5 13.5l35 94h53l-22 -61c17.333 -1.33301 35 -5.33301 53 -12s33.333 -16 46 -28s19 -26.667 19 -44c0 -22.667 -10.5 -42 -31.5 -58s-48.833 -24 -83.5 -24
h-84z" />
    <glyph glyph-name="uni00B9" unicode="&#xb9;" 
d="M159 405v58h130v311l-121 -89v72l97 73h88v-367h104v-58h-298z" />
    <glyph glyph-name="ordmasculine" unicode="&#xba;" 
d="M300 445c-34 0 -61.333 9.5 -82 28.5s-31 43.5 -31 73.5v87c0 30.667 10.333 55.334 31 74.001s48 28 82 28s61.333 -9.33301 82 -28s31 -43.334 31 -74.001v-87c0 -30 -10.333 -54.5 -31 -73.5s-48 -28.5 -82 -28.5zM300 482c20 0 36.333 6 49 18s19 27.667 19 47v87
c0 19.333 -6.33301 35 -19 47s-29 18 -49 18s-36.333 -6 -49 -18s-19 -27.667 -19 -47v-87c0 -19.333 6.33301 -35 19 -47s29 -18 49 -18z" />
    <glyph glyph-name="guillemotright" unicode="&#xbb;" 
d="M268 40l204 240l-204 240h93l204 -240l-204 -240h-93zM36 40l203 240l-204 240h94l203 -240l-203 -240h-93z" />
    <glyph glyph-name="onequarter" unicode="&#xbc;" 
d="M30 405v47.001h118v241c-2.66699 -4 -7 -9.33301 -13 -16s-12.667 -13.334 -20 -20.001l-62 -54v66l70 61h81v-278h101v-47h-275zM483 0.000976562v70h-177v77l128 178h64l-136 -192v-16h121v94h56v-211h-56zM93 0.000976562l356 730h58l-356 -730h-58z" />
    <glyph glyph-name="onehalf" unicode="&#xbd;" 
d="M319 0l-0.000976562 61.002l119 70c23.333 14 40.833 28.167 52.5 42.5s17.5 29.166 17.5 44.499c0 19.333 -6 35 -18 47s-28 18 -48 18s-36.167 -6.16699 -48.5 -18.5s-18.5 -28.5 -18.5 -48.5h-56c0.666992 34.667 12.334 62.334 35.001 83.001s52 31 88 31
c36.667 0 66.167 -10.167 88.5 -30.5s33.5 -46.833 33.5 -79.5c0 -21.333 -7.66699 -42.333 -23 -63s-37.333 -39.334 -66 -56.001l-88 -51v-9c8 1.33301 18.667 2.66602 32 3.99902s26 2 38 2h113v-47h-251zM31.999 405.002v47.001h118v241
c-2.66699 -4 -7 -9.33301 -13 -16s-12.667 -13.334 -20 -20.001l-62 -54v66l70 61h81v-278h111v-47h-285zM92.999 0.00292969l356 730h58l-356 -730h-58z" />
    <glyph glyph-name="threequarters" unicode="&#xbe;" 
d="M483 0v70h-177v77l128 178h64l-136 -192v-16h121v94h56v-211h-56zM154 400c-38 0 -68.332 9.66797 -90.999 29.001s-34 44.666 -34 75.999h56c0 -17.333 6.16699 -31.333 18.5 -42s29.166 -16 50.499 -16c20.667 0 37.167 5.5 49.5 16.5s18.5 25.167 18.5 42.5
s-6.16699 31.333 -18.5 42s-28.5 16 -48.5 16h-30v53l83 66h-156v47h211v-52l-106 -84v16c36 0 65.167 -9.5 87.5 -28.5s33.5 -44.167 33.5 -75.5s-11.333 -56.833 -34 -76.5s-52.667 -29.5 -90 -29.5zM93.001 0.000976562l356 730h58l-356 -730h-58z" />
    <glyph glyph-name="questiondown" unicode="&#xbf;" 
d="M332 -170c-46 0 -85.832 8.33203 -119.499 24.999s-59.667 40.5 -78 71.5s-27.5 67.5 -27.5 109.5c0 38.667 8 72.667 24 102s38.667 52.5 68 69.5s63.666 26.167 102.999 27.5v110h79v-177h-50c-44 0 -79 -11.667 -105 -35s-39 -55.666 -39 -96.999
c0 -40.667 13 -72.667 39 -96s61.333 -35 106 -35h124v-75h-124zM335.001 437.999c-18.667 0 -33.834 5.5 -45.501 16.5s-17.5 25.167 -17.5 42.5c0 18 5.83301 32.167 17.5 42.5s26.834 15.5 45.501 15.5h16c18.667 0 33.667 -5 45 -15s17 -24 17 -42
s-5.66699 -32.5 -17 -43.5s-26.333 -16.5 -45 -16.5h-16z" />
    <glyph glyph-name="Agrave" unicode="&#xc0;" 
d="M55 0l193 730h105l192 -730h-80l-51 198h-228l-50 -198h-81zM202 266h195l-62 244c-10 40.667 -18 74.834 -24 102.501s-9.66699 45.5 -11 53.5c-1.33301 -8 -5 -25.833 -11 -53.5s-14 -61.834 -24 -102.501zM271 810l-114 140h90l109 -140h-85z" />
    <glyph glyph-name="Aacute" unicode="&#xc1;" 
d="M55 0l193 730h105l192 -730h-80l-51 198h-228l-50 -198h-81zM202 266h195l-62 244c-10 40.667 -18 74.834 -24 102.501s-9.66699 45.5 -11 53.5c-1.33301 -8 -5 -25.833 -11 -53.5s-14 -61.834 -24 -102.501zM248 810l106 140h87l-112 -140h-81z" />
    <glyph glyph-name="Acircumflex" unicode="&#xc2;" 
d="M55 0l193 730h105l192 -730h-80l-51 198h-228l-50 -198h-81zM202 266h195l-62 244c-10 40.667 -18 74.834 -24 102.501s-9.66699 45.5 -11 53.5c-1.33301 -8 -5 -25.833 -11 -53.5s-14 -61.834 -24 -102.501zM127 810l134 140h77l135 -140h-86l-87 86l-85 -86h-88z" />
    <glyph glyph-name="Atilde" unicode="&#xc3;" 
d="M55 0l193 730h105l192 -730h-80l-51 198h-228l-50 -198h-81zM202 266h195l-62 244c-10 40.667 -18 74.834 -24 102.501s-9.66699 45.5 -11 53.5c-1.33301 -8 -5 -25.833 -11 -53.5s-14 -61.834 -24 -102.501zM371 815c-19.333 0 -35.3311 3.83301 -47.998 11.5
s-23.5 16.5 -32.5 26.5s-17.833 18.833 -26.5 26.5s-18.667 11.5 -30 11.5c-10.667 0 -19.334 -3.33301 -26.001 -10s-10 -16.667 -10 -30v-31h-58v31c0 30 8.16699 53.167 24.5 69.5s38.166 24.5 65.499 24.5c19.333 0 35.5 -3.83301 48.5 -11.5s24 -16.5 33 -26.5
s17.667 -18.833 26 -26.5s18.5 -11.5 30.5 -11.5c10.667 0 19 3.33301 25 10s9 16.667 9 30v31h58v-31c0 -30 -8 -53.167 -24 -69.5s-37.667 -24.5 -65 -24.5z" />
    <glyph glyph-name="Adieresis" unicode="&#xc4;" 
d="M55 0l193 730h105l192 -730h-80l-51 198h-228l-50 -198h-81zM202 266h195l-62 244c-10 40.667 -18 74.834 -24 102.501s-9.66699 45.5 -11 53.5c-1.33301 -8 -5 -25.833 -11 -53.5s-14 -61.834 -24 -102.501zM411 819c-18 0 -32.667 5.5 -44 16.5s-17 25.833 -17 44.5
c0 19.333 5.66699 34.5 17 45.5s26 16.5 44 16.5c18.667 0 33.5 -5.5 44.5 -16.5s16.5 -26.167 16.5 -45.5c0 -18.667 -5.5 -33.5 -16.5 -44.5s-25.833 -16.5 -44.5 -16.5zM191 819c-18 0 -32.667 5.5 -44 16.5s-17 25.833 -17 44.5c0 19.333 5.66699 34.5 17 45.5
s26 16.5 44 16.5s32.667 -5.5 44 -16.5s17 -26.167 17 -45.5c0 -18.667 -5.66699 -33.5 -17 -44.5s-26 -16.5 -44 -16.5z" />
    <glyph glyph-name="Aring" unicode="&#xc5;" 
d="M55 0l193 730h105l192 -730h-80l-51 198h-228l-50 -198h-81zM202 266h195l-62 244c-10 40.667 -18 74.834 -24 102.501s-9.66699 45.5 -11 53.5c-1.33301 -8 -5 -25.833 -11 -53.5s-14 -61.834 -24 -102.501zM300 770c-34.667 0 -62.667 10.167 -84 30.5
s-32 46.833 -32 79.5s10.667 59.167 32 79.5s49.333 30.5 84 30.5s62.667 -10.167 84 -30.5s32 -46.833 32 -79.5s-10.667 -59.167 -32 -79.5s-49.333 -30.5 -84 -30.5zM300 818c18.667 0 33.5 5.66699 44.5 17s16.5 26.333 16.5 45s-5.5 33.834 -16.5 45.501
s-25.833 17.5 -44.5 17.5s-33.5 -5.83301 -44.5 -17.5s-16.5 -26.834 -16.5 -45.501s5.5 -33.667 16.5 -45s25.833 -17 44.5 -17z" />
    <glyph glyph-name="AE" unicode="&#xc6;" 
d="M31 0l157 730h382v-72h-189v-243h161v-72h-161v-271h189v-72h-266v206h-149l-44 -206h-80zM169 273h135v385h-55z" />
    <glyph glyph-name="Ccedilla" unicode="&#xc7;" 
d="M218 -201v50h73c14.667 0 26.667 4 36 12s14 16.333 14 25c0 12.667 -9.66699 23.5 -29 32.5s-45.666 13.5 -78.999 13.5l35 94h53l-22 -61c16.667 -1.33301 34.167 -5.33301 52.5 -12s33.666 -16 45.999 -28s18.5 -26.667 18.5 -44c0 -22.667 -10.5 -42 -31.5 -58
s-48.5 -24 -82.5 -24h-84zM305 -10c-43.333 0 -80.833 8.33301 -112.5 25s-56.167 40.667 -73.5 72s-26 68 -26 110v336c0 42.667 8.66699 79.5 26 110.5s41.833 54.833 73.5 71.5s69.167 25 112.5 25c42.667 0 79.834 -8.5 111.501 -25.5s56.167 -41.167 73.5 -72.5
s26 -68.666 26 -111.999h-79c0 44 -11.667 78.167 -35 102.5s-55.666 36.5 -96.999 36.5s-73.833 -11.833 -97.5 -35.5s-35.5 -57.167 -35.5 -100.5v-336c0 -42.667 11.833 -76 35.5 -100s56.167 -36 97.5 -36s73.666 12.167 96.999 36.5s35 58.5 35 102.5h79
c0 -42.667 -8.66699 -79.834 -26 -111.501s-41.833 -56 -73.5 -73s-68.834 -25.5 -111.501 -25.5z" />
    <glyph glyph-name="Egrave" unicode="&#xc8;" 
d="M105 0v730h412v-72h-333v-241h298v-71h-298v-274h333v-72h-412zM291 810l-114 140h90l109 -140h-85z" />
    <glyph glyph-name="Eacute" unicode="&#xc9;" 
d="M105 0v730h412v-72h-333v-241h298v-71h-298v-274h333v-72h-412zM268 810l106 140h87l-112 -140h-81z" />
    <glyph glyph-name="Ecircumflex" unicode="&#xca;" 
d="M105 0v730h412v-72h-333v-241h298v-71h-298v-274h333v-72h-412zM147 810l134 140h77l135 -140h-86l-87 86l-85 -86h-88z" />
    <glyph glyph-name="Edieresis" unicode="&#xcb;" 
d="M105 0v730h412v-72h-333v-241h298v-71h-298v-274h333v-72h-412zM431 819c-18 0 -32.667 5.5 -44 16.5s-17 25.833 -17 44.5c0 19.333 5.66699 34.5 17 45.5s26 16.5 44 16.5c18.667 0 33.5 -5.5 44.5 -16.5s16.5 -26.167 16.5 -45.5c0 -18.667 -5.5 -33.5 -16.5 -44.5
s-25.833 -16.5 -44.5 -16.5zM211 819c-18 0 -32.667 5.5 -44 16.5s-17 25.833 -17 44.5c0 19.333 5.66699 34.5 17 45.5s26 16.5 44 16.5s32.667 -5.5 44 -16.5s17 -26.167 17 -45.5c0 -18.667 -5.66699 -33.5 -17 -44.5s-26 -16.5 -44 -16.5z" />
    <glyph glyph-name="Igrave" unicode="&#xcc;" 
d="M109 0v72h151v586h-151v72h382v-72h-150v-586h150v-72h-382zM271 810l-114 140h90l109 -140h-85z" />
    <glyph glyph-name="Iacute" unicode="&#xcd;" 
d="M109 0v72h151v586h-151v72h382v-72h-150v-586h150v-72h-382zM248 810l106 140h87l-112 -140h-81z" />
    <glyph glyph-name="Icircumflex" unicode="&#xce;" 
d="M109 0v72h151v586h-151v72h382v-72h-150v-586h150v-72h-382zM127 810l134 140h77l135 -140h-86l-87 86l-85 -86h-88z" />
    <glyph glyph-name="Idieresis" unicode="&#xcf;" 
d="M109 0v72h151v586h-151v72h382v-72h-150v-586h150v-72h-382zM411 819c-18 0 -32.667 5.5 -44 16.5s-17 25.833 -17 44.5c0 19.333 5.66699 34.5 17 45.5s26 16.5 44 16.5c18.667 0 33.5 -5.5 44.5 -16.5s16.5 -26.167 16.5 -45.5c0 -18.667 -5.5 -33.5 -16.5 -44.5
s-25.833 -16.5 -44.5 -16.5zM191 819c-18 0 -32.667 5.5 -44 16.5s-17 25.833 -17 44.5c0 19.333 5.66699 34.5 17 45.5s26 16.5 44 16.5s32.667 -5.5 44 -16.5s17 -26.167 17 -45.5c0 -18.667 -5.66699 -33.5 -17 -44.5s-26 -16.5 -44 -16.5z" />
    <glyph glyph-name="Eth" unicode="&#xd0;" 
d="M10 339v67h280v-67h-280zM97 0v730h181c46.667 0 87.167 -9 121.5 -27s60.833 -43.5 79.5 -76.5s28 -71.5 28 -115.5v-291c0 -44.667 -9.33301 -83.5 -28 -116.5s-45.167 -58.5 -79.5 -76.5s-74.833 -27 -121.5 -27h-181zM176 71h101.999
c46.667 0 83.334 13.333 110.001 40s40 63 40 109v291c0 45.333 -13.5 81.333 -40.5 108s-63.5 40 -109.5 40h-102v-588z" />
    <glyph glyph-name="Ntilde" unicode="&#xd1;" 
d="M95 0v730.003h106l235 -638c-0.666992 15.333 -1.66699 34.166 -3 56.499s-2.5 45.166 -3.5 68.499s-1.5 44.333 -1.5 63v450h77v-730h-107l-233 638c1.33301 -13.333 2.33301 -30.5 3 -51.5s1.5 -43.333 2.5 -67s1.5 -46.834 1.5 -69.501v-450h-77zM371 815.003
c-19.333 0 -35.3311 3.83301 -47.998 11.5s-23.5 16.5 -32.5 26.5s-17.833 18.833 -26.5 26.5s-18.667 11.5 -30 11.5c-10.667 0 -19.334 -3.33301 -26.001 -10s-10 -16.667 -10 -30v-31h-58v31c0 30 8.16699 53.167 24.5 69.5s38.166 24.5 65.499 24.5
c19.333 0 35.5 -3.83301 48.5 -11.5s24 -16.5 33 -26.5s17.667 -18.833 26 -26.5s18.5 -11.5 30.5 -11.5c10.667 0 19 3.33301 25 10s9 16.667 9 30v31h58v-31c0 -30 -8 -53.167 -24 -69.5s-37.667 -24.5 -65 -24.5z" />
    <glyph glyph-name="Ograve" unicode="&#xd2;" 
d="M300 -10c-42.667 0 -79.5 8.33301 -110.5 25s-54.833 40.5 -71.5 71.5s-25 67.833 -25 110.5v336c0 42.667 8.33301 79.5 25 110.5s40.5 54.833 71.5 71.5s67.833 25 110.5 25s79.5 -8.33301 110.5 -25s54.833 -40.5 71.5 -71.5s25 -67.833 25 -110.5v-336
c0 -42.667 -8.33301 -79.5 -25 -110.5s-40.5 -54.833 -71.5 -71.5s-67.833 -25 -110.5 -25zM300 61c41.333 0 73 11.833 95 35.5s33 57.167 33 100.5v336c0 43.333 -11.167 76.833 -33.5 100.5s-53.833 35.5 -94.5 35.5s-72.167 -11.833 -94.5 -35.5
s-33.5 -57.167 -33.5 -100.5v-336c0 -43.333 11.167 -76.833 33.5 -100.5s53.833 -35.5 94.5 -35.5zM271 810l-114 140h90l109 -140h-85z" />
    <glyph glyph-name="Oacute" unicode="&#xd3;" 
d="M300 -10c-42.667 0 -79.5 8.33301 -110.5 25s-54.833 40.5 -71.5 71.5s-25 67.833 -25 110.5v336c0 42.667 8.33301 79.5 25 110.5s40.5 54.833 71.5 71.5s67.833 25 110.5 25s79.5 -8.33301 110.5 -25s54.833 -40.5 71.5 -71.5s25 -67.833 25 -110.5v-336
c0 -42.667 -8.33301 -79.5 -25 -110.5s-40.5 -54.833 -71.5 -71.5s-67.833 -25 -110.5 -25zM300 61c41.333 0 73 11.833 95 35.5s33 57.167 33 100.5v336c0 43.333 -11.167 76.833 -33.5 100.5s-53.833 35.5 -94.5 35.5s-72.167 -11.833 -94.5 -35.5
s-33.5 -57.167 -33.5 -100.5v-336c0 -43.333 11.167 -76.833 33.5 -100.5s53.833 -35.5 94.5 -35.5zM248 810l106 140h87l-112 -140h-81z" />
    <glyph glyph-name="Ocircumflex" unicode="&#xd4;" 
d="M300 -10c-42.667 0 -79.5 8.33301 -110.5 25s-54.833 40.5 -71.5 71.5s-25 67.833 -25 110.5v336c0 42.667 8.33301 79.5 25 110.5s40.5 54.833 71.5 71.5s67.833 25 110.5 25s79.5 -8.33301 110.5 -25s54.833 -40.5 71.5 -71.5s25 -67.833 25 -110.5v-336
c0 -42.667 -8.33301 -79.5 -25 -110.5s-40.5 -54.833 -71.5 -71.5s-67.833 -25 -110.5 -25zM300 61c41.333 0 73 11.833 95 35.5s33 57.167 33 100.5v336c0 43.333 -11.167 76.833 -33.5 100.5s-53.833 35.5 -94.5 35.5s-72.167 -11.833 -94.5 -35.5
s-33.5 -57.167 -33.5 -100.5v-336c0 -43.333 11.167 -76.833 33.5 -100.5s53.833 -35.5 94.5 -35.5zM127 810l134 140h77l135 -140h-86l-87 86l-85 -86h-88z" />
    <glyph glyph-name="Otilde" unicode="&#xd5;" 
d="M300 -10c-42.667 0 -79.5 8.33301 -110.5 25s-54.833 40.5 -71.5 71.5s-25 67.833 -25 110.5v336c0 42.667 8.33301 79.5 25 110.5s40.5 54.833 71.5 71.5s67.833 25 110.5 25s79.5 -8.33301 110.5 -25s54.833 -40.5 71.5 -71.5s25 -67.833 25 -110.5v-336
c0 -42.667 -8.33301 -79.5 -25 -110.5s-40.5 -54.833 -71.5 -71.5s-67.833 -25 -110.5 -25zM300 61c41.333 0 73 11.833 95 35.5s33 57.167 33 100.5v336c0 43.333 -11.167 76.833 -33.5 100.5s-53.833 35.5 -94.5 35.5s-72.167 -11.833 -94.5 -35.5
s-33.5 -57.167 -33.5 -100.5v-336c0 -43.333 11.167 -76.833 33.5 -100.5s53.833 -35.5 94.5 -35.5zM371 815c-19.333 0 -35.3311 3.83301 -47.998 11.5s-23.5 16.5 -32.5 26.5s-17.833 18.833 -26.5 26.5s-18.667 11.5 -30 11.5c-10.667 0 -19.334 -3.33301 -26.001 -10
s-10 -16.667 -10 -30v-31h-58v31c0 30 8.16699 53.167 24.5 69.5s38.166 24.5 65.499 24.5c19.333 0 35.5 -3.83301 48.5 -11.5s24 -16.5 33 -26.5s17.667 -18.833 26 -26.5s18.5 -11.5 30.5 -11.5c10.667 0 19 3.33301 25 10s9 16.667 9 30v31h58v-31
c0 -30 -8 -53.167 -24 -69.5s-37.667 -24.5 -65 -24.5z" />
    <glyph glyph-name="Odieresis" unicode="&#xd6;" 
d="M300 -10c-42.667 0 -79.5 8.33301 -110.5 25s-54.833 40.5 -71.5 71.5s-25 67.833 -25 110.5v336c0 42.667 8.33301 79.5 25 110.5s40.5 54.833 71.5 71.5s67.833 25 110.5 25s79.5 -8.33301 110.5 -25s54.833 -40.5 71.5 -71.5s25 -67.833 25 -110.5v-336
c0 -42.667 -8.33301 -79.5 -25 -110.5s-40.5 -54.833 -71.5 -71.5s-67.833 -25 -110.5 -25zM300 61c41.333 0 73 11.833 95 35.5s33 57.167 33 100.5v336c0 43.333 -11.167 76.833 -33.5 100.5s-53.833 35.5 -94.5 35.5s-72.167 -11.833 -94.5 -35.5
s-33.5 -57.167 -33.5 -100.5v-336c0 -43.333 11.167 -76.833 33.5 -100.5s53.833 -35.5 94.5 -35.5zM411 819c-18 0 -32.667 5.5 -44 16.5s-17 25.833 -17 44.5c0 19.333 5.66699 34.5 17 45.5s26 16.5 44 16.5c18.667 0 33.5 -5.5 44.5 -16.5s16.5 -26.167 16.5 -45.5
c0 -18.667 -5.5 -33.5 -16.5 -44.5s-25.833 -16.5 -44.5 -16.5zM191 819c-18 0 -32.667 5.5 -44 16.5s-17 25.833 -17 44.5c0 19.333 5.66699 34.5 17 45.5s26 16.5 44 16.5s32.667 -5.5 44 -16.5s17 -26.167 17 -45.5c0 -18.667 -5.66699 -33.5 -17 -44.5
s-26 -16.5 -44 -16.5z" />
    <glyph glyph-name="multiply" unicode="&#xd7;" 
d="M154 138l-47 47l144 144l-144 145l47 47l144 -144l147 147l47 -48l-147 -147l145 -144l-48 -47l-144 145z" />
    <glyph glyph-name="Oslash" unicode="&#xd8;" 
d="M39 -40l448 790h74l-448 -790h-74zM300 -10c-42.667 0 -79.5 8.33301 -110.5 25s-54.833 40.5 -71.5 71.5s-25 67.833 -25 110.5v336c0 42.667 8.33301 79.5 25 110.5s40.5 54.833 71.5 71.5s67.833 25 110.5 25s79.5 -8.33301 110.5 -25s54.833 -40.5 71.5 -71.5
s25 -67.833 25 -110.5v-336c0 -42.667 -8.33301 -79.5 -25 -110.5s-40.5 -54.833 -71.5 -71.5s-67.833 -25 -110.5 -25zM300 61c41.333 0 73 11.833 95 35.5s33 57.167 33 100.5v336c0 43.333 -11.167 76.833 -33.5 100.5s-53.833 35.5 -94.5 35.5
s-72.167 -11.833 -94.5 -35.5s-33.5 -57.167 -33.5 -100.5v-336c0 -43.333 11.167 -76.833 33.5 -100.5s53.833 -35.5 94.5 -35.5z" />
    <glyph glyph-name="Ugrave" unicode="&#xd9;" 
d="M300 -10c-65.333 0 -115.831 18.668 -151.498 56.001s-53.5 87.666 -53.5 150.999v533h79v-533c0 -42 10.667 -75.167 32 -99.5s52.666 -36.5 93.999 -36.5s72.666 12.167 93.999 36.5s32 57.5 32 99.5v533h79v-533c0 -64 -17.667 -114.5 -53 -151.5
s-86 -55.5 -152 -55.5zM271.002 810.001l-114 140h90l109 -140h-85z" />
    <glyph glyph-name="Uacute" unicode="&#xda;" 
d="M300 -10c-65.333 0 -115.831 18.668 -151.498 56.001s-53.5 87.666 -53.5 150.999v533h79v-533c0 -42 10.667 -75.167 32 -99.5s52.666 -36.5 93.999 -36.5s72.666 12.167 93.999 36.5s32 57.5 32 99.5v533h79v-533c0 -64 -17.667 -114.5 -53 -151.5
s-86 -55.5 -152 -55.5zM248.002 810.001l106 140h87l-112 -140h-81z" />
    <glyph glyph-name="Ucircumflex" unicode="&#xdb;" 
d="M300 -10c-65.333 0 -115.831 18.668 -151.498 56.001s-53.5 87.666 -53.5 150.999v533h79v-533c0 -42 10.667 -75.167 32 -99.5s52.666 -36.5 93.999 -36.5s72.666 12.167 93.999 36.5s32 57.5 32 99.5v533h79v-533c0 -64 -17.667 -114.5 -53 -151.5
s-86 -55.5 -152 -55.5zM127.002 810.001l134 140h77l135 -140h-86l-87 86l-85 -86h-88z" />
    <glyph glyph-name="Udieresis" unicode="&#xdc;" 
d="M300 -10c-65.333 0 -115.831 18.668 -151.498 56.001s-53.5 87.666 -53.5 150.999v533h79v-533c0 -42 10.667 -75.167 32 -99.5s52.666 -36.5 93.999 -36.5s72.666 12.167 93.999 36.5s32 57.5 32 99.5v533h79v-533c0 -64 -17.667 -114.5 -53 -151.5
s-86 -55.5 -152 -55.5zM411.002 819.001c-18 0 -32.667 5.5 -44 16.5s-17 25.833 -17 44.5c0 19.333 5.66699 34.5 17 45.5s26 16.5 44 16.5c18.667 0 33.5 -5.5 44.5 -16.5s16.5 -26.167 16.5 -45.5c0 -18.667 -5.5 -33.5 -16.5 -44.5s-25.833 -16.5 -44.5 -16.5z
M191.002 819.001c-18 0 -32.667 5.5 -44 16.5s-17 25.833 -17 44.5c0 19.333 5.66699 34.5 17 45.5s26 16.5 44 16.5s32.667 -5.5 44 -16.5s17 -26.167 17 -45.5c0 -18.667 -5.66699 -33.5 -17 -44.5s-26 -16.5 -44 -16.5z" />
    <glyph glyph-name="Yacute" unicode="&#xdd;" 
d="M260 0v275l-221 455h82l150 -308c8 -16 14.5 -30 19.5 -42s8.5 -21 10.5 -27c2 6 5.66699 15 11 27l19 42l148 308h82l-221 -455v-275h-80zM248 810l106 140h87l-112 -140h-81z" />
    <glyph glyph-name="Thorn" unicode="&#xde;" 
d="M94 0l0.000976562 729.998h79v-154h160c43.333 0 80.666 -8.16699 111.999 -24.5s55.833 -39.166 73.5 -68.499s26.5 -63.666 26.5 -102.999c0 -59.333 -19.167 -106.833 -57.5 -142.5s-89.833 -53.5 -154.5 -53.5h-160v-184h-79zM173.001 254.998h160
c40.667 0 72.5 11.333 95.5 34s34.5 53 34.5 91c0 38.667 -11.667 69.167 -35 91.5s-55 33.5 -95 33.5h-160v-250z" />
    <glyph glyph-name="germandbls" unicode="&#xdf;" 
d="M97 0l0.00292969 536c0 41.333 8.5 77.333 25.5 108s41 54.334 72 71.001s67.5 25 109.5 25s78.5 -7.33301 109.5 -22s55.167 -36 72.5 -64s26 -61.667 26 -101c0 -34 -7.16699 -64.167 -21.5 -90.5s-34.333 -46.833 -60 -61.5s-55.834 -21.667 -90.501 -21v13
c38 0.666992 70.833 -6.5 98.5 -21.5s49.167 -36.5 64.5 -64.5s23 -61 23 -99c0 -41.333 -8.83301 -77.666 -26.5 -108.999s-42.334 -55.666 -74.001 -72.999s-69.5 -26 -113.5 -26h-65v72h58c43.333 0 77.166 12.333 101.499 37s36.5 57.667 36.5 99s-12 73.666 -36 96.999
s-58 35 -102 35h-43v69h42c38.667 0 69.167 12.167 91.5 36.5s33.5 55.166 33.5 92.499c0 40.667 -11.167 72.5 -33.5 95.5s-52.833 34.5 -91.5 34.5s-69.667 -11.833 -93 -35.5s-35 -55.834 -35 -96.501v-536h-79z" />
    <glyph glyph-name="agrave" unicode="&#xe0;" 
d="M257 -10c-58 0 -103.67 14.832 -137.003 44.499s-50 69.834 -50 120.501c0 50 16.333 89.5 49 118.5s76.667 43.5 132 43.5h175v58c0 36.667 -10.667 65 -32 85s-51.666 30 -90.999 30c-34.667 0 -63.5 -7.66699 -86.5 -23s-36.167 -36 -39.5 -62h-80
c6.66699 47.333 28.834 85 66.501 113s84.834 42 141.501 42c61.333 0 110 -16.5 146 -49.5s54 -77.5 54 -133.5v-377h-78v107h-13l15 16c0 -40.667 -15.667 -73 -47 -97s-73 -36 -125 -36zM275.997 53.999c44 0 80 11 108 33s42 50.667 42 86v83h-174
c-31.333 0 -56.333 -8.66699 -75 -26s-28 -41 -28 -71c0 -32 11.333 -57.5 34 -76.5s53.667 -28.5 93 -28.5zM275.997 644.999l-114 140h90l109 -140h-85z" />
    <glyph glyph-name="aacute" unicode="&#xe1;" 
d="M257 -10c-58 0 -103.67 14.832 -137.003 44.499s-50 69.834 -50 120.501c0 50 16.333 89.5 49 118.5s76.667 43.5 132 43.5h175v58c0 36.667 -10.667 65 -32 85s-51.666 30 -90.999 30c-34.667 0 -63.5 -7.66699 -86.5 -23s-36.167 -36 -39.5 -62h-80
c6.66699 47.333 28.834 85 66.501 113s84.834 42 141.501 42c61.333 0 110 -16.5 146 -49.5s54 -77.5 54 -133.5v-377h-78v107h-13l15 16c0 -40.667 -15.667 -73 -47 -97s-73 -36 -125 -36zM275.997 53.999c44 0 80 11 108 33s42 50.667 42 86v83h-174
c-31.333 0 -56.333 -8.66699 -75 -26s-28 -41 -28 -71c0 -32 11.333 -57.5 34 -76.5s53.667 -28.5 93 -28.5zM255.997 644.999l106 140h87l-112 -140h-81z" />
    <glyph glyph-name="acircumflex" unicode="&#xe2;" 
d="M257 -10c-58 0 -103.67 14.832 -137.003 44.499s-50 69.834 -50 120.501c0 50 16.333 89.5 49 118.5s76.667 43.5 132 43.5h175v58c0 36.667 -10.667 65 -32 85s-51.666 30 -90.999 30c-34.667 0 -63.5 -7.66699 -86.5 -23s-36.167 -36 -39.5 -62h-80
c6.66699 47.333 28.834 85 66.501 113s84.834 42 141.501 42c61.333 0 110 -16.5 146 -49.5s54 -77.5 54 -133.5v-377h-78v107h-13l15 16c0 -40.667 -15.667 -73 -47 -97s-73 -36 -125 -36zM275.997 53.999c44 0 80 11 108 33s42 50.667 42 86v83h-174
c-31.333 0 -56.333 -8.66699 -75 -26s-28 -41 -28 -71c0 -32 11.333 -57.5 34 -76.5s53.667 -28.5 93 -28.5zM131.997 644.999l134 140h77l135 -140h-86l-87 86l-85 -86h-88z" />
    <glyph glyph-name="atilde" unicode="&#xe3;" 
d="M257 -10c-58 0 -103.67 14.832 -137.003 44.499s-50 69.834 -50 120.501c0 50 16.333 89.5 49 118.5s76.667 43.5 132 43.5h175v58c0 36.667 -10.667 65 -32 85s-51.666 30 -90.999 30c-34.667 0 -63.5 -7.66699 -86.5 -23s-36.167 -36 -39.5 -62h-80
c6.66699 47.333 28.834 85 66.501 113s84.834 42 141.501 42c61.333 0 110 -16.5 146 -49.5s54 -77.5 54 -133.5v-377h-78v107h-13l15 16c0 -40.667 -15.667 -73 -47 -97s-73 -36 -125 -36zM275.997 53.999c44 0 80 11 108 33s42 50.667 42 86v83h-174
c-31.333 0 -56.333 -8.66699 -75 -26s-28 -41 -28 -71c0 -32 11.333 -57.5 34 -76.5s53.667 -28.5 93 -28.5zM375.997 649.999c-19.333 0 -35.3311 3.83301 -47.998 11.5s-23.5 16.5 -32.5 26.5s-17.833 18.833 -26.5 26.5s-18.667 11.5 -30 11.5
c-10.667 0 -19.334 -3.33301 -26.001 -10s-10 -16.667 -10 -30v-31h-58v31c0 30 8.16699 53.167 24.5 69.5s38.166 24.5 65.499 24.5c19.333 0 35.5 -3.83301 48.5 -11.5s24 -16.5 33 -26.5s17.667 -18.833 26 -26.5s18.5 -11.5 30.5 -11.5c10.667 0 19 3.33301 25 10
s9 16.667 9 30v31h58v-31c0 -30 -8 -53.167 -24 -69.5s-37.667 -24.5 -65 -24.5z" />
    <glyph glyph-name="adieresis" unicode="&#xe4;" 
d="M257 -10c-58 0 -103.67 14.832 -137.003 44.499s-50 69.834 -50 120.501c0 50 16.333 89.5 49 118.5s76.667 43.5 132 43.5h175v58c0 36.667 -10.667 65 -32 85s-51.666 30 -90.999 30c-34.667 0 -63.5 -7.66699 -86.5 -23s-36.167 -36 -39.5 -62h-80
c6.66699 47.333 28.834 85 66.501 113s84.834 42 141.501 42c61.333 0 110 -16.5 146 -49.5s54 -77.5 54 -133.5v-377h-78v107h-13l15 16c0 -40.667 -15.667 -73 -47 -97s-73 -36 -125 -36zM275.997 53.999c44 0 80 11 108 33s42 50.667 42 86v83h-174
c-31.333 0 -56.333 -8.66699 -75 -26s-28 -41 -28 -71c0 -32 11.333 -57.5 34 -76.5s53.667 -28.5 93 -28.5zM414.997 650.999c-18 0 -32.667 5.33203 -44 15.999s-17 25.334 -17 44.001c0 19.333 5.66699 34.666 17 45.999s26 17 44 17c18.667 0 33.5 -5.66699 44.5 -17
s16.5 -26.666 16.5 -45.999c0 -18 -5.5 -32.5 -16.5 -43.5s-25.833 -16.5 -44.5 -16.5zM194.997 650.998c-18 0 -32.667 5.33203 -44 15.999s-17 25.334 -17 44.001c0 19.333 5.66699 34.666 17 45.999s26 17 44 17s32.667 -5.66699 44 -17s17 -26.666 17 -45.999
c0 -18 -5.66699 -32.5 -17 -43.5s-26 -16.5 -44 -16.5z" />
    <glyph glyph-name="aring" unicode="&#xe5;" 
d="M257 -10c-58 0 -103.67 14.832 -137.003 44.499s-50 69.834 -50 120.501c0 50 16.333 89.5 49 118.5s76.667 43.5 132 43.5h175v58c0 36.667 -10.667 65 -32 85s-51.666 30 -90.999 30c-34.667 0 -63.5 -7.66699 -86.5 -23s-36.167 -36 -39.5 -62h-80
c6.66699 47.333 28.834 85 66.501 113s84.834 42 141.501 42c61.333 0 110 -16.5 146 -49.5s54 -77.5 54 -133.5v-377h-78v107h-13l15 16c0 -40.667 -15.667 -73 -47 -97s-73 -36 -125 -36zM275.997 53.999c44 0 80 11 108 33s42 50.667 42 86v83h-174
c-31.333 0 -56.333 -8.66699 -75 -26s-28 -41 -28 -71c0 -32 11.333 -57.5 34 -76.5s53.667 -28.5 93 -28.5zM304.997 609.999c-34.667 0 -62.667 10.167 -84 30.5s-32 46.833 -32 79.5c0 33.333 10.667 60 32 80s49.333 30 84 30s62.667 -10.167 84 -30.5
s32 -46.833 32 -79.5s-10.667 -59.167 -32 -79.5s-49.333 -30.5 -84 -30.5zM304.997 657.999c18.667 0 33.5 5.66699 44.5 17s16.5 26.333 16.5 45c0 19.333 -5.5 34.666 -16.5 45.999s-25.833 17 -44.5 17s-33.5 -5.66699 -44.5 -17s-16.5 -26.666 -16.5 -45.999
c0 -18.667 5.5 -33.667 16.5 -45s25.833 -17 44.5 -17z" />
    <glyph glyph-name="ae" unicode="&#xe6;" 
d="M171 -10c-41.333 0 -74.166 13.001 -98.499 39.001s-36.5 60.333 -36.5 103v57c0 40.667 13.333 73 40 97s62.334 36 107.001 36h83v80c0 29.333 -6.16699 51.666 -18.5 66.999s-30.833 23 -55.5 23c-20.667 0 -37.5 -6.5 -50.5 -19.5s-19.833 -30.167 -20.5 -51.5h-76
c0.666992 42 13.334 75.667 38.001 101s57 38 97 38c26 0 47.667 -4.5 65 -13.5s30.5 -19.667 39.5 -32s14.5 -24.5 16.5 -36.5h4c2 12 7.5 24.167 16.5 36.5s21.667 23 38 32s36.833 13.5 61.5 13.5c44 0 78.833 -14.167 104.5 -42.5s38.5 -66.5 38.5 -114.5v-145h-225
v-111c0 -26 6.83301 -47.333 20.5 -64s31.5 -25 53.5 -25c22.667 0 40.667 6.5 54 19.5s20.333 30.167 21 51.5h76c-0.666992 -42 -13.834 -75.667 -39.501 -101s-59.834 -38 -102.501 -38c-25.333 0 -46.333 4.33301 -63 13s-29.334 19.334 -38.001 32.001
s-14 24.667 -16 36h-4c-2 -11.333 -8 -23.333 -18 -36s-24 -23.334 -42 -32.001s-41.333 -13 -70 -13zM188 58.001c23.333 0 42.166 8.33203 56.499 24.999s21.5 38 21.5 64v111h-81c-21.333 0 -38.166 -6.16699 -50.499 -18.5s-18.5 -29.166 -18.5 -50.499v-57
c0 -22 6.5 -39.833 19.5 -53.5s30.5 -20.5 52.5 -20.5zM339 322h148.999v81c0 26.667 -6.66699 48.167 -20 64.5s-31.666 24.5 -54.999 24.5c-22.667 0 -40.667 -8.16699 -54 -24.5s-20 -37.833 -20 -64.5v-81z" />
    <glyph glyph-name="ccedilla" unicode="&#xe7;" 
d="M210 -201l0.00195312 50h72c15.333 0 27.666 4 36.999 12s14 16.333 14 25c0 12.667 -9.66699 23.5 -29 32.5s-46 13.5 -80 13.5l35 94h53l-21 -61c16.667 -1.33301 34.167 -5.33301 52.5 -12s33.666 -16 45.999 -28s18.5 -26.667 18.5 -44
c0 -22.667 -10.5 -42 -31.5 -58s-48.833 -24 -83.5 -24h-83zM303.002 -10c-42.667 0 -80 8.33301 -112 25s-56.833 40.5 -74.5 71.5s-26.5 67.833 -26.5 110.5v156c0 42.667 8.83301 79.5 26.5 110.5s42.5 54.833 74.5 71.5s69.333 25 112 25c62.667 0 113 -17 151 -51
s57.667 -80.333 59 -139h-79c-1.33301 38 -13.5 67.333 -36.5 88s-54.5 31 -94.5 31c-40.667 0 -73 -11.833 -97 -35.5s-36 -57.167 -36 -100.5v-156c0 -42.667 12 -76 36 -100s56.333 -36 97 -36c40 0 71.5 10.5 94.5 31.5s35.167 50.167 36.5 87.5h79
c-1.33301 -58.667 -21 -105 -59 -139s-88.333 -51 -151 -51z" />
    <glyph glyph-name="egrave" unicode="&#xe8;" 
d="M300 -10c-42.667 0 -79.666 8.50098 -110.999 25.501s-55.666 41.167 -72.999 72.5s-26 67.666 -26 108.999v156c0 42 8.66699 78.5 26 109.5s41.666 55 72.999 72s68.333 25.5 111 25.5s79.667 -8.5 111 -25.5s55.666 -41 72.999 -72s26 -67.5 26 -109.5v-97h-342v-59
c0 -44.667 11.5 -79.167 34.5 -103.5s55.5 -36.5 97.5 -36.5c35.333 0 64.166 7 86.499 21s36.5 34.333 42.5 61h79c-7.33301 -46 -29.666 -82.333 -66.999 -109s-84.333 -40 -141 -40zM432.001 309.001l0.000976562 44c0 44.667 -11.333 79.167 -34 103.5
s-55.334 36.5 -98.001 36.5c-42 0 -74.5 -12.167 -97.5 -36.5s-34.5 -58.833 -34.5 -103.5v-35h272zM271.002 645.001l-114 140h90l109 -140h-85z" />
    <glyph glyph-name="eacute" unicode="&#xe9;" 
d="M300 -10c-42.667 0 -79.666 8.50098 -110.999 25.501s-55.666 41.167 -72.999 72.5s-26 67.666 -26 108.999v156c0 42 8.66699 78.5 26 109.5s41.666 55 72.999 72s68.333 25.5 111 25.5s79.667 -8.5 111 -25.5s55.666 -41 72.999 -72s26 -67.5 26 -109.5v-97h-342v-59
c0 -44.667 11.5 -79.167 34.5 -103.5s55.5 -36.5 97.5 -36.5c35.333 0 64.166 7 86.499 21s36.5 34.333 42.5 61h79c-7.33301 -46 -29.666 -82.333 -66.999 -109s-84.333 -40 -141 -40zM432.001 309.001l0.000976562 44c0 44.667 -11.333 79.167 -34 103.5
s-55.334 36.5 -98.001 36.5c-42 0 -74.5 -12.167 -97.5 -36.5s-34.5 -58.833 -34.5 -103.5v-35h272zM251.002 645.001l106 140h87l-112 -140h-81z" />
    <glyph glyph-name="ecircumflex" unicode="&#xea;" 
d="M300 -10c-42.667 0 -79.666 8.50098 -110.999 25.501s-55.666 41.167 -72.999 72.5s-26 67.666 -26 108.999v156c0 42 8.66699 78.5 26 109.5s41.666 55 72.999 72s68.333 25.5 111 25.5s79.667 -8.5 111 -25.5s55.666 -41 72.999 -72s26 -67.5 26 -109.5v-97h-342v-59
c0 -44.667 11.5 -79.167 34.5 -103.5s55.5 -36.5 97.5 -36.5c35.333 0 64.166 7 86.499 21s36.5 34.333 42.5 61h79c-7.33301 -46 -29.666 -82.333 -66.999 -109s-84.333 -40 -141 -40zM432.001 309.001l0.000976562 44c0 44.667 -11.333 79.167 -34 103.5
s-55.334 36.5 -98.001 36.5c-42 0 -74.5 -12.167 -97.5 -36.5s-34.5 -58.833 -34.5 -103.5v-35h272zM127.002 645.001l134 140h77l135 -140h-86l-87 86l-85 -86h-88z" />
    <glyph glyph-name="edieresis" unicode="&#xeb;" 
d="M300 -10c-42.667 0 -79.666 8.50098 -110.999 25.501s-55.666 41.167 -72.999 72.5s-26 67.666 -26 108.999v156c0 42 8.66699 78.5 26 109.5s41.666 55 72.999 72s68.333 25.5 111 25.5s79.667 -8.5 111 -25.5s55.666 -41 72.999 -72s26 -67.5 26 -109.5v-97h-342v-59
c0 -44.667 11.5 -79.167 34.5 -103.5s55.5 -36.5 97.5 -36.5c35.333 0 64.166 7 86.499 21s36.5 34.333 42.5 61h79c-7.33301 -46 -29.666 -82.333 -66.999 -109s-84.333 -40 -141 -40zM432.001 309.001l0.000976562 44c0 44.667 -11.333 79.167 -34 103.5
s-55.334 36.5 -98.001 36.5c-42 0 -74.5 -12.167 -97.5 -36.5s-34.5 -58.833 -34.5 -103.5v-35h272zM410.002 651.001c-18 0 -32.667 5.33203 -44 15.999s-17 25.334 -17 44.001c0 19.333 5.66699 34.666 17 45.999s26 17 44 17c18.667 0 33.5 -5.66699 44.5 -17
s16.5 -26.666 16.5 -45.999c0 -18 -5.5 -32.5 -16.5 -43.5s-25.833 -16.5 -44.5 -16.5zM190.002 651c-18 0 -32.667 5.33203 -44 15.999s-17 25.334 -17 44.001c0 19.333 5.66699 34.666 17 45.999s26 17 44 17s32.667 -5.66699 44 -17s17 -26.666 17 -45.999
c0 -18 -5.66699 -32.5 -17 -43.5s-26 -16.5 -44 -16.5z" />
    <glyph glyph-name="igrave" unicode="&#xec;" 
d="M88 0v72h196v406h-171v72h251v-478h186v-72h-462zM286 645l-114 140h90l109 -140h-85z" />
    <glyph glyph-name="iacute" unicode="&#xed;" 
d="M88 0v72h196v406h-171v72h251v-478h186v-72h-462zM266 645l106 140h87l-112 -140h-81z" />
    <glyph glyph-name="icircumflex" unicode="&#xee;" 
d="M88 0v72h196v406h-171v72h251v-478h186v-72h-462zM142 645l134 140h77l135 -140h-86l-87 86l-85 -86h-88z" />
    <glyph glyph-name="idieresis" unicode="&#xef;" 
d="M88 0v72h196v406h-171v72h251v-478h186v-72h-462zM425 651c-18 0 -32.667 5.33203 -44 15.999s-17 25.334 -17 44.001c0 19.333 5.66699 34.666 17 45.999s26 17 44 17c18.667 0 33.5 -5.66699 44.5 -17s16.5 -26.666 16.5 -45.999c0 -18 -5.5 -32.5 -16.5 -43.5
s-25.833 -16.5 -44.5 -16.5zM205 650.999c-18 0 -32.667 5.33203 -44 15.999s-17 25.334 -17 44.001c0 19.333 5.66699 34.666 17 45.999s26 17 44 17s32.667 -5.66699 44 -17s17 -26.666 17 -45.999c0 -18 -5.66699 -32.5 -17 -43.5s-26 -16.5 -44 -16.5z" />
    <glyph glyph-name="eth" unicode="&#xf0;" 
d="M299 -10c-44.667 0 -84.165 9.33203 -118.498 27.999s-60.833 45 -79.5 79s-28 73.333 -28 118s8.66699 83.5 26 116.5s41.833 58.667 73.5 77s68.5 27.5 110.5 27.5c21.333 0 40.166 -3.5 56.499 -10.5s30.333 -15.5 42 -25.5s20.5 -19.667 26.5 -29h11
c-2.66699 7.33301 -9.83398 20.833 -21.501 40.5s-28.167 43.5 -49.5 71.5l-67 94l-164 -77v70l127 59l-74 101h94l48 -70l149 70v-70l-112 -52l75 -109c32.667 -46 58 -93.167 76 -141.5s27 -94.166 27 -137.499c0 -46 -9.5 -86.333 -28.5 -121s-45.5 -61.5 -79.5 -80.5
s-74 -28.5 -120 -28.5zM299.002 61.999c44.667 0 80.5 14 107.5 42s40.5 65 40.5 111c0 30.667 -6.16699 57.5 -18.5 80.5s-29.5 40.833 -51.5 53.5s-48 19 -78 19c-43.333 0 -78.5 -14 -105.5 -42s-40.5 -65 -40.5 -111s13.5 -83 40.5 -111s62.167 -42 105.5 -42z" />
    <glyph glyph-name="ntilde" unicode="&#xf1;" 
d="M97 0l-0.000976562 550h79v-102h20l-22 -29c0 44 13.5 78.5 40.5 103.5s63.833 37.5 110.5 37.5c54.667 0 98.334 -17.167 131.001 -51.5s49 -80.833 49 -139.5v-369h-79v360c0 42 -11 74.333 -33 97s-52 34 -90 34c-39.333 0 -70.333 -12 -93 -36s-34 -58 -34 -102v-353
h-79zM375.999 650c-19.333 0 -35.3311 3.83301 -47.998 11.5s-23.5 16.5 -32.5 26.5s-17.833 18.833 -26.5 26.5s-18.667 11.5 -30 11.5c-10.667 0 -19.334 -3.33301 -26.001 -10s-10 -16.667 -10 -30v-31h-58v31c0 30 8.16699 53.167 24.5 69.5s38.166 24.5 65.499 24.5
c19.333 0 35.5 -3.83301 48.5 -11.5s24 -16.5 33 -26.5s17.667 -18.833 26 -26.5s18.5 -11.5 30.5 -11.5c10.667 0 19 3.33301 25 10s9 16.667 9 30v31h58v-31c0 -30 -8 -53.167 -24 -69.5s-37.667 -24.5 -65 -24.5z" />
    <glyph glyph-name="ograve" unicode="&#xf2;" 
d="M300 -9c-42.667 0 -79.667 8.33301 -111 25s-55.666 40.667 -72.999 72s-26 68.333 -26 111v152c0 43.333 8.66699 80.5 26 111.5s41.666 54.833 72.999 71.5s68.333 25 111 25s79.667 -8.33301 111 -25s55.666 -40.5 72.999 -71.5s26 -67.833 26 -110.5v-153
c0 -42.667 -8.66699 -79.667 -26 -111s-41.666 -55.333 -72.999 -72s-68.333 -25 -111 -25zM300 62c41.333 0 73.333 11.667 96 35s34 57.333 34 102v152c0 44.667 -11.5 78.667 -34.5 102s-54.833 35 -95.5 35s-72.5 -11.667 -95.5 -35s-34.5 -57.333 -34.5 -102v-152
c0 -44.667 11.5 -78.667 34.5 -102s54.833 -35 95.5 -35zM271 645l-114 140h90l109 -140h-85z" />
    <glyph glyph-name="oacute" unicode="&#xf3;" 
d="M300 -9c-42.667 0 -79.667 8.33301 -111 25s-55.666 40.667 -72.999 72s-26 68.333 -26 111v152c0 43.333 8.66699 80.5 26 111.5s41.666 54.833 72.999 71.5s68.333 25 111 25s79.667 -8.33301 111 -25s55.666 -40.5 72.999 -71.5s26 -67.833 26 -110.5v-153
c0 -42.667 -8.66699 -79.667 -26 -111s-41.666 -55.333 -72.999 -72s-68.333 -25 -111 -25zM300 62c41.333 0 73.333 11.667 96 35s34 57.333 34 102v152c0 44.667 -11.5 78.667 -34.5 102s-54.833 35 -95.5 35s-72.5 -11.667 -95.5 -35s-34.5 -57.333 -34.5 -102v-152
c0 -44.667 11.5 -78.667 34.5 -102s54.833 -35 95.5 -35zM251 645l106 140h87l-112 -140h-81z" />
    <glyph glyph-name="ocircumflex" unicode="&#xf4;" 
d="M300 -9c-42.667 0 -79.667 8.33301 -111 25s-55.666 40.667 -72.999 72s-26 68.333 -26 111v152c0 43.333 8.66699 80.5 26 111.5s41.666 54.833 72.999 71.5s68.333 25 111 25s79.667 -8.33301 111 -25s55.666 -40.5 72.999 -71.5s26 -67.833 26 -110.5v-153
c0 -42.667 -8.66699 -79.667 -26 -111s-41.666 -55.333 -72.999 -72s-68.333 -25 -111 -25zM300 62c41.333 0 73.333 11.667 96 35s34 57.333 34 102v152c0 44.667 -11.5 78.667 -34.5 102s-54.833 35 -95.5 35s-72.5 -11.667 -95.5 -35s-34.5 -57.333 -34.5 -102v-152
c0 -44.667 11.5 -78.667 34.5 -102s54.833 -35 95.5 -35zM127 645l134 140h77l135 -140h-86l-87 86l-85 -86h-88z" />
    <glyph glyph-name="otilde" unicode="&#xf5;" 
d="M300 -9c-42.667 0 -79.667 8.33301 -111 25s-55.666 40.667 -72.999 72s-26 68.333 -26 111v152c0 43.333 8.66699 80.5 26 111.5s41.666 54.833 72.999 71.5s68.333 25 111 25s79.667 -8.33301 111 -25s55.666 -40.5 72.999 -71.5s26 -67.833 26 -110.5v-153
c0 -42.667 -8.66699 -79.667 -26 -111s-41.666 -55.333 -72.999 -72s-68.333 -25 -111 -25zM300 62c41.333 0 73.333 11.667 96 35s34 57.333 34 102v152c0 44.667 -11.5 78.667 -34.5 102s-54.833 35 -95.5 35s-72.5 -11.667 -95.5 -35s-34.5 -57.333 -34.5 -102v-152
c0 -44.667 11.5 -78.667 34.5 -102s54.833 -35 95.5 -35zM371 650c-19.333 0 -35.3311 3.83301 -47.998 11.5s-23.5 16.5 -32.5 26.5s-17.833 18.833 -26.5 26.5s-18.667 11.5 -30 11.5c-10.667 0 -19.334 -3.33301 -26.001 -10s-10 -16.667 -10 -30v-31h-58v31
c0 30 8.16699 53.167 24.5 69.5s38.166 24.5 65.499 24.5c19.333 0 35.5 -3.83301 48.5 -11.5s24 -16.5 33 -26.5s17.667 -18.833 26 -26.5s18.5 -11.5 30.5 -11.5c10.667 0 19 3.33301 25 10s9 16.667 9 30v31h58v-31c0 -30 -8 -53.167 -24 -69.5s-37.667 -24.5 -65 -24.5z
" />
    <glyph glyph-name="odieresis" unicode="&#xf6;" 
d="M300 -9c-42.667 0 -79.667 8.33301 -111 25s-55.666 40.667 -72.999 72s-26 68.333 -26 111v152c0 43.333 8.66699 80.5 26 111.5s41.666 54.833 72.999 71.5s68.333 25 111 25s79.667 -8.33301 111 -25s55.666 -40.5 72.999 -71.5s26 -67.833 26 -110.5v-153
c0 -42.667 -8.66699 -79.667 -26 -111s-41.666 -55.333 -72.999 -72s-68.333 -25 -111 -25zM300 62c41.333 0 73.333 11.667 96 35s34 57.333 34 102v152c0 44.667 -11.5 78.667 -34.5 102s-54.833 35 -95.5 35s-72.5 -11.667 -95.5 -35s-34.5 -57.333 -34.5 -102v-152
c0 -44.667 11.5 -78.667 34.5 -102s54.833 -35 95.5 -35zM410 651c-18 0 -32.667 5.33203 -44 15.999s-17 25.334 -17 44.001c0 19.333 5.66699 34.666 17 45.999s26 17 44 17c18.667 0 33.5 -5.66699 44.5 -17s16.5 -26.666 16.5 -45.999c0 -18 -5.5 -32.5 -16.5 -43.5
s-25.833 -16.5 -44.5 -16.5zM190 650.999c-18 0 -32.667 5.33203 -44 15.999s-17 25.334 -17 44.001c0 19.333 5.66699 34.666 17 45.999s26 17 44 17s32.667 -5.66699 44 -17s17 -26.666 17 -45.999c0 -18 -5.66699 -32.5 -17 -43.5s-26 -16.5 -44 -16.5z" />
    <glyph glyph-name="divide" unicode="&#xf7;" 
d="M100 299v68h400v-68h-400zM291 89c-18 0 -32.833 5.16699 -44.5 15.5s-17.5 24.5 -17.5 42.5c0 17.333 5.83301 31.5 17.5 42.5s26.5 16.5 44.5 16.5h16c18.667 0 33.834 -5.5 45.501 -16.5s17.5 -25.167 17.5 -42.5c0 -18 -5.83301 -32.167 -17.5 -42.5
s-26.834 -15.5 -45.501 -15.5h-16zM291 459c-18 0 -32.833 5 -44.5 15s-17.5 24.333 -17.5 43c0 17.333 5.83301 31.5 17.5 42.5s26.5 16.5 44.5 16.5h16c18.667 0 33.834 -5.5 45.501 -16.5s17.5 -25.167 17.5 -42.5c0 -18 -5.83301 -32.167 -17.5 -42.5
s-26.834 -15.5 -45.501 -15.5h-16z" />
    <glyph glyph-name="oslash" unicode="&#xf8;" 
d="M41 -30l438 620h80l-439 -620h-79zM300 -10c-42.667 0 -79.5 8.33301 -110.5 25s-54.833 40.5 -71.5 71.5s-25 67.833 -25 110.5v156c0 42.667 8.33301 79.5 25 110.5s40.5 54.833 71.5 71.5s67.833 25 110.5 25s79.5 -8.33301 110.5 -25s54.833 -40.5 71.5 -71.5
s25 -67.833 25 -110.5v-156c0 -42.667 -8.33301 -79.5 -25 -110.5s-40.5 -54.833 -71.5 -71.5s-67.833 -25 -110.5 -25zM300 60c41.333 0 73.666 12.167 96.999 36.5s35 57.833 35 100.5v156c0 43.333 -11.667 77 -35 101s-55.666 36 -96.999 36s-73.666 -12 -96.999 -36
s-35 -57.667 -35 -101v-156c0 -42.667 11.667 -76.167 35 -100.5s55.666 -36.5 96.999 -36.5z" />
    <glyph glyph-name="ugrave" unicode="&#xf9;" 
d="M299 -10c-62 0 -111.5 18.667 -148.5 56s-55.5 88 -55.5 152v352h79v-352c0 -43.333 11.167 -77.166 33.5 -101.499s52.833 -36.5 91.5 -36.5c39.333 0 70.333 12.167 93 36.5s34 58.166 34 101.499v352h79v-352c0 -64 -18.667 -114.667 -56 -152s-87.333 -56 -150 -56z
M271 645l-114 140h90l109 -140h-85z" />
    <glyph glyph-name="uacute" unicode="&#xfa;" 
d="M299 -10c-62 0 -111.5 18.667 -148.5 56s-55.5 88 -55.5 152v352h79v-352c0 -43.333 11.167 -77.166 33.5 -101.499s52.833 -36.5 91.5 -36.5c39.333 0 70.333 12.167 93 36.5s34 58.166 34 101.499v352h79v-352c0 -64 -18.667 -114.667 -56 -152s-87.333 -56 -150 -56z
M251 645l106 140h87l-112 -140h-81z" />
    <glyph glyph-name="ucircumflex" unicode="&#xfb;" 
d="M299 -10c-62 0 -111.5 18.667 -148.5 56s-55.5 88 -55.5 152v352h79v-352c0 -43.333 11.167 -77.166 33.5 -101.499s52.833 -36.5 91.5 -36.5c39.333 0 70.333 12.167 93 36.5s34 58.166 34 101.499v352h79v-352c0 -64 -18.667 -114.667 -56 -152s-87.333 -56 -150 -56z
M127 645l134 140h77l135 -140h-86l-87 86l-85 -86h-88z" />
    <glyph glyph-name="udieresis" unicode="&#xfc;" 
d="M299 -10c-62 0 -111.5 18.667 -148.5 56s-55.5 88 -55.5 152v352h79v-352c0 -43.333 11.167 -77.166 33.5 -101.499s52.833 -36.5 91.5 -36.5c39.333 0 70.333 12.167 93 36.5s34 58.166 34 101.499v352h79v-352c0 -64 -18.667 -114.667 -56 -152s-87.333 -56 -150 -56z
M410 651c-18 0 -32.667 5.33203 -44 15.999s-17 25.334 -17 44.001c0 19.333 5.66699 34.666 17 45.999s26 17 44 17c18.667 0 33.5 -5.66699 44.5 -17s16.5 -26.666 16.5 -45.999c0 -18 -5.5 -32.5 -16.5 -43.5s-25.833 -16.5 -44.5 -16.5zM190 650.999
c-18 0 -32.667 5.33203 -44 15.999s-17 25.334 -17 44.001c0 19.333 5.66699 34.666 17 45.999s26 17 44 17s32.667 -5.66699 44 -17s17 -26.666 17 -45.999c0 -18 -5.66699 -32.5 -17 -43.5s-26 -16.5 -44 -16.5z" />
    <glyph glyph-name="yacute" unicode="&#xfd;" 
d="M184 -180l80.999 214.998l-204 515h88l130 -343c5.33301 -13.333 10.5 -28.166 15.5 -44.499s8.83301 -29.833 11.5 -40.5c3.33301 10.667 7.33301 24.334 12 41.001s9.33398 31.667 14.001 45l122 342h85l-271 -730h-84zM250.999 644.998l106 140h87l-112 -140h-81z" />
    <glyph glyph-name="thorn" unicode="&#xfe;" 
d="M93 -173v232h79v-232h-79zM323 -10c-46 0 -82.999 12.501 -110.999 37.501s-42 59.167 -42 102.5l23 -33h-21v-97h-79v730h79v-157l-1 -120h19l-20 -33c0 42.667 14.167 76.667 42.5 102s65.166 38 110.499 38c55.333 0 99.666 -18.333 132.999 -55
s50 -86.334 50 -149.001v-163c0 -62 -16.667 -111.333 -50 -148s-77.666 -55 -132.999 -55zM299.001 59.001c39.333 0 70.5 11.998 93.5 35.998s34.5 58 34.5 102v156c0 44 -11.5 78 -34.5 102s-54.167 36 -93.5 36s-70.333 -12.167 -93 -36.5s-34 -58.166 -34 -101.499
v-156c0 -43.333 11.333 -77.166 34 -101.499s53.667 -36.5 93 -36.5z" />
    <glyph glyph-name="ydieresis" unicode="&#xff;" 
d="M184 -180l80.999 214.998l-204 515h88l130 -343c5.33301 -13.333 10.5 -28.166 15.5 -44.499s8.83301 -29.833 11.5 -40.5c3.33301 10.667 7.33301 24.334 12 41.001s9.33398 31.667 14.001 45l122 342h85l-271 -730h-84zM409.999 650.998
c-18 0 -32.667 5.33203 -44 15.999s-17 25.334 -17 44.001c0 19.333 5.66699 34.666 17 45.999s26 17 44 17c18.667 0 33.5 -5.66699 44.5 -17s16.5 -26.666 16.5 -45.999c0 -18 -5.5 -32.5 -16.5 -43.5s-25.833 -16.5 -44.5 -16.5zM189.999 650.997
c-18 0 -32.667 5.33203 -44 15.999s-17 25.334 -17 44.001c0 19.333 5.66699 34.666 17 45.999s26 17 44 17s32.667 -5.66699 44 -17s17 -26.666 17 -45.999c0 -18 -5.66699 -32.5 -17 -43.5s-26 -16.5 -44 -16.5z" />
    <glyph glyph-name="Amacron" unicode="&#x100;" 
d="M55 0l193 730h105l192 -730h-80l-51 198h-228l-50 -198h-81zM202 266h195l-62 244c-10 40.667 -18 74.834 -24 102.501s-9.66699 45.5 -11 53.5c-1.33301 -8 -5 -25.833 -11 -53.5s-14 -61.834 -24 -102.501zM145 844v66h310v-66h-310z" />
    <glyph glyph-name="amacron" unicode="&#x101;" 
d="M257 -10c-58 0 -103.67 14.832 -137.003 44.499s-50 69.834 -50 120.501c0 50 16.333 89.5 49 118.5s76.667 43.5 132 43.5h175v58c0 36.667 -10.667 65 -32 85s-51.666 30 -90.999 30c-34.667 0 -63.5 -7.66699 -86.5 -23s-36.167 -36 -39.5 -62h-80
c6.66699 47.333 28.834 85 66.501 113s84.834 42 141.501 42c61.333 0 110 -16.5 146 -49.5s54 -77.5 54 -133.5v-377h-78v107h-13l15 16c0 -40.667 -15.667 -73 -47 -97s-73 -36 -125 -36zM275.997 53.999c44 0 80 11 108 33s42 50.667 42 86v83h-174
c-31.333 0 -56.333 -8.66699 -75 -26s-28 -41 -28 -71c0 -32 11.333 -57.5 34 -76.5s53.667 -28.5 93 -28.5zM149.997 673.999v66h310v-66h-310z" />
    <glyph glyph-name="Abreve" unicode="&#x102;" 
d="M55 0l193 730h105l192 -730h-80l-51 198h-228l-50 -198h-81zM202 266h195l-62 244c-10 40.667 -18 74.834 -24 102.501s-9.66699 45.5 -11 53.5c-1.33301 -8 -5 -25.833 -11 -53.5s-14 -61.834 -24 -102.501zM300 806c-47.333 0 -85.1689 13.167 -113.502 39.5
s-42.5 61.166 -42.5 104.499h64c0 -27.333 8.16699 -49.333 24.5 -66s38.5 -25 66.5 -25c28.667 0 51.334 8.33301 68.001 25s25 38.667 25 66h64c0 -43.333 -14.167 -78.166 -42.5 -104.499s-66.166 -39.5 -113.499 -39.5z" />
    <glyph glyph-name="abreve" unicode="&#x103;" 
d="M257 -10c-58 0 -103.67 14.832 -137.003 44.499s-50 69.834 -50 120.501c0 50 16.333 89.5 49 118.5s76.667 43.5 132 43.5h175v58c0 36.667 -10.667 65 -32 85s-51.666 30 -90.999 30c-34.667 0 -63.5 -7.66699 -86.5 -23s-36.167 -36 -39.5 -62h-80
c6.66699 47.333 28.834 85 66.501 113s84.834 42 141.501 42c61.333 0 110 -16.5 146 -49.5s54 -77.5 54 -133.5v-377h-78v107h-13l15 16c0 -40.667 -15.667 -73 -47 -97s-73 -36 -125 -36zM275.997 53.999c44 0 80 11 108 33s42 50.667 42 86v83h-174
c-31.333 0 -56.333 -8.66699 -75 -26s-28 -41 -28 -71c0 -32 11.333 -57.5 34 -76.5s53.667 -28.5 93 -28.5zM304.997 640.999c-47.333 0 -85.1689 13.167 -113.502 39.5s-42.5 61.166 -42.5 104.499h64c0 -27.333 8.16699 -49.333 24.5 -66s38.5 -25 66.5 -25
c28.667 0 51.334 8.33301 68.001 25s25 38.667 25 66h64c0 -43.333 -14.167 -78.166 -42.5 -104.499s-66.166 -39.5 -113.499 -39.5z" />
    <glyph glyph-name="Aogonek" unicode="&#x104;" 
d="M505 -201c-34 0 -61.333 8.33203 -82 24.999s-31 38.334 -31 65.001c0 19.333 6.5 39 19.5 59s34.5 40.667 64.5 62h65l-11 -9c-22 -18.667 -38 -36 -48 -52s-15 -31 -15 -45c0 -14.667 4.83301 -26.667 14.5 -36s22.5 -14 38.5 -14h62v-55h-77zM55 -0.000976562l193 730
h105l192 -730h-80l-51 198h-228l-50 -198h-81zM202 265.999h195l-62 244c-10 40.667 -18 74.834 -24 102.501s-9.66699 45.5 -11 53.5c-1.33301 -8 -5 -25.833 -11 -53.5s-14 -61.834 -24 -102.501z" />
    <glyph glyph-name="aogonek" unicode="&#x105;" 
d="M480 -201c-34 0 -61.334 8.33301 -82.001 25s-31 38.334 -31 65.001c0 19.333 6.66699 39 20 59s34.666 40.667 63.999 62l54 -10c-21.333 -18.667 -37.166 -35.834 -47.499 -51.501s-15.5 -30.5 -15.5 -44.5c0 -14.667 4.83301 -26.667 14.5 -36s22.834 -14 39.501 -14
h61v-55h-77zM256.999 -10c-58 0 -103.67 14.832 -137.003 44.499s-50 69.834 -50 120.501c0 50 16.333 89.5 49 118.5s76.667 43.5 132 43.5h175v58c0 36.667 -10.667 65 -32 85s-51.666 30 -90.999 30c-34.667 0 -63.5 -7.66699 -86.5 -23s-36.167 -36 -39.5 -62h-80
c6.66699 47.333 28.834 85 66.501 113s84.834 42 141.501 42c61.333 0 110 -16.5 146 -49.5s54 -77.5 54 -133.5v-377h-78v107h-13l15 16c0 -40.667 -15.667 -73 -47 -97s-73 -36 -125 -36zM275.996 53.999c44 0 80 11 108 33s42 50.667 42 86v83h-174
c-31.333 0 -56.333 -8.66699 -75 -26s-28 -41 -28 -71c0 -32 11.333 -57.5 34 -76.5s53.667 -28.5 93 -28.5z" />
    <glyph glyph-name="Cacute" unicode="&#x106;" 
d="M305 -10c-43.333 0 -80.833 8.33301 -112.5 25s-56.167 40.667 -73.5 72s-26 68 -26 110v336c0 42.667 8.66699 79.5 26 110.5s41.833 54.833 73.5 71.5s69.167 25 112.5 25c42.667 0 79.834 -8.5 111.501 -25.5s56.167 -41.167 73.5 -72.5s26 -68.666 26 -111.999h-79
c0 44 -11.667 78.167 -35 102.5s-55.666 36.5 -96.999 36.5s-73.833 -11.833 -97.5 -35.5s-35.5 -57.167 -35.5 -100.5v-336c0 -42.667 11.833 -76 35.5 -100s56.167 -36 97.5 -36s73.666 12.167 96.999 36.5s35 58.5 35 102.5h79c0 -42.667 -8.66699 -79.834 -26 -111.501
s-41.833 -56 -73.5 -73s-68.834 -25.5 -111.501 -25.5zM253 810l106 140h87l-112 -140h-81z" />
    <glyph glyph-name="cacute" unicode="&#x107;" 
d="M303 -10c-42.667 0 -80 8.33301 -112 25s-56.833 40.5 -74.5 71.5s-26.5 67.833 -26.5 110.5v156c0 42.667 8.83301 79.5 26.5 110.5s42.5 54.833 74.5 71.5s69.333 25 112 25c62.667 0 113 -17 151 -51s57.667 -80.333 59 -139h-79c-1.33301 38 -13.5 67.333 -36.5 88
s-54.5 31 -94.5 31c-40.667 0 -73 -11.833 -97 -35.5s-36 -57.167 -36 -100.5v-156c0 -42.667 12 -76 36 -100s56.333 -36 97 -36c40 0 71.5 10.5 94.5 31.5s35.167 50.167 36.5 87.5h79c-1.33301 -58.667 -21 -105 -59 -139s-88.333 -51 -151 -51zM254 645l106 140h87
l-112 -140h-81z" />
    <glyph glyph-name="Ccircumflex" unicode="&#x108;" 
d="M305 -10c-43.333 0 -80.833 8.33301 -112.5 25s-56.167 40.667 -73.5 72s-26 68 -26 110v336c0 42.667 8.66699 79.5 26 110.5s41.833 54.833 73.5 71.5s69.167 25 112.5 25c42.667 0 79.834 -8.5 111.501 -25.5s56.167 -41.167 73.5 -72.5s26 -68.666 26 -111.999h-79
c0 44 -11.667 78.167 -35 102.5s-55.666 36.5 -96.999 36.5s-73.833 -11.833 -97.5 -35.5s-35.5 -57.167 -35.5 -100.5v-336c0 -42.667 11.833 -76 35.5 -100s56.167 -36 97.5 -36s73.666 12.167 96.999 36.5s35 58.5 35 102.5h79c0 -42.667 -8.66699 -79.834 -26 -111.501
s-41.833 -56 -73.5 -73s-68.834 -25.5 -111.501 -25.5zM132 810l134 140h77l135 -140h-86l-87 86l-85 -86h-88z" />
    <glyph glyph-name="ccircumflex" unicode="&#x109;" 
d="M303 -10c-42.667 0 -80 8.33301 -112 25s-56.833 40.5 -74.5 71.5s-26.5 67.833 -26.5 110.5v156c0 42.667 8.83301 79.5 26.5 110.5s42.5 54.833 74.5 71.5s69.333 25 112 25c62.667 0 113 -17 151 -51s57.667 -80.333 59 -139h-79c-1.33301 38 -13.5 67.333 -36.5 88
s-54.5 31 -94.5 31c-40.667 0 -73 -11.833 -97 -35.5s-36 -57.167 -36 -100.5v-156c0 -42.667 12 -76 36 -100s56.333 -36 97 -36c40 0 71.5 10.5 94.5 31.5s35.167 50.167 36.5 87.5h79c-1.33301 -58.667 -21 -105 -59 -139s-88.333 -51 -151 -51zM127 645l134 140h77
l135 -140h-86l-87 86l-85 -86h-88z" />
    <glyph glyph-name="Cdotaccent" unicode="&#x10a;" 
d="M305 -10c-43.333 0 -80.833 8.33301 -112.5 25s-56.167 40.667 -73.5 72s-26 68 -26 110v336c0 42.667 8.66699 79.5 26 110.5s41.833 54.833 73.5 71.5s69.167 25 112.5 25c42.667 0 79.834 -8.5 111.501 -25.5s56.167 -41.167 73.5 -72.5s26 -68.666 26 -111.999h-79
c0 44 -11.667 78.167 -35 102.5s-55.666 36.5 -96.999 36.5s-73.833 -11.833 -97.5 -35.5s-35.5 -57.167 -35.5 -100.5v-336c0 -42.667 11.833 -76 35.5 -100s56.167 -36 97.5 -36s73.666 12.167 96.999 36.5s35 58.5 35 102.5h79c0 -42.667 -8.66699 -79.834 -26 -111.501
s-41.833 -56 -73.5 -73s-68.834 -25.5 -111.501 -25.5zM305 818c-20.667 0 -37.167 5.66699 -49.5 17s-18.5 26.333 -18.5 45s6.16699 33.667 18.5 45s28.833 17 49.5 17s37.167 -5.66699 49.5 -17s18.5 -26.333 18.5 -45s-6.16699 -33.667 -18.5 -45s-28.833 -17 -49.5 -17
z" />
    <glyph glyph-name="cdotaccent" unicode="&#x10b;" 
d="M303 -10c-42.667 0 -80 8.33301 -112 25s-56.833 40.5 -74.5 71.5s-26.5 67.833 -26.5 110.5v156c0 42.667 8.83301 79.5 26.5 110.5s42.5 54.833 74.5 71.5s69.333 25 112 25c62.667 0 113 -17 151 -51s57.667 -80.333 59 -139h-79c-1.33301 38 -13.5 67.333 -36.5 88
s-54.5 31 -94.5 31c-40.667 0 -73 -11.833 -97 -35.5s-36 -57.167 -36 -100.5v-156c0 -42.667 12 -76 36 -100s56.333 -36 97 -36c40 0 71.5 10.5 94.5 31.5s35.167 50.167 36.5 87.5h79c-1.33301 -58.667 -21 -105 -59 -139s-88.333 -51 -151 -51zM300 651
c-20.667 0 -37.167 5.33203 -49.5 15.999s-18.5 25.334 -18.5 44.001c0 19.333 6.16699 34.666 18.5 45.999s28.833 17 49.5 17s37.167 -5.66699 49.5 -17s18.5 -26.666 18.5 -45.999c0 -18 -6.16699 -32.5 -18.5 -43.5s-28.833 -16.5 -49.5 -16.5z" />
    <glyph glyph-name="Ccaron" unicode="&#x10c;" 
d="M305 -10c-43.333 0 -80.833 8.33301 -112.5 25s-56.167 40.667 -73.5 72s-26 68 -26 110v336c0 42.667 8.66699 79.5 26 110.5s41.833 54.833 73.5 71.5s69.167 25 112.5 25c42.667 0 79.834 -8.5 111.501 -25.5s56.167 -41.167 73.5 -72.5s26 -68.666 26 -111.999h-79
c0 44 -11.667 78.167 -35 102.5s-55.666 36.5 -96.999 36.5s-73.833 -11.833 -97.5 -35.5s-35.5 -57.167 -35.5 -100.5v-336c0 -42.667 11.833 -76 35.5 -100s56.167 -36 97.5 -36s73.666 12.167 96.999 36.5s35 58.5 35 102.5h79c0 -42.667 -8.66699 -79.834 -26 -111.501
s-41.833 -56 -73.5 -73s-68.834 -25.5 -111.501 -25.5zM267 810l-135 140h86l88 -86l85 86h87l-134 -140h-77z" />
    <glyph glyph-name="ccaron" unicode="&#x10d;" 
d="M303 -10c-42.667 0 -80 8.33301 -112 25s-56.833 40.5 -74.5 71.5s-26.5 67.833 -26.5 110.5v156c0 42.667 8.83301 79.5 26.5 110.5s42.5 54.833 74.5 71.5s69.333 25 112 25c62.667 0 113 -17 151 -51s57.667 -80.333 59 -139h-79c-1.33301 38 -13.5 67.333 -36.5 88
s-54.5 31 -94.5 31c-40.667 0 -73 -11.833 -97 -35.5s-36 -57.167 -36 -100.5v-156c0 -42.667 12 -76 36 -100s56.333 -36 97 -36c40 0 71.5 10.5 94.5 31.5s35.167 50.167 36.5 87.5h79c-1.33301 -58.667 -21 -105 -59 -139s-88.333 -51 -151 -51zM265 645l-135 140h86
l88 -86l85 86h87l-134 -140h-77z" />
    <glyph glyph-name="Dcaron" unicode="&#x10e;" 
d="M97 0v730h181c46.667 0 87.167 -9 121.5 -27s60.833 -43.5 79.5 -76.5s28 -71.5 28 -115.5v-291c0 -44.667 -9.33301 -83.5 -28 -116.5s-45.167 -58.5 -79.5 -76.5s-74.833 -27 -121.5 -27h-181zM176 71h101.999c46.667 0 83.334 13.333 110.001 40s40 63 40 109v291
c0 45.333 -13.5 81.333 -40.5 108s-63.5 40 -109.5 40h-102v-588zM261.999 810l-135 140h86l88 -86l85 86h87l-134 -140h-77z" />
    <glyph glyph-name="dcaron" unicode="&#x10f;" 
d="M510 550l3 180h79l-11 -180h-71zM237 -10c-51.333 0 -92 18 -122 54s-45 84.333 -45 145v171c0 61.333 15 110 45 146s70.667 54 122 54c42.667 0 76.667 -12.667 102 -38s38 -59.333 38 -102l-21 33h20l-2 120v157h80v-730h-80v97h-20l23 33
c0 -42.667 -12.667 -76.667 -38 -102s-59.333 -38 -102 -38zM262 59c35.333 0 62.833 11.833 82.5 35.5s29.5 56.5 29.5 98.5v163c0 42.667 -9.83301 75.834 -29.5 99.501s-47.167 35.5 -82.5 35.5c-34.667 0 -62 -11.833 -82 -35.5s-30 -56.834 -30 -99.501v-163
c0 -42 10 -74.833 30 -98.5s47.333 -35.5 82 -35.5z" />
    <glyph glyph-name="Dcroat" unicode="&#x110;" 
d="M10 339v67h280v-67h-280zM97 0v730h181c46.667 0 87.167 -9 121.5 -27s60.833 -43.5 79.5 -76.5s28 -71.5 28 -115.5v-291c0 -44.667 -9.33301 -83.5 -28 -116.5s-45.167 -58.5 -79.5 -76.5s-74.833 -27 -121.5 -27h-181zM176 71h101.999
c46.667 0 83.334 13.333 110.001 40s40 63 40 109v291c0 45.333 -13.5 81.333 -40.5 108s-63.5 40 -109.5 40h-102v-588z" />
    <glyph glyph-name="dcroat" unicode="&#x111;" 
d="M273 -10c-54.667 0 -98.167 18.332 -130.5 54.999s-48.5 86 -48.5 148v103c0 62.667 16 112.334 48 149.001s75.667 55 131 55c46 0 82.833 -12.667 110.5 -38s41.5 -59.333 41.5 -102l-21 33h20l-2 120v217h80v-730h-80v97h-20l23 33
c0 -43.333 -13.833 -77.5 -41.5 -102.5s-64.5 -37.5 -110.5 -37.5zM298 58.999c39.333 0 69.833 12.1689 91.5 36.502s32.5 58.166 32.5 101.499v96c0 43.333 -10.833 77.166 -32.5 101.499s-52.167 36.5 -91.5 36.5c-40 0 -70.833 -12 -92.5 -36s-32.5 -58 -32.5 -102v-96
c0 -44 10.833 -78 32.5 -102s52.5 -36 92.5 -36zM253 574.001v67h344v-67h-344z" />
    <glyph glyph-name="Emacron" unicode="&#x112;" 
d="M105 0v730h412v-72h-333v-241h298v-71h-298v-274h333v-72h-412zM165 844v66h310v-66h-310z" />
    <glyph glyph-name="emacron" unicode="&#x113;" 
d="M300 -10c-42.667 0 -79.666 8.50098 -110.999 25.501s-55.666 41.167 -72.999 72.5s-26 67.666 -26 108.999v156c0 42 8.66699 78.5 26 109.5s41.666 55 72.999 72s68.333 25.5 111 25.5s79.667 -8.5 111 -25.5s55.666 -41 72.999 -72s26 -67.5 26 -109.5v-97h-342v-59
c0 -44.667 11.5 -79.167 34.5 -103.5s55.5 -36.5 97.5 -36.5c35.333 0 64.166 7 86.499 21s36.5 34.333 42.5 61h79c-7.33301 -46 -29.666 -82.333 -66.999 -109s-84.333 -40 -141 -40zM432.001 309.001l0.000976562 44c0 44.667 -11.333 79.167 -34 103.5
s-55.334 36.5 -98.001 36.5c-42 0 -74.5 -12.167 -97.5 -36.5s-34.5 -58.833 -34.5 -103.5v-35h272zM145.002 674.001v66h310v-66h-310z" />
    <glyph glyph-name="Ebreve" unicode="&#x114;" 
d="M105 0v730h412v-72h-333v-241h298v-71h-298v-274h333v-72h-412zM320 806c-47.333 0 -85.1689 13.167 -113.502 39.5s-42.5 61.166 -42.5 104.499h64c0 -27.333 8.16699 -49.333 24.5 -66s38.5 -25 66.5 -25c28.667 0 51.334 8.33301 68.001 25s25 38.667 25 66h64
c0 -43.333 -14.167 -78.166 -42.5 -104.499s-66.166 -39.5 -113.499 -39.5z" />
    <glyph glyph-name="ebreve" unicode="&#x115;" 
d="M300 -10c-42.667 0 -79.666 8.50098 -110.999 25.501s-55.666 41.167 -72.999 72.5s-26 67.666 -26 108.999v156c0 42 8.66699 78.5 26 109.5s41.666 55 72.999 72s68.333 25.5 111 25.5s79.667 -8.5 111 -25.5s55.666 -41 72.999 -72s26 -67.5 26 -109.5v-97h-342v-59
c0 -44.667 11.5 -79.167 34.5 -103.5s55.5 -36.5 97.5 -36.5c35.333 0 64.166 7 86.499 21s36.5 34.333 42.5 61h79c-7.33301 -46 -29.666 -82.333 -66.999 -109s-84.333 -40 -141 -40zM432.001 309.001l0.000976562 44c0 44.667 -11.333 79.167 -34 103.5
s-55.334 36.5 -98.001 36.5c-42 0 -74.5 -12.167 -97.5 -36.5s-34.5 -58.833 -34.5 -103.5v-35h272zM300.002 641.001c-47.333 0 -85.1689 13.167 -113.502 39.5s-42.5 61.166 -42.5 104.499h64c0 -27.333 8.16699 -49.333 24.5 -66s38.5 -25 66.5 -25
c28.667 0 51.334 8.33301 68.001 25s25 38.667 25 66h64c0 -43.333 -14.167 -78.166 -42.5 -104.499s-66.166 -39.5 -113.499 -39.5z" />
    <glyph glyph-name="Edotaccent" unicode="&#x116;" 
d="M105 0v730h412v-72h-333v-241h298v-71h-298v-274h333v-72h-412zM320 818c-20.667 0 -37.167 5.66699 -49.5 17s-18.5 26.333 -18.5 45s6.16699 33.667 18.5 45s28.833 17 49.5 17s37.167 -5.66699 49.5 -17s18.5 -26.333 18.5 -45s-6.16699 -33.667 -18.5 -45
s-28.833 -17 -49.5 -17z" />
    <glyph glyph-name="edotaccent" unicode="&#x117;" 
d="M300 -10c-42.667 0 -79.666 8.50098 -110.999 25.501s-55.666 41.167 -72.999 72.5s-26 67.666 -26 108.999v156c0 42 8.66699 78.5 26 109.5s41.666 55 72.999 72s68.333 25.5 111 25.5s79.667 -8.5 111 -25.5s55.666 -41 72.999 -72s26 -67.5 26 -109.5v-97h-342v-59
c0 -44.667 11.5 -79.167 34.5 -103.5s55.5 -36.5 97.5 -36.5c35.333 0 64.166 7 86.499 21s36.5 34.333 42.5 61h79c-7.33301 -46 -29.666 -82.333 -66.999 -109s-84.333 -40 -141 -40zM432.001 309.001l0.000976562 44c0 44.667 -11.333 79.167 -34 103.5
s-55.334 36.5 -98.001 36.5c-42 0 -74.5 -12.167 -97.5 -36.5s-34.5 -58.833 -34.5 -103.5v-35h272zM300.002 651.001c-20.667 0 -37.167 5.33203 -49.5 15.999s-18.5 25.334 -18.5 44.001c0 19.333 6.16699 34.666 18.5 45.999s28.833 17 49.5 17s37.167 -5.66699 49.5 -17
s18.5 -26.666 18.5 -45.999c0 -18 -6.16699 -32.5 -18.5 -43.5s-28.833 -16.5 -49.5 -16.5z" />
    <glyph glyph-name="Eogonek" unicode="&#x118;" 
d="M446 -201c-34.667 0 -62.333 8.33203 -83 24.999s-31 38.334 -31 65.001c0 19.333 6.66699 39 20 59s35 40.667 65 62h65l-11 -9c-22 -18.667 -38.167 -36 -48.5 -52s-15.5 -31 -15.5 -45c0 -14.667 5 -26.667 15 -36s23 -14 39 -14h61v-55h-76zM105.001 -0.000976562
v730h412v-72h-333v-241h298v-71h-298v-274h333v-72h-412z" />
    <glyph glyph-name="eogonek" unicode="&#x119;" 
d="M374 -201c-34 0 -61.334 8.33496 -82.001 25.002s-31 38.334 -31 65.001c0 15.333 4.83301 31.666 14.5 48.999s24.834 35 45.501 53c-3.33301 0 -6.83301 -0.166992 -10.5 -0.5s-7.16699 -0.5 -10.5 -0.5c-42.667 0 -79.5 8.5 -110.5 25.5s-54.833 41.167 -71.5 72.5
s-25 67.666 -25 108.999v156c0 42 8.33301 78.5 25 109.5s40.5 55 71.5 72s67.833 25.5 110.5 25.5s79.5 -8.5 110.5 -25.5s54.833 -41 71.5 -72s25 -67.5 25 -109.5v-97h-337v-59c0 -44.667 11.167 -79.167 33.5 -103.5s54.5 -36.5 96.5 -36.5c35.333 0 63.833 7 85.5 21
s35.167 34.333 40.5 61h80c-4 -27.333 -13.667 -51.333 -29 -72s-35 -37.334 -59 -50.001l-19 -16c-22 -18.667 -38.167 -36 -48.5 -52s-15.5 -31 -15.5 -45c0 -14.667 5 -26.667 15 -36s23 -14 39 -14h61v-55h-76zM429.999 282.002v71c0 44.667 -11 79.167 -33 103.5
s-54.333 36.5 -97 36.5c-42 0 -74.167 -12.167 -96.5 -36.5s-33.5 -58.833 -33.5 -103.5v-35h295z" />
    <glyph glyph-name="Ecaron" unicode="&#x11a;" 
d="M105 0v730h412v-72h-333v-241h298v-71h-298v-274h333v-72h-412zM282 810l-135 140h86l88 -86l85 86h87l-134 -140h-77z" />
    <glyph glyph-name="ecaron" unicode="&#x11b;" 
d="M300 -10c-42.667 0 -79.666 8.50098 -110.999 25.501s-55.666 41.167 -72.999 72.5s-26 67.666 -26 108.999v156c0 42 8.66699 78.5 26 109.5s41.666 55 72.999 72s68.333 25.5 111 25.5s79.667 -8.5 111 -25.5s55.666 -41 72.999 -72s26 -67.5 26 -109.5v-97h-342v-59
c0 -44.667 11.5 -79.167 34.5 -103.5s55.5 -36.5 97.5 -36.5c35.333 0 64.166 7 86.499 21s36.5 34.333 42.5 61h79c-7.33301 -46 -29.666 -82.333 -66.999 -109s-84.333 -40 -141 -40zM432.001 309.001l0.000976562 44c0 44.667 -11.333 79.167 -34 103.5
s-55.334 36.5 -98.001 36.5c-42 0 -74.5 -12.167 -97.5 -36.5s-34.5 -58.833 -34.5 -103.5v-35h272zM262.002 645.001l-135 140h86l88 -86l85 86h87l-134 -140h-77z" />
    <glyph glyph-name="Gcircumflex" unicode="&#x11c;" 
d="M305 -10c-43.333 0 -80.833 8.33301 -112.5 25s-56.167 40.667 -73.5 72s-26 68 -26 110v336c0 42.667 8.66699 79.5 26 110.5s41.833 54.833 73.5 71.5s69.167 25 112.5 25c42.667 0 79.834 -8.5 111.501 -25.5s56.167 -41.167 73.5 -72.5s26 -68.666 26 -111.999h-79
c0 44 -11.667 78.167 -35 102.5s-55.666 36.5 -96.999 36.5s-73.833 -11.833 -97.5 -35.5s-35.5 -57.167 -35.5 -100.5v-336c0 -42.667 11.833 -76 35.5 -100s56.167 -36 97.5 -36s73.666 12.167 96.999 36.5s35 58.5 35 102.5v95h-155v73h234v-168
c0 -42.667 -8.66699 -79.834 -26 -111.501s-41.833 -56 -73.5 -73s-68.834 -25.5 -111.501 -25.5zM129 810l134 140h77l135 -140h-86l-87 86l-85 -86h-88z" />
    <glyph glyph-name="gcircumflex" unicode="&#x11d;" 
d="M164 -180l0.000976562 71.999h167c31.333 0 54.5 7.33301 69.5 22s22.5 37 22.5 67v64l2 104h-18l19 23c0 -41.333 -13.667 -74.333 -41 -99s-64 -37 -110 -37c-56 0 -100.333 18.5 -133 55.5s-49 86.5 -49 148.5v117c0 62 16.333 111.333 49 148s77 55 133 55
c46 0 82.667 -12.167 110 -36.5s41 -57.166 41 -98.499l-18 23h16v102h78v-569c0 -50.667 -14.833 -90.167 -44.5 -118.5s-71.834 -42.5 -126.501 -42.5h-167zM298.001 104.999c39.333 0 70.166 12.1689 92.499 36.502s33.5 58.166 33.5 101.499v110
c0 43.333 -11.167 77.166 -33.5 101.499s-53.166 36.5 -92.499 36.5c-40 0 -71 -12 -93 -36s-33 -58 -33 -102v-110c0 -44 11 -78 33 -102s53 -36 93 -36zM124.001 645.001l134 140h77l135 -140h-86l-87 86l-85 -86h-88z" />
    <glyph glyph-name="Gbreve" unicode="&#x11e;" 
d="M305 -10c-43.333 0 -80.833 8.33301 -112.5 25s-56.167 40.667 -73.5 72s-26 68 -26 110v336c0 42.667 8.66699 79.5 26 110.5s41.833 54.833 73.5 71.5s69.167 25 112.5 25c42.667 0 79.834 -8.5 111.501 -25.5s56.167 -41.167 73.5 -72.5s26 -68.666 26 -111.999h-79
c0 44 -11.667 78.167 -35 102.5s-55.666 36.5 -96.999 36.5s-73.833 -11.833 -97.5 -35.5s-35.5 -57.167 -35.5 -100.5v-336c0 -42.667 11.833 -76 35.5 -100s56.167 -36 97.5 -36s73.666 12.167 96.999 36.5s35 58.5 35 102.5v95h-155v73h234v-168
c0 -42.667 -8.66699 -79.834 -26 -111.501s-41.833 -56 -73.5 -73s-68.834 -25.5 -111.501 -25.5zM302 806c-47.333 0 -85.1689 13.167 -113.502 39.5s-42.5 61.166 -42.5 104.499h64c0 -27.333 8.16699 -49.333 24.5 -66s38.5 -25 66.5 -25
c28.667 0 51.334 8.33301 68.001 25s25 38.667 25 66h64c0 -43.333 -14.167 -78.166 -42.5 -104.499s-66.166 -39.5 -113.499 -39.5z" />
    <glyph glyph-name="gbreve" unicode="&#x11f;" 
d="M164 -180l0.000976562 71.999h167c31.333 0 54.5 7.33301 69.5 22s22.5 37 22.5 67v64l2 104h-18l19 23c0 -41.333 -13.667 -74.333 -41 -99s-64 -37 -110 -37c-56 0 -100.333 18.5 -133 55.5s-49 86.5 -49 148.5v117c0 62 16.333 111.333 49 148s77 55 133 55
c46 0 82.667 -12.167 110 -36.5s41 -57.166 41 -98.499l-18 23h16v102h78v-569c0 -50.667 -14.833 -90.167 -44.5 -118.5s-71.834 -42.5 -126.501 -42.5h-167zM298.001 104.999c39.333 0 70.166 12.1689 92.499 36.502s33.5 58.166 33.5 101.499v110
c0 43.333 -11.167 77.166 -33.5 101.499s-53.166 36.5 -92.499 36.5c-40 0 -71 -12 -93 -36s-33 -58 -33 -102v-110c0 -44 11 -78 33 -102s53 -36 93 -36zM297.001 641.001c-47.333 0 -85.1689 13.167 -113.502 39.5s-42.5 61.166 -42.5 104.499h64
c0 -27.333 8.16699 -49.333 24.5 -66s38.5 -25 66.5 -25c28.667 0 51.334 8.33301 68.001 25s25 38.667 25 66h64c0 -43.333 -14.167 -78.166 -42.5 -104.499s-66.166 -39.5 -113.499 -39.5z" />
    <glyph glyph-name="Gdotaccent" unicode="&#x120;" 
d="M305 -10c-43.333 0 -80.833 8.33301 -112.5 25s-56.167 40.667 -73.5 72s-26 68 -26 110v336c0 42.667 8.66699 79.5 26 110.5s41.833 54.833 73.5 71.5s69.167 25 112.5 25c42.667 0 79.834 -8.5 111.501 -25.5s56.167 -41.167 73.5 -72.5s26 -68.666 26 -111.999h-79
c0 44 -11.667 78.167 -35 102.5s-55.666 36.5 -96.999 36.5s-73.833 -11.833 -97.5 -35.5s-35.5 -57.167 -35.5 -100.5v-336c0 -42.667 11.833 -76 35.5 -100s56.167 -36 97.5 -36s73.666 12.167 96.999 36.5s35 58.5 35 102.5v95h-155v73h234v-168
c0 -42.667 -8.66699 -79.834 -26 -111.501s-41.833 -56 -73.5 -73s-68.834 -25.5 -111.501 -25.5zM302 818c-20.667 0 -37.167 5.66699 -49.5 17s-18.5 26.333 -18.5 45s6.16699 33.667 18.5 45s28.833 17 49.5 17s37.167 -5.66699 49.5 -17s18.5 -26.333 18.5 -45
s-6.16699 -33.667 -18.5 -45s-28.833 -17 -49.5 -17z" />
    <glyph glyph-name="gdotaccent" unicode="&#x121;" 
d="M164 -180l0.000976562 71.999h167c31.333 0 54.5 7.33301 69.5 22s22.5 37 22.5 67v64l2 104h-18l19 23c0 -41.333 -13.667 -74.333 -41 -99s-64 -37 -110 -37c-56 0 -100.333 18.5 -133 55.5s-49 86.5 -49 148.5v117c0 62 16.333 111.333 49 148s77 55 133 55
c46 0 82.667 -12.167 110 -36.5s41 -57.166 41 -98.499l-18 23h16v102h78v-569c0 -50.667 -14.833 -90.167 -44.5 -118.5s-71.834 -42.5 -126.501 -42.5h-167zM298.001 104.999c39.333 0 70.166 12.1689 92.499 36.502s33.5 58.166 33.5 101.499v110
c0 43.333 -11.167 77.166 -33.5 101.499s-53.166 36.5 -92.499 36.5c-40 0 -71 -12 -93 -36s-33 -58 -33 -102v-110c0 -44 11 -78 33 -102s53 -36 93 -36zM297.001 651.001c-20.667 0 -37.167 5.33203 -49.5 15.999s-18.5 25.334 -18.5 44.001
c0 19.333 6.16699 34.666 18.5 45.999s28.833 17 49.5 17s37.167 -5.66699 49.5 -17s18.5 -26.666 18.5 -45.999c0 -18 -6.16699 -32.5 -18.5 -43.5s-28.833 -16.5 -49.5 -16.5z" />
    <glyph glyph-name="uni0122" unicode="&#x122;" 
d="M305 -10c-43.333 0 -80.833 8.33301 -112.5 25s-56.167 40.667 -73.5 72s-26 68 -26 110v336c0 42.667 8.66699 79.5 26 110.5s41.833 54.833 73.5 71.5s69.167 25 112.5 25c42.667 0 79.834 -8.5 111.501 -25.5s56.167 -41.167 73.5 -72.5s26 -68.666 26 -111.999h-79
c0 44 -11.667 78.167 -35 102.5s-55.666 36.5 -96.999 36.5s-73.833 -11.833 -97.5 -35.5s-35.5 -57.167 -35.5 -100.5v-336c0 -42.667 11.833 -76 35.5 -100s56.167 -36 97.5 -36s73.666 12.167 96.999 36.5s35 58.5 35 102.5v95h-155v73h234v-168
c0 -42.667 -8.66699 -79.834 -26 -111.501s-41.833 -56 -73.5 -73s-68.834 -25.5 -111.501 -25.5zM202 -240l93 145h95l-105 -145h-83z" />
    <glyph glyph-name="uni0123" unicode="&#x123;" 
d="M164 -180l0.000976562 71.999h167c31.333 0 54.5 7.33301 69.5 22s22.5 37 22.5 67v64l2 104h-18l19 23c0 -41.333 -13.667 -74.333 -41 -99s-64 -37 -110 -37c-56 0 -100.333 18.5 -133 55.5s-49 86.5 -49 148.5v117c0 62 16.333 111.333 49 148s77 55 133 55
c46 0 82.667 -12.167 110 -36.5s41 -57.166 41 -98.499l-18 23h16v102h78v-569c0 -50.667 -14.833 -90.167 -44.5 -118.5s-71.834 -42.5 -126.501 -42.5h-167zM298.001 104.999c39.333 0 70.166 12.1689 92.499 36.502s33.5 58.166 33.5 101.499v110
c0 43.333 -11.167 77.166 -33.5 101.499s-53.166 36.5 -92.499 36.5c-40 0 -71 -12 -93 -36s-33 -58 -33 -102v-110c0 -44 11 -78 33 -102s53 -36 93 -36zM408.001 880.001l-84 -235h-109l126 235h67z" />
    <glyph glyph-name="Hcircumflex" unicode="&#x124;" 
d="M98 0v730h79v-316h246v316h79v-730h-79v341h-246v-341h-79zM127 810l134 140h77l135 -140h-86l-87 86l-85 -86h-88z" />
    <glyph glyph-name="hcircumflex" unicode="&#x125;" 
d="M97 0l-0.000976562 730h79v-172v-106h20l-22 -32c0 44 13.5 78.333 40.5 103s63.833 37 110.5 37c54.667 0 98.334 -17.167 131.001 -51.5s49 -80.833 49 -139.5v-369h-79v360c0 42 -11 74.667 -33 98s-52 35 -90 35c-39.333 0 -70.333 -12.333 -93 -37s-34 -59 -34 -103
v-353h-79zM-23.001 805l134 140h77l135 -140h-86l-87 86l-85 -86h-88z" />
    <glyph glyph-name="Hbar" unicode="&#x126;" 
d="M10 529v67h580v-67h-580zM98 0v730h79v-316h246v316h79v-730h-79v341h-246v-341h-79z" />
    <glyph glyph-name="hbar" unicode="&#x127;" 
d="M2 574l-0.000976562 67h95v89h79v-89h171v-67h-171v-84v-98h2c6.66699 34 22.667 60.5 48 79.5s58.333 28.5 99 28.5c54.667 0 98.334 -17 131.001 -51s49 -80.667 49 -140v-309h-79v300c0 42 -11 74.667 -33 98s-52 35 -90 35c-39.333 0 -70.333 -12.333 -93 -37
s-34 -59 -34 -103v-293h-79v574h-95z" />
    <glyph glyph-name="Itilde" unicode="&#x128;" 
d="M109 0v72h151v586h-151v72h382v-72h-150v-586h150v-72h-382zM371 815c-19.333 0 -35.3311 3.83301 -47.998 11.5s-23.5 16.5 -32.5 26.5s-17.833 18.833 -26.5 26.5s-18.667 11.5 -30 11.5c-10.667 0 -19.334 -3.33301 -26.001 -10s-10 -16.667 -10 -30v-31h-58v31
c0 30 8.16699 53.167 24.5 69.5s38.166 24.5 65.499 24.5c19.333 0 35.5 -3.83301 48.5 -11.5s24 -16.5 33 -26.5s17.667 -18.833 26 -26.5s18.5 -11.5 30.5 -11.5c10.667 0 19 3.33301 25 10s9 16.667 9 30v31h58v-31c0 -30 -8 -53.167 -24 -69.5s-37.667 -24.5 -65 -24.5z
" />
    <glyph glyph-name="itilde" unicode="&#x129;" 
d="M88 0v72h196v406h-171v72h251v-478h186v-72h-462zM386 650c-19.333 0 -35.3311 3.83301 -47.998 11.5s-23.5 16.5 -32.5 26.5s-17.833 18.833 -26.5 26.5s-18.667 11.5 -30 11.5c-10.667 0 -19.334 -3.33301 -26.001 -10s-10 -16.667 -10 -30v-31h-58v31
c0 30 8.16699 53.167 24.5 69.5s38.166 24.5 65.499 24.5c19.333 0 35.5 -3.83301 48.5 -11.5s24 -16.5 33 -26.5s17.667 -18.833 26 -26.5s18.5 -11.5 30.5 -11.5c10.667 0 19 3.33301 25 10s9 16.667 9 30v31h58v-31c0 -30 -8 -53.167 -24 -69.5s-37.667 -24.5 -65 -24.5z
" />
    <glyph glyph-name="Imacron" unicode="&#x12a;" 
d="M109 0v72h151v586h-151v72h382v-72h-150v-586h150v-72h-382zM145 844v66h310v-66h-310z" />
    <glyph glyph-name="imacron" unicode="&#x12b;" 
d="M88 0v72h196v406h-171v72h251v-478h186v-72h-462zM160 674v66h310v-66h-310z" />
    <glyph glyph-name="Ibreve" unicode="&#x12c;" 
d="M109 0v72h151v586h-151v72h382v-72h-150v-586h150v-72h-382zM300 806c-47.333 0 -85.1689 13.167 -113.502 39.5s-42.5 61.166 -42.5 104.499h64c0 -27.333 8.16699 -49.333 24.5 -66s38.5 -25 66.5 -25c28.667 0 51.334 8.33301 68.001 25s25 38.667 25 66h64
c0 -43.333 -14.167 -78.166 -42.5 -104.499s-66.166 -39.5 -113.499 -39.5z" />
    <glyph glyph-name="ibreve" unicode="&#x12d;" 
d="M88 0v72h196v406h-171v72h251v-478h186v-72h-462zM315 641c-47.333 0 -85.1689 13.167 -113.502 39.5s-42.5 61.166 -42.5 104.499h64c0 -27.333 8.16699 -49.333 24.5 -66s38.5 -25 66.5 -25c28.667 0 51.334 8.33301 68.001 25s25 38.667 25 66h64
c0 -43.333 -14.167 -78.166 -42.5 -104.499s-66.166 -39.5 -113.499 -39.5z" />
    <glyph glyph-name="Iogonek" unicode="&#x12e;" 
d="M306 -201c-34.667 0 -62.333 8.33203 -83 24.999s-31 38.334 -31 65.001c0 19.333 6.66699 39 20 59s35 40.667 65 62h65l-11 -9c-22 -18.667 -38.167 -36 -48.5 -52s-15.5 -31 -15.5 -45c0 -14.667 5 -26.667 15 -36s23 -14 39 -14h61v-55h-76zM109.001 -0.000976562v72
h151v586h-151v72h382v-72h-150v-586h150v-72h-382z" />
    <glyph glyph-name="iogonek" unicode="&#x12f;" 
d="M321 -201c-34.667 0 -62.333 8.33203 -83 24.999s-31 38.334 -31 65.001c0 19.333 6.66699 39 20 59s35 40.667 65 62h65l-11 -9c-22 -18.667 -38.167 -36 -48.5 -52s-15.5 -31 -15.5 -45c0 -14.667 5 -26.667 15 -36s23 -14 39 -14h61v-55h-76zM88.001 -0.000976562v72
h196v406h-171v72h251v-478h186v-72h-462zM315.001 650.999c-20.667 0 -37.167 5.33203 -49.5 15.999s-18.5 25.334 -18.5 44.001c0 19.333 6.16699 34.666 18.5 45.999s28.833 17 49.5 17s37.167 -5.66699 49.5 -17s18.5 -26.666 18.5 -45.999
c0 -18 -6.16699 -32.5 -18.5 -43.5s-28.833 -16.5 -49.5 -16.5z" />
    <glyph glyph-name="Idotaccent" unicode="&#x130;" 
d="M109 0v72h151v586h-151v72h382v-72h-150v-586h150v-72h-382zM300 818c-20.667 0 -37.167 5.66699 -49.5 17s-18.5 26.333 -18.5 45s6.16699 33.667 18.5 45s28.833 17 49.5 17s37.167 -5.66699 49.5 -17s18.5 -26.333 18.5 -45s-6.16699 -33.667 -18.5 -45
s-28.833 -17 -49.5 -17z" />
    <glyph glyph-name="dotlessi" unicode="&#x131;" 
d="M88 0v72h196v406h-171v72h251v-478h186v-72h-462z" />
    <glyph glyph-name="Jcircumflex" unicode="&#x134;" 
d="M271 -10c-68 0 -121.5 19.333 -160.5 58s-58.5 91.667 -58.5 159h79c0 -46 12.333 -81.833 37 -107.5s59 -38.5 103 -38.5s78.5 12.833 103.5 38.5s37.5 61.5 37.5 107.5v450h-179v73h258v-523c0 -67.333 -19.667 -120.333 -59 -159s-93 -58 -161 -58zM187 810l134 140
h77l135 -140h-86l-87 86l-85 -86h-88z" />
    <glyph glyph-name="jcircumflex" unicode="&#x135;" 
d="M88 -180l0.000976562 73h130c43.333 0 76.666 11.5 99.999 34.5s35 55.5 35 97.5v453h-236v72h315v-525c0 -62.667 -19.167 -112.5 -57.5 -149.5s-90.5 -55.5 -156.5 -55.5h-130zM154.001 645l134 140h77l135 -140h-86l-87 86l-85 -86h-88z" />
    <glyph glyph-name="uni0136" unicode="&#x136;" 
d="M97 0v730h79v-317h120l162 317h87l-179 -350l189 -380h-92l-169 343h-118v-343h-79zM197 -240l93 145h95l-105 -145h-83z" />
    <glyph glyph-name="uni0137" unicode="&#x137;" 
d="M100 0v730h79v-411h113l163 231h92l-185 -262l188 -288h-93l-164 250h-114v-250h-79zM197 -240l93 145h95l-105 -145h-83z" />
    <glyph glyph-name="kgreenlandic" unicode="&#x138;" 
d="M101 0v550h80v-231h104l163 231h91l-185 -262l189 -288h-93l-165 250h-104v-250h-80z" />
    <glyph glyph-name="Lacute" unicode="&#x139;" 
d="M116 0v730h80v-658h336v-72h-416zM105 810l106 140h87l-112 -140h-81z" />
    <glyph glyph-name="lacute" unicode="&#x13a;" 
d="M372 0c-31.333 0 -58.499 6 -81.499 18s-40.833 29.333 -53.5 52s-19 49.334 -19 80.001v508h-183v72h262v-580c0 -24.667 6.66699 -43.834 20 -57.501s31.666 -20.5 54.999 -20.5h175v-72h-175zM198.001 810l106 140h87l-112 -140h-81z" />
    <glyph glyph-name="uni013B" unicode="&#x13b;" 
d="M116 0v730h80v-658h336v-72h-416zM217 -240l93 145h95l-105 -145h-83z" />
    <glyph glyph-name="uni013C" unicode="&#x13c;" 
d="M372 0c-31.333 0 -58.499 6 -81.499 18s-40.833 29.333 -53.5 52s-19 49.334 -19 80.001v508h-183v72h262v-580c0 -24.667 6.66699 -43.834 20 -57.501s31.666 -20.5 54.999 -20.5h175v-72h-175zM217.001 -240l93 145h95l-105 -145h-83z" />
    <glyph glyph-name="Lcaron" unicode="&#x13d;" 
d="M116 0v730h80v-658h336v-72h-416zM357 550l10 180h76l-20 -180h-66z" />
    <glyph glyph-name="lcaron" unicode="&#x13e;" 
d="M372 0c-31.333 0 -58.499 6 -81.499 18s-40.833 29.333 -53.5 52s-19 49.334 -19 80.001v508h-183v72h262v-580c0 -24.667 6.66699 -43.834 20 -57.501s31.666 -20.5 54.999 -20.5h175v-72h-175zM450.001 550l10 180h76l-20 -180h-66z" />
    <glyph glyph-name="Ldot" unicode="&#x13f;" 
d="M116 0v730h80v-658h336v-72h-416zM444 261c-24.667 0 -44.167 7.16699 -58.5 21.5s-21.5 33.5 -21.5 57.5c0 25.333 7.16699 45.333 21.5 60s33.833 22 58.5 22s44.167 -7.33301 58.5 -22s21.5 -34.667 21.5 -60c0 -24 -7.16699 -43.167 -21.5 -57.5
s-33.833 -21.5 -58.5 -21.5z" />
    <glyph glyph-name="ldot" unicode="&#x140;" 
d="M352 0c-31.333 0 -58.499 6 -81.499 18s-40.833 29.333 -53.5 52s-19 49.334 -19 80.001v508h-183v72h262v-580c0 -24.667 6.66699 -43.834 20 -57.501s31.666 -20.5 54.999 -20.5h175v-72h-175zM548.001 261c-24.667 0 -44.167 7.16699 -58.5 21.5
s-21.5 33.5 -21.5 57.5c0 25.333 7.16699 45.333 21.5 60s33.833 22 58.5 22s44.167 -7.33301 58.5 -22s21.5 -34.667 21.5 -60c0 -24 -7.16699 -43.167 -21.5 -57.5s-33.833 -21.5 -58.5 -21.5z" />
    <glyph glyph-name="Lslash" unicode="&#x141;" 
d="M20 233v73l370 251v-73zM119 0v730h79v-658h337v-72h-416z" />
    <glyph glyph-name="lslash" unicode="&#x142;" 
d="M100 233v73l370 251v-73zM372 0c-31.333 0 -58.499 6 -81.499 18s-40.833 29.333 -53.5 52s-19 49.334 -19 80.001v508h-183v72h262v-580c0 -24.667 6.66699 -43.834 20 -57.501s31.666 -20.5 54.999 -20.5h175v-72h-175z" />
    <glyph glyph-name="Nacute" unicode="&#x143;" 
d="M95 0v730.003h106l235 -638c-0.666992 15.333 -1.66699 34.166 -3 56.499s-2.5 45.166 -3.5 68.499s-1.5 44.333 -1.5 63v450h77v-730h-107l-233 638c1.33301 -13.333 2.33301 -30.5 3 -51.5s1.5 -43.333 2.5 -67s1.5 -46.834 1.5 -69.501v-450h-77zM248 810.003l106 140
h87l-112 -140h-81z" />
    <glyph glyph-name="nacute" unicode="&#x144;" 
d="M97 0l-0.000976562 550h79v-102h20l-22 -29c0 44 13.5 78.5 40.5 103.5s63.833 37.5 110.5 37.5c54.667 0 98.334 -17.167 131.001 -51.5s49 -80.833 49 -139.5v-369h-79v360c0 42 -11 74.333 -33 97s-52 34 -90 34c-39.333 0 -70.333 -12 -93 -36s-34 -58 -34 -102v-353
h-79zM255.999 645l106 140h87l-112 -140h-81z" />
    <glyph glyph-name="uni0145" unicode="&#x145;" 
d="M95 0v730.003h106l235 -638c-0.666992 15.333 -1.66699 34.166 -3 56.499s-2.5 45.166 -3.5 68.499s-1.5 44.333 -1.5 63v450h77v-730h-107l-233 638c1.33301 -13.333 2.33301 -30.5 3 -51.5s1.5 -43.333 2.5 -67s1.5 -46.834 1.5 -69.501v-450h-77zM197 -239.997l93 145
h95l-105 -145h-83z" />
    <glyph glyph-name="uni0146" unicode="&#x146;" 
d="M97 0l-0.000976562 550h79v-102h20l-22 -29c0 44 13.5 78.5 40.5 103.5s63.833 37.5 110.5 37.5c54.667 0 98.334 -17.167 131.001 -51.5s49 -80.833 49 -139.5v-369h-79v360c0 42 -11 74.333 -33 97s-52 34 -90 34c-39.333 0 -70.333 -12 -93 -36s-34 -58 -34 -102v-353
h-79zM196.999 -240l93 145h95l-105 -145h-83z" />
    <glyph glyph-name="Ncaron" unicode="&#x147;" 
d="M95 0v730.003h106l235 -638c-0.666992 15.333 -1.66699 34.166 -3 56.499s-2.5 45.166 -3.5 68.499s-1.5 44.333 -1.5 63v450h77v-730h-107l-233 638c1.33301 -13.333 2.33301 -30.5 3 -51.5s1.5 -43.333 2.5 -67s1.5 -46.834 1.5 -69.501v-450h-77zM262 810.003
l-135 140h86l88 -86l85 86h87l-134 -140h-77z" />
    <glyph glyph-name="ncaron" unicode="&#x148;" 
d="M97 0l-0.000976562 550h79v-102h20l-22 -29c0 44 13.5 78.5 40.5 103.5s63.833 37.5 110.5 37.5c54.667 0 98.334 -17.167 131.001 -51.5s49 -80.833 49 -139.5v-369h-79v360c0 42 -11 74.333 -33 97s-52 34 -90 34c-39.333 0 -70.333 -12 -93 -36s-34 -58 -34 -102v-353
h-79zM266.999 645l-135 140h86l88 -86l85 86h87l-134 -140h-77z" />
    <glyph glyph-name="napostrophe" unicode="&#x149;" 
d="M97 0l-0.000976562 550h79v-102h20l-22 -29c0 44 13.5 78.5 40.5 103.5s63.833 37.5 110.5 37.5c54.667 0 98.334 -17.167 131.001 -51.5s49 -80.833 49 -139.5v-369h-79v360c0 42 -11 74.333 -33 97s-52 34 -90 34c-39.333 0 -70.333 -12 -93 -36s-34 -58 -34 -102v-353
h-79zM6.99902 645l93 145h95l-105 -145h-83z" />
    <glyph glyph-name="Eng" unicode="&#x14a;" 
d="M237 -180l0.000976562 72.002h69c37.333 0 66.666 10.5 87.999 31.5s32 50.167 32 87.5l-261 627l2.5 -51.5c1 -21 2 -43.333 3 -67s1.5 -46.834 1.5 -69.501v-450h-77v730h106l236 -572c-1.33301 14 -2.66602 31.667 -3.99902 53s-2.5 44.166 -3.5 68.499
s-1.5 47.833 -1.5 70.5v380h77v-719c0 -38.667 -8.16699 -72.5 -24.5 -101.5s-39.333 -51.167 -69 -66.5s-64.834 -23 -105.501 -23h-69z" />
    <glyph glyph-name="eng" unicode="&#x14b;" 
d="M241 -180l0.000976562 71.999h57c39.333 0 70.166 11 92.499 33s33.5 52 33.5 90v345c0 42 -10.667 74.667 -32 98s-51 35 -89 35c-39.333 0 -70 -12.333 -92 -37s-33 -59 -33 -103v-353h-80v550h80v-102h20l-22 -29c0 44 13.167 78.5 39.5 103.5s62.833 37.5 109.5 37.5
c54.667 0 98.167 -17.167 130.5 -51.5s48.5 -80.833 48.5 -139.5v-354c0 -39.333 -8.5 -73.666 -25.5 -102.999s-40.833 -52 -71.5 -68s-67 -24 -109 -24h-57z" />
    <glyph glyph-name="Omacron" unicode="&#x14c;" 
d="M300 -10c-42.667 0 -79.5 8.33301 -110.5 25s-54.833 40.5 -71.5 71.5s-25 67.833 -25 110.5v336c0 42.667 8.33301 79.5 25 110.5s40.5 54.833 71.5 71.5s67.833 25 110.5 25s79.5 -8.33301 110.5 -25s54.833 -40.5 71.5 -71.5s25 -67.833 25 -110.5v-336
c0 -42.667 -8.33301 -79.5 -25 -110.5s-40.5 -54.833 -71.5 -71.5s-67.833 -25 -110.5 -25zM300 61c41.333 0 73 11.833 95 35.5s33 57.167 33 100.5v336c0 43.333 -11.167 76.833 -33.5 100.5s-53.833 35.5 -94.5 35.5s-72.167 -11.833 -94.5 -35.5
s-33.5 -57.167 -33.5 -100.5v-336c0 -43.333 11.167 -76.833 33.5 -100.5s53.833 -35.5 94.5 -35.5zM145 844v66h310v-66h-310z" />
    <glyph glyph-name="omacron" unicode="&#x14d;" 
d="M300 -9c-42.667 0 -79.667 8.33301 -111 25s-55.666 40.667 -72.999 72s-26 68.333 -26 111v152c0 43.333 8.66699 80.5 26 111.5s41.666 54.833 72.999 71.5s68.333 25 111 25s79.667 -8.33301 111 -25s55.666 -40.5 72.999 -71.5s26 -67.833 26 -110.5v-153
c0 -42.667 -8.66699 -79.667 -26 -111s-41.666 -55.333 -72.999 -72s-68.333 -25 -111 -25zM300 62c41.333 0 73.333 11.667 96 35s34 57.333 34 102v152c0 44.667 -11.5 78.667 -34.5 102s-54.833 35 -95.5 35s-72.5 -11.667 -95.5 -35s-34.5 -57.333 -34.5 -102v-152
c0 -44.667 11.5 -78.667 34.5 -102s54.833 -35 95.5 -35zM145 674v66h310v-66h-310z" />
    <glyph glyph-name="Obreve" unicode="&#x14e;" 
d="M300 -10c-42.667 0 -79.5 8.33301 -110.5 25s-54.833 40.5 -71.5 71.5s-25 67.833 -25 110.5v336c0 42.667 8.33301 79.5 25 110.5s40.5 54.833 71.5 71.5s67.833 25 110.5 25s79.5 -8.33301 110.5 -25s54.833 -40.5 71.5 -71.5s25 -67.833 25 -110.5v-336
c0 -42.667 -8.33301 -79.5 -25 -110.5s-40.5 -54.833 -71.5 -71.5s-67.833 -25 -110.5 -25zM300 61c41.333 0 73 11.833 95 35.5s33 57.167 33 100.5v336c0 43.333 -11.167 76.833 -33.5 100.5s-53.833 35.5 -94.5 35.5s-72.167 -11.833 -94.5 -35.5
s-33.5 -57.167 -33.5 -100.5v-336c0 -43.333 11.167 -76.833 33.5 -100.5s53.833 -35.5 94.5 -35.5zM300 806c-47.333 0 -85.1689 13.167 -113.502 39.5s-42.5 61.166 -42.5 104.499h64c0 -27.333 8.16699 -49.333 24.5 -66s38.5 -25 66.5 -25
c28.667 0 51.334 8.33301 68.001 25s25 38.667 25 66h64c0 -43.333 -14.167 -78.166 -42.5 -104.499s-66.166 -39.5 -113.499 -39.5z" />
    <glyph glyph-name="obreve" unicode="&#x14f;" 
d="M300 -9c-42.667 0 -79.667 8.33301 -111 25s-55.666 40.667 -72.999 72s-26 68.333 -26 111v152c0 43.333 8.66699 80.5 26 111.5s41.666 54.833 72.999 71.5s68.333 25 111 25s79.667 -8.33301 111 -25s55.666 -40.5 72.999 -71.5s26 -67.833 26 -110.5v-153
c0 -42.667 -8.66699 -79.667 -26 -111s-41.666 -55.333 -72.999 -72s-68.333 -25 -111 -25zM300 62c41.333 0 73.333 11.667 96 35s34 57.333 34 102v152c0 44.667 -11.5 78.667 -34.5 102s-54.833 35 -95.5 35s-72.5 -11.667 -95.5 -35s-34.5 -57.333 -34.5 -102v-152
c0 -44.667 11.5 -78.667 34.5 -102s54.833 -35 95.5 -35zM300 641c-47.333 0 -85.1689 13.167 -113.502 39.5s-42.5 61.166 -42.5 104.499h64c0 -27.333 8.16699 -49.333 24.5 -66s38.5 -25 66.5 -25c28.667 0 51.334 8.33301 68.001 25s25 38.667 25 66h64
c0 -43.333 -14.167 -78.166 -42.5 -104.499s-66.166 -39.5 -113.499 -39.5z" />
    <glyph glyph-name="Ohungarumlaut" unicode="&#x150;" 
d="M300 -10c-42.667 0 -79.5 8.33301 -110.5 25s-54.833 40.5 -71.5 71.5s-25 67.833 -25 110.5v336c0 42.667 8.33301 79.5 25 110.5s40.5 54.833 71.5 71.5s67.833 25 110.5 25s79.5 -8.33301 110.5 -25s54.833 -40.5 71.5 -71.5s25 -67.833 25 -110.5v-336
c0 -42.667 -8.33301 -79.5 -25 -110.5s-40.5 -54.833 -71.5 -71.5s-67.833 -25 -110.5 -25zM300 61c41.333 0 73 11.833 95 35.5s33 57.167 33 100.5v336c0 43.333 -11.167 76.833 -33.5 100.5s-53.833 35.5 -94.5 35.5s-72.167 -11.833 -94.5 -35.5
s-33.5 -57.167 -33.5 -100.5v-336c0 -43.333 11.167 -76.833 33.5 -100.5s53.833 -35.5 94.5 -35.5zM328 810l109 140h83l-114 -140h-78zM155 810l109 140h83l-115 -140h-77z" />
    <glyph glyph-name="ohungarumlaut" unicode="&#x151;" 
d="M300 -9c-42.667 0 -79.667 8.33301 -111 25s-55.666 40.667 -72.999 72s-26 68.333 -26 111v152c0 43.333 8.66699 80.5 26 111.5s41.666 54.833 72.999 71.5s68.333 25 111 25s79.667 -8.33301 111 -25s55.666 -40.5 72.999 -71.5s26 -67.833 26 -110.5v-153
c0 -42.667 -8.66699 -79.667 -26 -111s-41.666 -55.333 -72.999 -72s-68.333 -25 -111 -25zM300 62c41.333 0 73.333 11.667 96 35s34 57.333 34 102v152c0 44.667 -11.5 78.667 -34.5 102s-54.833 35 -95.5 35s-72.5 -11.667 -95.5 -35s-34.5 -57.333 -34.5 -102v-152
c0 -44.667 11.5 -78.667 34.5 -102s54.833 -35 95.5 -35zM328 645l109 140h83l-114 -140h-78zM155 645l109 140h83l-115 -140h-77z" />
    <glyph glyph-name="OE" unicode="&#x152;" 
d="M195 -10c-31.333 0 -58.666 7.66895 -81.999 23.002s-41.333 37.166 -54 65.499s-19 61.5 -19 99.5v374c0 38.667 6.33301 72 19 100s30.667 49.667 54 65s50.666 23 81.999 23c23.333 0 42.833 -4.83301 58.5 -14.5s28 -21.334 37 -35.001s14.833 -27.167 17.5 -40.5h5
v80h260v-73h-181v-243h153v-74h-153v-267h181v-73h-260v80h-5c-2.66699 -12.667 -8.5 -26 -17.5 -40s-21.333 -25.833 -37 -35.5s-35.167 -14.5 -58.5 -14.5zM217 62.002c29.333 0 52.666 10.333 69.999 31s26 49 26 85v374c0 36 -8.66699 64.333 -26 85
s-40.666 31 -69.999 31c-30 0 -53.5 -10.5 -70.5 -31.5s-25.5 -49.167 -25.5 -84.5v-374c0 -35.333 8.5 -63.5 25.5 -84.5s40.5 -31.5 70.5 -31.5z" />
    <glyph glyph-name="oe" unicode="&#x153;" 
d="M178 -10c-44 0 -78.833 14.166 -104.5 42.499s-38.5 66.5 -38.5 114.5v255c0 48.667 13 87.167 39 115.5s61.333 42.5 106 42.5c26.667 0 48.5 -4.5 65.5 -13.5s30 -19.667 39 -32s13.833 -24.5 14.5 -36.5h4c1.33301 12 6.33301 24.167 15 36.5s21.5 23 38.5 32
s38.5 13.5 64.5 13.5c44 0 79 -14.167 105 -42.5s39 -66.5 39 -114.5v-150h-226v-106c0 -26.667 6.66699 -48.167 20 -64.5s31.333 -24.5 54 -24.5c20 0 37 6.16699 51 18.5s22.333 28.5 25 48.5h75c-5.33301 -41.333 -20.833 -74.166 -46.5 -98.499
s-57.5 -36.5 -95.5 -36.5c-26.667 0 -48.5 4.33301 -65.5 13s-29.833 19.334 -38.5 32.001s-13.667 24.667 -15 36h-4c-1.33301 -11.333 -6.5 -23.333 -15.5 -36s-22 -23.334 -39 -32.001s-39.167 -13 -66.5 -13zM188 57.999c22.667 0 40.834 8.16602 54.501 24.499
s20.5 37.833 20.5 64.5v256c0 26.667 -6.83301 48.167 -20.5 64.5s-31.834 24.5 -54.501 24.5c-23.333 0 -42 -8.16699 -56 -24.5s-21 -38.166 -21 -65.499v-255c0 -26.667 7 -48.167 21 -64.5s32.667 -24.5 56 -24.5zM339 319.998h150v83
c0 26.667 -6.83301 48.167 -20.5 64.5s-32.167 24.5 -55.5 24.5c-22.667 0 -40.667 -8.16699 -54 -24.5s-20 -37.833 -20 -64.5v-83z" />
    <glyph glyph-name="Racute" unicode="&#x154;" 
d="M97 0l0.000976562 730h220c43.333 0 81.166 -8.66699 113.499 -26s57.333 -41.5 75 -72.5s26.5 -67.5 26.5 -109.5c0 -50 -13.333 -92.667 -40 -128s-63 -59 -109 -71l158 -323h-94l-146 315h-125v-315h-79zM176.001 387l141 0.000976562c40.667 0 73.167 12.333 97.5 37
s36.5 57.667 36.5 99s-12.167 74.166 -36.5 98.499s-56.833 36.5 -97.5 36.5h-141v-271zM248.001 810.001l106 140h87l-112 -140h-81z" />
    <glyph glyph-name="racute" unicode="&#x155;" 
d="M115 0l-0.000976562 549.999h78v-102h19l-28 -63c0.666992 56 14.334 99.167 41.001 129.5s65 45.5 115 45.5c58 0 104.167 -18.167 138.5 -54.5s51.5 -85.166 51.5 -146.499v-33h-81v27c0 44.667 -11 79.167 -33 103.5s-53.333 36.5 -94 36.5
c-39.333 0 -70.333 -12.333 -93 -37s-34 -59 -34 -103v-353h-80zM270.999 644.999l106 140h87l-112 -140h-81z" />
    <glyph glyph-name="uni0156" unicode="&#x156;" 
d="M97 0l0.000976562 730h220c43.333 0 81.166 -8.66699 113.499 -26s57.333 -41.5 75 -72.5s26.5 -67.5 26.5 -109.5c0 -50 -13.333 -92.667 -40 -128s-63 -59 -109 -71l158 -323h-94l-146 315h-125v-315h-79zM176.001 387l141 0.000976562c40.667 0 73.167 12.333 97.5 37
s36.5 57.667 36.5 99s-12.167 74.166 -36.5 98.499s-56.833 36.5 -97.5 36.5h-141v-271zM197.001 -239.999l93 145h95l-105 -145h-83z" />
    <glyph glyph-name="uni0157" unicode="&#x157;" 
d="M115 0l-0.000976562 549.999h78v-102h19l-28 -63c0.666992 56 14.334 99.167 41.001 129.5s65 45.5 115 45.5c58 0 104.167 -18.167 138.5 -54.5s51.5 -85.166 51.5 -146.499v-33h-81v27c0 44.667 -11 79.167 -33 103.5s-53.333 36.5 -94 36.5
c-39.333 0 -70.333 -12.333 -93 -37s-34 -59 -34 -103v-353h-80zM31.999 -240.001l93 145h95l-105 -145h-83z" />
    <glyph glyph-name="Rcaron" unicode="&#x158;" 
d="M97 0l0.000976562 730h220c43.333 0 81.166 -8.66699 113.499 -26s57.333 -41.5 75 -72.5s26.5 -67.5 26.5 -109.5c0 -50 -13.333 -92.667 -40 -128s-63 -59 -109 -71l158 -323h-94l-146 315h-125v-315h-79zM176.001 387l141 0.000976562c40.667 0 73.167 12.333 97.5 37
s36.5 57.667 36.5 99s-12.167 74.166 -36.5 98.499s-56.833 36.5 -97.5 36.5h-141v-271zM262.001 810.001l-135 140h86l88 -86l85 86h87l-134 -140h-77z" />
    <glyph glyph-name="rcaron" unicode="&#x159;" 
d="M115 0l-0.000976562 549.999h78v-102h19l-28 -63c0.666992 56 14.334 99.167 41.001 129.5s65 45.5 115 45.5c58 0 104.167 -18.167 138.5 -54.5s51.5 -85.166 51.5 -146.499v-33h-81v27c0 44.667 -11 79.167 -33 103.5s-53.333 36.5 -94 36.5
c-39.333 0 -70.333 -12.333 -93 -37s-34 -59 -34 -103v-353h-80zM281.999 644.999l-135 140h86l88 -86l85 86h87l-134 -140h-77z" />
    <glyph glyph-name="Sacute" unicode="&#x15a;" 
d="M304 -10c-46.667 0 -86.999 7.99805 -120.999 23.998s-60.333 38.833 -79 68.5s-28.334 65.167 -29.001 106.5h80c0 -39.333 13.333 -70.5 40 -93.5s63 -34.5 109 -34.5c44 0 78.5 11 103.5 33s37.5 52.333 37.5 91c0 32 -8.66699 59.833 -26 83.5
s-41.666 40.167 -72.999 49.5l-95 30c-50 14.667 -88.5 39.834 -115.5 75.501s-40.5 77.5 -40.5 125.5c0 39.333 8.66699 73.166 26 101.499s41.833 50.5 73.5 66.5s68.834 24 111.501 24c63.333 0 114 -17.667 152 -53s57 -82.666 57 -141.999h-79c0 38 -11.667 68 -35 90
s-55.333 33 -96 33s-72.5 -9.83301 -95.5 -29.5s-34.5 -47.5 -34.5 -83.5c0 -31.333 8.66699 -58.666 26 -81.999s41.666 -40 72.999 -50l95 -30c49.333 -15.333 87.666 -41.333 114.999 -78s41 -79.667 41 -129c0 -39.333 -9.16699 -73.833 -27.5 -103.5
s-44 -52.667 -77 -69s-71.833 -24.5 -116.5 -24.5zM248.001 809.998l106 140h87l-112 -140h-81z" />
    <glyph glyph-name="sacute" unicode="&#x15b;" 
d="M280 -9c-36 0 -67.6689 5.99805 -95.002 17.998s-49 28.833 -65 50.5s-25.667 46.834 -29 75.501h79c4.66699 -22 16.5 -39.667 35.5 -53s43.833 -20 74.5 -20h49c35.333 0 62.166 7.83301 80.499 23.5s27.5 36.5 27.5 62.5c0 24.667 -8 44.667 -24 60s-39 25.333 -69 30
l-83 13c-52 8.66699 -91.167 25.334 -117.5 50.001s-39.5 59.334 -39.5 104.001c0 48.667 15.833 86.5 47.5 113.5s77.5 40.5 137.5 40.5h39c52 0 93.833 -12.333 125.5 -37s50.834 -58 57.501 -100h-80c-4 20 -14.833 36 -32.5 48s-41.167 18 -70.5 18h-39
c-35.333 0 -61.666 -7.16699 -78.999 -21.5s-26 -34.833 -26 -61.5c0 -24 7.33301 -42.167 22 -54.5s37 -20.833 67 -25.5l82 -13c54.667 -8.66699 95.334 -25.834 122.001 -51.501s40 -61.5 40 -107.5c0 -50 -16 -89.5 -48 -118.5s-78.667 -43.5 -140 -43.5h-49z
M260.998 644.998l106 140h87l-112 -140h-81z" />
    <glyph glyph-name="Scircumflex" unicode="&#x15c;" 
d="M304 -10c-46.667 0 -86.999 7.99805 -120.999 23.998s-60.333 38.833 -79 68.5s-28.334 65.167 -29.001 106.5h80c0 -39.333 13.333 -70.5 40 -93.5s63 -34.5 109 -34.5c44 0 78.5 11 103.5 33s37.5 52.333 37.5 91c0 32 -8.66699 59.833 -26 83.5
s-41.666 40.167 -72.999 49.5l-95 30c-50 14.667 -88.5 39.834 -115.5 75.501s-40.5 77.5 -40.5 125.5c0 39.333 8.66699 73.166 26 101.499s41.833 50.5 73.5 66.5s68.834 24 111.501 24c63.333 0 114 -17.667 152 -53s57 -82.666 57 -141.999h-79c0 38 -11.667 68 -35 90
s-55.333 33 -96 33s-72.5 -9.83301 -95.5 -29.5s-34.5 -47.5 -34.5 -83.5c0 -31.333 8.66699 -58.666 26 -81.999s41.666 -40 72.999 -50l95 -30c49.333 -15.333 87.666 -41.333 114.999 -78s41 -79.667 41 -129c0 -39.333 -9.16699 -73.833 -27.5 -103.5
s-44 -52.667 -77 -69s-71.833 -24.5 -116.5 -24.5zM127.001 809.998l134 140h77l135 -140h-86l-87 86l-85 -86h-88z" />
    <glyph glyph-name="scircumflex" unicode="&#x15d;" 
d="M280 -9c-36 0 -67.6689 5.99805 -95.002 17.998s-49 28.833 -65 50.5s-25.667 46.834 -29 75.501h79c4.66699 -22 16.5 -39.667 35.5 -53s43.833 -20 74.5 -20h49c35.333 0 62.166 7.83301 80.499 23.5s27.5 36.5 27.5 62.5c0 24.667 -8 44.667 -24 60s-39 25.333 -69 30
l-83 13c-52 8.66699 -91.167 25.334 -117.5 50.001s-39.5 59.334 -39.5 104.001c0 48.667 15.833 86.5 47.5 113.5s77.5 40.5 137.5 40.5h39c52 0 93.833 -12.333 125.5 -37s50.834 -58 57.501 -100h-80c-4 20 -14.833 36 -32.5 48s-41.167 18 -70.5 18h-39
c-35.333 0 -61.666 -7.16699 -78.999 -21.5s-26 -34.833 -26 -61.5c0 -24 7.33301 -42.167 22 -54.5s37 -20.833 67 -25.5l82 -13c54.667 -8.66699 95.334 -25.834 122.001 -51.501s40 -61.5 40 -107.5c0 -50 -16 -89.5 -48 -118.5s-78.667 -43.5 -140 -43.5h-49z
M136.998 644.998l134 140h77l135 -140h-86l-87 86l-85 -86h-88z" />
    <glyph glyph-name="Scedilla" unicode="&#x15e;" 
d="M213 -201v50h73c14.667 0 26.667 4 36 12s14 16.333 14 25c0 12.667 -9.66699 23.5 -29 32.5s-45.666 13.5 -78.999 13.5l35 94h53l-22 -61c16.667 -1.33301 34.167 -5.33301 52.5 -12s33.666 -16 45.999 -28s18.5 -26.667 18.5 -44c0 -22.667 -10.5 -42 -31.5 -58
s-48.5 -24 -82.5 -24h-84zM304 -10c-46.667 0 -86.999 7.99805 -120.999 23.998s-60.333 38.833 -79 68.5s-28.334 65.167 -29.001 106.5h80c0 -39.333 13.333 -70.5 40 -93.5s63 -34.5 109 -34.5c44 0 78.5 11 103.5 33s37.5 52.333 37.5 91c0 32 -8.66699 59.833 -26 83.5
s-41.666 40.167 -72.999 49.5l-95 30c-50 14.667 -88.5 39.834 -115.5 75.501s-40.5 77.5 -40.5 125.5c0 39.333 8.66699 73.166 26 101.499s41.833 50.5 73.5 66.5s68.834 24 111.501 24c63.333 0 114 -17.667 152 -53s57 -82.666 57 -141.999h-79c0 38 -11.667 68 -35 90
s-55.333 33 -96 33s-72.5 -9.83301 -95.5 -29.5s-34.5 -47.5 -34.5 -83.5c0 -31.333 8.66699 -58.666 26 -81.999s41.666 -40 72.999 -50l95 -30c49.333 -15.333 87.666 -41.333 114.999 -78s41 -79.667 41 -129c0 -39.333 -9.16699 -73.833 -27.5 -103.5
s-44 -52.667 -77 -69s-71.833 -24.5 -116.5 -24.5z" />
    <glyph glyph-name="scedilla" unicode="&#x15f;" 
d="M216 -201v50h73c15.333 0 27.5 4 36.5 12s13.5 16.333 13.5 25c0 12.667 -9.5 23.5 -28.5 32.5s-45.5 13.5 -79.5 13.5l35 94h53l-22 -61c17.333 -1.33301 35 -5.33301 53 -12s33.333 -16 46 -28s19 -26.667 19 -44c0 -22.667 -10.5 -42 -31.5 -58s-48.833 -24 -83.5 -24
h-84zM280 -9c-36 0 -67.6689 5.99805 -95.002 17.998s-49 28.833 -65 50.5s-25.667 46.834 -29 75.501h79c4.66699 -22 16.5 -39.667 35.5 -53s43.833 -20 74.5 -20h49c35.333 0 62.166 7.83301 80.499 23.5s27.5 36.5 27.5 62.5c0 24.667 -8 44.667 -24 60
s-39 25.333 -69 30l-83 13c-52 8.66699 -91.167 25.334 -117.5 50.001s-39.5 59.334 -39.5 104.001c0 48.667 15.833 86.5 47.5 113.5s77.5 40.5 137.5 40.5h39c52 0 93.833 -12.333 125.5 -37s50.834 -58 57.501 -100h-80c-4 20 -14.833 36 -32.5 48s-41.167 18 -70.5 18
h-39c-35.333 0 -61.666 -7.16699 -78.999 -21.5s-26 -34.833 -26 -61.5c0 -24 7.33301 -42.167 22 -54.5s37 -20.833 67 -25.5l82 -13c54.667 -8.66699 95.334 -25.834 122.001 -51.501s40 -61.5 40 -107.5c0 -50 -16 -89.5 -48 -118.5s-78.667 -43.5 -140 -43.5h-49z" />
    <glyph glyph-name="Scaron" unicode="&#x160;" 
d="M304 -10c-46.667 0 -86.999 7.99805 -120.999 23.998s-60.333 38.833 -79 68.5s-28.334 65.167 -29.001 106.5h80c0 -39.333 13.333 -70.5 40 -93.5s63 -34.5 109 -34.5c44 0 78.5 11 103.5 33s37.5 52.333 37.5 91c0 32 -8.66699 59.833 -26 83.5
s-41.666 40.167 -72.999 49.5l-95 30c-50 14.667 -88.5 39.834 -115.5 75.501s-40.5 77.5 -40.5 125.5c0 39.333 8.66699 73.166 26 101.499s41.833 50.5 73.5 66.5s68.834 24 111.501 24c63.333 0 114 -17.667 152 -53s57 -82.666 57 -141.999h-79c0 38 -11.667 68 -35 90
s-55.333 33 -96 33s-72.5 -9.83301 -95.5 -29.5s-34.5 -47.5 -34.5 -83.5c0 -31.333 8.66699 -58.666 26 -81.999s41.666 -40 72.999 -50l95 -30c49.333 -15.333 87.666 -41.333 114.999 -78s41 -79.667 41 -129c0 -39.333 -9.16699 -73.833 -27.5 -103.5
s-44 -52.667 -77 -69s-71.833 -24.5 -116.5 -24.5zM262.001 809.998l-135 140h86l88 -86l85 86h87l-134 -140h-77z" />
    <glyph glyph-name="scaron" unicode="&#x161;" 
d="M280 -9c-36 0 -67.6689 5.99805 -95.002 17.998s-49 28.833 -65 50.5s-25.667 46.834 -29 75.501h79c4.66699 -22 16.5 -39.667 35.5 -53s43.833 -20 74.5 -20h49c35.333 0 62.166 7.83301 80.499 23.5s27.5 36.5 27.5 62.5c0 24.667 -8 44.667 -24 60s-39 25.333 -69 30
l-83 13c-52 8.66699 -91.167 25.334 -117.5 50.001s-39.5 59.334 -39.5 104.001c0 48.667 15.833 86.5 47.5 113.5s77.5 40.5 137.5 40.5h39c52 0 93.833 -12.333 125.5 -37s50.834 -58 57.501 -100h-80c-4 20 -14.833 36 -32.5 48s-41.167 18 -70.5 18h-39
c-35.333 0 -61.666 -7.16699 -78.999 -21.5s-26 -34.833 -26 -61.5c0 -24 7.33301 -42.167 22 -54.5s37 -20.833 67 -25.5l82 -13c54.667 -8.66699 95.334 -25.834 122.001 -51.501s40 -61.5 40 -107.5c0 -50 -16 -89.5 -48 -118.5s-78.667 -43.5 -140 -43.5h-49z
M271.998 644.998l-135 140h86l88 -86l85 86h87l-134 -140h-77z" />
    <glyph glyph-name="uni0162" unicode="&#x162;" 
d="M247 -201l0.00195312 50h72c15.333 0 27.666 4 36.999 12s14 16.333 14 25c0 12.667 -9.66699 23.5 -29 32.5s-46 13.5 -80 13.5l35 94l44 -26l-12 -35c16.667 -1.33301 34.167 -5.33301 52.5 -12s33.666 -16 45.999 -28s18.5 -26.667 18.5 -44
c0 -22.667 -10.5 -42 -31.5 -58s-48.833 -24 -83.5 -24h-83zM261.002 0v658h-205v73h488v-73h-204v-658h-79z" />
    <glyph glyph-name="uni0163" unicode="&#x163;" 
d="M266 -201v50h73c15.333 0 27.5 4 36.5 12s13.5 16.333 13.5 25c0 12.667 -9.5 23.5 -28.5 32.5s-45.5 13.5 -79.5 13.5l35 94h53l-22 -61c17.333 -1.33301 35 -5.33301 53 -12s33.333 -16 46 -28s19 -26.667 19 -44c0 -22.667 -10.5 -42 -31.5 -58s-48.833 -24 -83.5 -24
h-84zM360 0c-46 0 -81.667 12.167 -107 36.5s-38 58.833 -38 103.5v338h-156v72h156v155h80v-155h221v-72h-221v-338c0 -45.333 21.667 -68 65 -68h146v-72h-146z" />
    <glyph glyph-name="Tcaron" unicode="&#x164;" 
d="M261 0v658h-205v73h488v-73h-204v-658h-79zM262 810l-135 140h86l88 -86l85 86h87l-134 -140h-77z" />
    <glyph glyph-name="tcaron" unicode="&#x165;" 
d="M377 620l87 156h83l-100 -156h-70zM360 0c-46 0 -81.667 12.167 -107 36.5s-38 58.833 -38 103.5v338h-156v72h156v155h80v-155h221v-72h-221v-338c0 -45.333 21.667 -68 65 -68h146v-72h-146z" />
    <glyph glyph-name="Tbar" unicode="&#x166;" 
d="M113 299v67h374v-67h-374zM261 0v658h-205v73h488v-73h-204v-658h-79z" />
    <glyph glyph-name="tbar" unicode="&#x167;" 
d="M87 245v66h385v-66h-385zM360 0c-46 0 -81.667 12.167 -107 36.5s-38 58.833 -38 103.5v338h-156v72h156v155h80v-155h221v-72h-221v-338c0 -45.333 21.667 -68 65 -68h146v-72h-146z" />
    <glyph glyph-name="Utilde" unicode="&#x168;" 
d="M300 -10c-65.333 0 -115.831 18.668 -151.498 56.001s-53.5 87.666 -53.5 150.999v533h79v-533c0 -42 10.667 -75.167 32 -99.5s52.666 -36.5 93.999 -36.5s72.666 12.167 93.999 36.5s32 57.5 32 99.5v533h79v-533c0 -64 -17.667 -114.5 -53 -151.5
s-86 -55.5 -152 -55.5zM371.002 815.001c-19.333 0 -35.3311 3.83301 -47.998 11.5s-23.5 16.5 -32.5 26.5s-17.833 18.833 -26.5 26.5s-18.667 11.5 -30 11.5c-10.667 0 -19.334 -3.33301 -26.001 -10s-10 -16.667 -10 -30v-31h-58v31c0 30 8.16699 53.167 24.5 69.5
s38.166 24.5 65.499 24.5c19.333 0 35.5 -3.83301 48.5 -11.5s24 -16.5 33 -26.5s17.667 -18.833 26 -26.5s18.5 -11.5 30.5 -11.5c10.667 0 19 3.33301 25 10s9 16.667 9 30v31h58v-31c0 -30 -8 -53.167 -24 -69.5s-37.667 -24.5 -65 -24.5z" />
    <glyph glyph-name="utilde" unicode="&#x169;" 
d="M299 -10c-62 0 -111.5 18.667 -148.5 56s-55.5 88 -55.5 152v352h79v-352c0 -43.333 11.167 -77.166 33.5 -101.499s52.833 -36.5 91.5 -36.5c39.333 0 70.333 12.167 93 36.5s34 58.166 34 101.499v352h79v-352c0 -64 -18.667 -114.667 -56 -152s-87.333 -56 -150 -56z
M371 650c-19.333 0 -35.3311 3.83301 -47.998 11.5s-23.5 16.5 -32.5 26.5s-17.833 18.833 -26.5 26.5s-18.667 11.5 -30 11.5c-10.667 0 -19.334 -3.33301 -26.001 -10s-10 -16.667 -10 -30v-31h-58v31c0 30 8.16699 53.167 24.5 69.5s38.166 24.5 65.499 24.5
c19.333 0 35.5 -3.83301 48.5 -11.5s24 -16.5 33 -26.5s17.667 -18.833 26 -26.5s18.5 -11.5 30.5 -11.5c10.667 0 19 3.33301 25 10s9 16.667 9 30v31h58v-31c0 -30 -8 -53.167 -24 -69.5s-37.667 -24.5 -65 -24.5z" />
    <glyph glyph-name="Umacron" unicode="&#x16a;" 
d="M300 -10c-65.333 0 -115.831 18.668 -151.498 56.001s-53.5 87.666 -53.5 150.999v533h79v-533c0 -42 10.667 -75.167 32 -99.5s52.666 -36.5 93.999 -36.5s72.666 12.167 93.999 36.5s32 57.5 32 99.5v533h79v-533c0 -64 -17.667 -114.5 -53 -151.5
s-86 -55.5 -152 -55.5zM145.002 844.001v66h310v-66h-310z" />
    <glyph glyph-name="umacron" unicode="&#x16b;" 
d="M299 -10c-62 0 -111.5 18.667 -148.5 56s-55.5 88 -55.5 152v352h79v-352c0 -43.333 11.167 -77.166 33.5 -101.499s52.833 -36.5 91.5 -36.5c39.333 0 70.333 12.167 93 36.5s34 58.166 34 101.499v352h79v-352c0 -64 -18.667 -114.667 -56 -152s-87.333 -56 -150 -56z
M145 674v66h310v-66h-310z" />
    <glyph glyph-name="Ubreve" unicode="&#x16c;" 
d="M300 -10c-65.333 0 -115.831 18.668 -151.498 56.001s-53.5 87.666 -53.5 150.999v533h79v-533c0 -42 10.667 -75.167 32 -99.5s52.666 -36.5 93.999 -36.5s72.666 12.167 93.999 36.5s32 57.5 32 99.5v533h79v-533c0 -64 -17.667 -114.5 -53 -151.5
s-86 -55.5 -152 -55.5zM300.002 806.001c-47.333 0 -85.1689 13.167 -113.502 39.5s-42.5 61.166 -42.5 104.499h64c0 -27.333 8.16699 -49.333 24.5 -66s38.5 -25 66.5 -25c28.667 0 51.334 8.33301 68.001 25s25 38.667 25 66h64
c0 -43.333 -14.167 -78.166 -42.5 -104.499s-66.166 -39.5 -113.499 -39.5z" />
    <glyph glyph-name="ubreve" unicode="&#x16d;" 
d="M299 -10c-62 0 -111.5 18.667 -148.5 56s-55.5 88 -55.5 152v352h79v-352c0 -43.333 11.167 -77.166 33.5 -101.499s52.833 -36.5 91.5 -36.5c39.333 0 70.333 12.167 93 36.5s34 58.166 34 101.499v352h79v-352c0 -64 -18.667 -114.667 -56 -152s-87.333 -56 -150 -56z
M300 641c-47.333 0 -85.1689 13.167 -113.502 39.5s-42.5 61.166 -42.5 104.499h64c0 -27.333 8.16699 -49.333 24.5 -66s38.5 -25 66.5 -25c28.667 0 51.334 8.33301 68.001 25s25 38.667 25 66h64c0 -43.333 -14.167 -78.166 -42.5 -104.499s-66.166 -39.5 -113.499 -39.5
z" />
    <glyph glyph-name="Uring" unicode="&#x16e;" 
d="M300 -10c-65.333 0 -115.831 18.668 -151.498 56.001s-53.5 87.666 -53.5 150.999v533h79v-533c0 -42 10.667 -75.167 32 -99.5s52.666 -36.5 93.999 -36.5s72.666 12.167 93.999 36.5s32 57.5 32 99.5v533h79v-533c0 -64 -17.667 -114.5 -53 -151.5
s-86 -55.5 -152 -55.5zM300.002 770.001c-34.667 0 -62.667 10.167 -84 30.5s-32 46.833 -32 79.5s10.667 59.167 32 79.5s49.333 30.5 84 30.5s62.667 -10.167 84 -30.5s32 -46.833 32 -79.5s-10.667 -59.167 -32 -79.5s-49.333 -30.5 -84 -30.5zM300.002 818.001
c18.667 0 33.5 5.66699 44.5 17s16.5 26.333 16.5 45s-5.5 33.834 -16.5 45.501s-25.833 17.5 -44.5 17.5s-33.5 -5.83301 -44.5 -17.5s-16.5 -26.834 -16.5 -45.501s5.5 -33.667 16.5 -45s25.833 -17 44.5 -17z" />
    <glyph glyph-name="uring" unicode="&#x16f;" 
d="M299 -10c-62 0 -111.5 18.667 -148.5 56s-55.5 88 -55.5 152v352h79v-352c0 -43.333 11.167 -77.166 33.5 -101.499s52.833 -36.5 91.5 -36.5c39.333 0 70.333 12.167 93 36.5s34 58.166 34 101.499v352h79v-352c0 -64 -18.667 -114.667 -56 -152s-87.333 -56 -150 -56z
M300 610c-34.667 0 -62.667 10.167 -84 30.5s-32 46.833 -32 79.5c0 33.333 10.667 60 32 80s49.333 30 84 30s62.667 -10.167 84 -30.5s32 -46.833 32 -79.5s-10.667 -59.167 -32 -79.5s-49.333 -30.5 -84 -30.5zM300 658c18.667 0 33.5 5.66699 44.5 17
s16.5 26.333 16.5 45c0 19.333 -5.5 34.666 -16.5 45.999s-25.833 17 -44.5 17s-33.5 -5.66699 -44.5 -17s-16.5 -26.666 -16.5 -45.999c0 -18.667 5.5 -33.667 16.5 -45s25.833 -17 44.5 -17z" />
    <glyph glyph-name="Uhungarumlaut" unicode="&#x170;" 
d="M300 -10c-65.333 0 -115.831 18.668 -151.498 56.001s-53.5 87.666 -53.5 150.999v533h79v-533c0 -42 10.667 -75.167 32 -99.5s52.666 -36.5 93.999 -36.5s72.666 12.167 93.999 36.5s32 57.5 32 99.5v533h79v-533c0 -64 -17.667 -114.5 -53 -151.5
s-86 -55.5 -152 -55.5zM328.002 810.001l109 140h83l-114 -140h-78zM155.002 810.001l109 140h83l-115 -140h-77z" />
    <glyph glyph-name="uhungarumlaut" unicode="&#x171;" 
d="M299 -10c-62 0 -111.5 18.667 -148.5 56s-55.5 88 -55.5 152v352h79v-352c0 -43.333 11.167 -77.166 33.5 -101.499s52.833 -36.5 91.5 -36.5c39.333 0 70.333 12.167 93 36.5s34 58.166 34 101.499v352h79v-352c0 -64 -18.667 -114.667 -56 -152s-87.333 -56 -150 -56z
M328 645l109 140h83l-114 -140h-78zM155 645l109 140h83l-115 -140h-77z" />
    <glyph glyph-name="Uogonek" unicode="&#x172;" 
d="M376 -201c-34 0 -61.335 8.33203 -82.002 24.999s-31 38.334 -31 65.001c0 10 2.16699 20.667 6.5 32s10.833 23 19.5 35s19 23.667 31 35c-2.66699 0 -6 -0.166992 -10 -0.5s-7.33301 -0.5 -10 -0.5c-42.667 0 -79.334 8.33301 -110.001 25s-54.167 40.5 -70.5 71.5
s-24.5 67.833 -24.5 110.5v533h79v-533c0 -43.333 10.833 -76.833 32.5 -100.5s52.834 -35.5 93.501 -35.5c41.333 0 72.666 11.833 93.999 35.5s32 57.167 32 100.5v533h79v-533c0 -40 -7.16699 -75 -21.5 -105s-35.166 -53.667 -62.499 -71l-23 -20
c-21.333 -18 -36.666 -35.167 -45.999 -51.5s-14 -31.5 -14 -45.5c0 -14.667 4.83301 -26.667 14.5 -36s22.834 -14 39.501 -14h61v-55h-77z" />
    <glyph glyph-name="uogonek" unicode="&#x173;" 
d="M372 -201c-34 0 -61.3359 8.33203 -82.0029 24.999s-31 38.334 -31 65.001c0 14.667 4.33301 30.167 13 46.5s24.334 34.833 47.001 55.5c-2 0 -4 -0.166992 -6 -0.5s-4 -0.5 -6 -0.5h-7c-63.333 0 -113.333 18.5 -150 55.5s-55 87.5 -55 151.5v353h79v-353
c0 -44 10.833 -77.833 32.5 -101.5s52.834 -35.5 93.501 -35.5c41.333 0 72.666 11.833 93.999 35.5s32 57.5 32 101.5v353h79v-353c0 -40 -7 -74.833 -21 -104.5s-34.667 -53.167 -62 -70.5l-25 -21c-21.333 -18.667 -37.166 -36 -47.499 -52s-15.5 -31 -15.5 -45
c0 -14.667 4.83301 -26.667 14.5 -36s22.834 -14 39.501 -14h61v-55h-77z" />
    <glyph glyph-name="Wcircumflex" unicode="&#x174;" 
d="M115 0l-85.998 730h75l59 -540l4.5 -45.5c1.66699 -16.333 3.16699 -32.333 4.5 -48s2 -28.834 2 -39.501c1.33301 10.667 2.83301 23.834 4.5 39.501s3.5 31.667 5.5 48s4 31.5 6 45.5l70 540h85l65 -540c2 -14 4 -29.167 6 -45.5l6 -48
c2 -15.667 3.33301 -28.834 4 -39.501c1.33301 10.667 2.66602 23.834 3.99902 39.501s3 31.667 5 48s3.66699 31.5 5 45.5l58 540h73l-87 -730h-102l-65 545c-2 15.333 -3.83301 31 -5.5 47s-3.33398 31.167 -5.00098 45.5s-3.16699 26.166 -4.5 35.499
c-0.666992 -9.33301 -2 -21 -4 -35s-3.83301 -29.167 -5.5 -45.5s-3.5 -32.166 -5.5 -47.499l-71 -545h-101zM127.002 810l134 140h77l135 -140h-86l-87 86l-85 -86h-88z" />
    <glyph glyph-name="wcircumflex" unicode="&#x175;" 
d="M128 0l-88.9971 550h71l59 -395l6.5 -49c2.33301 -18 4.16602 -33 5.49902 -45c1.33301 12 3.66602 27 6.99902 45s6 34.333 8 49l66 395h76l67 -395c2 -14.667 4.5 -31 7.5 -49s5.16699 -33 6.5 -45c1.33301 12 3.5 27 6.5 45s5.5 34.333 7.5 49l60 395h68l-93 -550h-90
l-61 383c-2.66699 18.667 -5.83398 37.834 -9.50098 57.501s-6.16699 35.167 -7.5 46.5c-2 -11.333 -4.5 -26.833 -7.5 -46.5s-6.16699 -38.834 -9.5 -57.501l-64 -383h-91zM127.003 645l134 140h77l135 -140h-86l-87 86l-85 -86h-88z" />
    <glyph glyph-name="Ycircumflex" unicode="&#x176;" 
d="M260 0v275l-221 455h82l150 -308c8 -16 14.5 -30 19.5 -42s8.5 -21 10.5 -27c2 6 5.66699 15 11 27l19 42l148 308h82l-221 -455v-275h-80zM127 810l134 140h77l135 -140h-86l-87 86l-85 -86h-88z" />
    <glyph glyph-name="ycircumflex" unicode="&#x177;" 
d="M184 -180l80.999 214.998l-204 515h88l130 -343c5.33301 -13.333 10.5 -28.166 15.5 -44.499s8.83301 -29.833 11.5 -40.5c3.33301 10.667 7.33301 24.334 12 41.001s9.33398 31.667 14.001 45l122 342h85l-271 -730h-84zM126.999 644.998l134 140h77l135 -140h-86
l-87 86l-85 -86h-88z" />
    <glyph glyph-name="Ydieresis" unicode="&#x178;" 
d="M260 0v275l-221 455h82l150 -308c8 -16 14.5 -30 19.5 -42s8.5 -21 10.5 -27c2 6 5.66699 15 11 27l19 42l148 308h82l-221 -455v-275h-80zM411 819c-18 0 -32.667 5.5 -44 16.5s-17 25.833 -17 44.5c0 19.333 5.66699 34.5 17 45.5s26 16.5 44 16.5
c18.667 0 33.5 -5.5 44.5 -16.5s16.5 -26.167 16.5 -45.5c0 -18.667 -5.5 -33.5 -16.5 -44.5s-25.833 -16.5 -44.5 -16.5zM191 819c-18 0 -32.667 5.5 -44 16.5s-17 25.833 -17 44.5c0 19.333 5.66699 34.5 17 45.5s26 16.5 44 16.5s32.667 -5.5 44 -16.5
s17 -26.167 17 -45.5c0 -18.667 -5.66699 -33.5 -17 -44.5s-26 -16.5 -44 -16.5z" />
    <glyph glyph-name="Zacute" unicode="&#x179;" 
d="M87 0v79l336 579h-332v72h411v-81l-335 -577h346v-72h-426zM248 810l106 140h87l-112 -140h-81z" />
    <glyph glyph-name="zacute" unicode="&#x17a;" 
d="M93 0v78l313 400h-304v72h393v-79l-317 -399h329v-72h-414zM251 645l106 140h87l-112 -140h-81z" />
    <glyph glyph-name="Zdotaccent" unicode="&#x17b;" 
d="M87 0v79l336 579h-332v72h411v-81l-335 -577h346v-72h-426zM300 818c-20.667 0 -37.167 5.66699 -49.5 17s-18.5 26.333 -18.5 45s6.16699 33.667 18.5 45s28.833 17 49.5 17s37.167 -5.66699 49.5 -17s18.5 -26.333 18.5 -45s-6.16699 -33.667 -18.5 -45
s-28.833 -17 -49.5 -17z" />
    <glyph glyph-name="zdotaccent" unicode="&#x17c;" 
d="M93 0v78l313 400h-304v72h393v-79l-317 -399h329v-72h-414zM300 651c-20.667 0 -37.167 5.33203 -49.5 15.999s-18.5 25.334 -18.5 44.001c0 19.333 6.16699 34.666 18.5 45.999s28.833 17 49.5 17s37.167 -5.66699 49.5 -17s18.5 -26.666 18.5 -45.999
c0 -18 -6.16699 -32.5 -18.5 -43.5s-28.833 -16.5 -49.5 -16.5z" />
    <glyph glyph-name="Zcaron" unicode="&#x17d;" 
d="M87 0v79l336 579h-332v72h411v-81l-335 -577h346v-72h-426zM262 810l-135 140h86l88 -86l85 86h87l-134 -140h-77z" />
    <glyph glyph-name="zcaron" unicode="&#x17e;" 
d="M93 0v78l313 400h-304v72h393v-79l-317 -399h329v-72h-414zM262 645l-135 140h86l88 -86l85 86h87l-134 -140h-77z" />
    <glyph glyph-name="longs" unicode="&#x17f;" 
d="M169 0v577c0 46 14.667 83 44 111s68 42 116 42h177v-71h-177c-24 0 -43.5 -7.5 -58.5 -22.5s-22.5 -34.833 -22.5 -59.5v-577h-79z" />
    <glyph glyph-name="uni018F" unicode="&#x18f;" 
d="M300 -10c-42.667 0 -79.3301 8.50098 -109.997 25.501s-54.334 41.167 -71.001 72.5s-25 67.666 -25 108.999v197h333v139c0 43.333 -10.833 76.833 -32.5 100.5s-53.167 35.5 -94.5 35.5s-72.833 -12.167 -94.5 -36.5s-32.5 -58.5 -32.5 -102.5h-79
c0 43.333 8.16699 80.666 24.5 111.999s39.833 55.5 70.5 72.5s67.667 25.5 111 25.5s80.333 -8.33301 111 -25s54.167 -40.5 70.5 -71.5s24.5 -67.833 24.5 -110.5v-336c0 -41.333 -8.33301 -77.666 -25 -108.999s-40.334 -55.5 -71.001 -72.5
s-67.334 -25.5 -110.001 -25.5zM300.004 57.001c42.667 0 74.5 12.167 95.5 36.5s31.5 58.833 31.5 103.5v134h-262l8 9v-143c0 -44.667 10.667 -79.167 32 -103.5s53 -36.5 95 -36.5z" />
    <glyph glyph-name="florin" unicode="&#x192;" 
d="M0 -180v72.001h103c38 0 67.833 10.833 89.5 32.5s32.5 51.5 32.5 89.5v304h-162v72h162v205c0 42.667 13 75.834 39 99.501s62.333 35.5 109 35.5h159v-71h-159c-22.667 0 -39.667 -5.5 -51 -16.5s-17 -27.167 -17 -48.5v-204h227v-72h-227v-307
c0 -38.667 -8.5 -72.334 -25.5 -101.001s-40.5 -50.834 -70.5 -66.501s-65.333 -23.5 -106 -23.5h-103z" />
    <glyph glyph-name="Ohorn" unicode="&#x1a0;" 
d="M403 643v57h26c11.333 0 20.5 3.5 27.5 10.5s10.5 16.5 10.5 28.5v71h66v-75c0 -27.333 -9.16699 -49.5 -27.5 -66.5s-42.5 -25.5 -72.5 -25.5h-30zM300 -10c-42.667 0 -79.5 8.33301 -110.5 25s-54.833 40.5 -71.5 71.5s-25 67.833 -25 110.5v336
c0 42.667 8.33301 79.5 25 110.5s40.5 54.833 71.5 71.5s67.833 25 110.5 25s79.5 -8.33301 110.5 -25s54.833 -40.5 71.5 -71.5s25 -67.833 25 -110.5v-336c0 -42.667 -8.33301 -79.5 -25 -110.5s-40.5 -54.833 -71.5 -71.5s-67.833 -25 -110.5 -25zM300 61
c41.333 0 73 11.833 95 35.5s33 57.167 33 100.5v336c0 43.333 -11.167 76.833 -33.5 100.5s-53.833 35.5 -94.5 35.5s-72.167 -11.833 -94.5 -35.5s-33.5 -57.167 -33.5 -100.5v-336c0 -43.333 11.167 -76.833 33.5 -100.5s53.833 -35.5 94.5 -35.5z" />
    <glyph glyph-name="ohorn" unicode="&#x1a1;" 
d="M394 473v57h35c11.333 0 20.333 3.5 27 10.5s10 16.5 10 28.5v71h66v-75c0 -27.333 -9.16699 -49.5 -27.5 -66.5s-42.5 -25.5 -72.5 -25.5h-38zM300 -9c-42.667 0 -79.667 8.33301 -111 25s-55.666 40.667 -72.999 72s-26 68.333 -26 111v152
c0 43.333 8.66699 80.5 26 111.5s41.666 54.833 72.999 71.5s68.333 25 111 25s79.667 -8.33301 111 -25s55.666 -40.5 72.999 -71.5s26 -67.833 26 -110.5v-153c0 -42.667 -8.66699 -79.667 -26 -111s-41.666 -55.333 -72.999 -72s-68.333 -25 -111 -25zM300 62
c41.333 0 73.333 11.667 96 35s34 57.333 34 102v152c0 44.667 -11.5 78.667 -34.5 102s-54.833 35 -95.5 35s-72.5 -11.667 -95.5 -35s-34.5 -57.333 -34.5 -102v-152c0 -44.667 11.5 -78.667 34.5 -102s54.833 -35 95.5 -35z" />
    <glyph glyph-name="Uhorn" unicode="&#x1af;" 
d="M437 673v57h59c11.333 0 20.5 3.5 27.5 10.5s10.5 16.5 10.5 28.5v71h66v-75c0 -27.333 -9.16699 -49.5 -27.5 -66.5s-42.5 -25.5 -72.5 -25.5h-63zM300 -10c-65.333 0 -115.831 18.668 -151.498 56.001s-53.5 87.666 -53.5 150.999v533h79v-533
c0 -42 10.667 -75.167 32 -99.5s52.666 -36.5 93.999 -36.5s72.666 12.167 93.999 36.5s32 57.5 32 99.5v533h79v-533c0 -64 -17.667 -114.5 -53 -151.5s-86 -55.5 -152 -55.5z" />
    <glyph glyph-name="uhorn" unicode="&#x1b0;" 
d="M95 198v352h79v-352c0 -43.333 11.167 -77.166 33.5 -101.499s52.833 -36.5 91.5 -36.5c39.333 0 70.333 12.167 93 36.5s34 58.166 34 101.499v352h64c12 0 21.333 3.5 28 10.5s10 16.5 10 28.5v71h66v-75c0 -27.333 -7.33301 -49.5 -22 -66.5s-37 -25.5 -67 -25.5v-295
c0 -64 -18.667 -114.667 -56 -152s-87.333 -56 -150 -56c-62 0 -111.5 18.667 -148.5 56s-55.5 88 -55.5 152z" />
    <glyph glyph-name="uni01CD" unicode="&#x1cd;" 
d="M55 0l193 730h105l192 -730h-80l-51 198h-228l-50 -198h-81zM202 266h195l-62 244c-10 40.667 -18 74.834 -24 102.501s-9.66699 45.5 -11 53.5c-1.33301 -8 -5 -25.833 -11 -53.5s-14 -61.834 -24 -102.501zM262 810l-135 140h86l88 -86l85 86h87l-134 -140h-77z" />
    <glyph glyph-name="uni01CE" unicode="&#x1ce;" 
d="M257 -10c-58 0 -103.67 14.832 -137.003 44.499s-50 69.834 -50 120.501c0 50 16.333 89.5 49 118.5s76.667 43.5 132 43.5h175v58c0 36.667 -10.667 65 -32 85s-51.666 30 -90.999 30c-34.667 0 -63.5 -7.66699 -86.5 -23s-36.167 -36 -39.5 -62h-80
c6.66699 47.333 28.834 85 66.501 113s84.834 42 141.501 42c61.333 0 110 -16.5 146 -49.5s54 -77.5 54 -133.5v-377h-78v107h-13l15 16c0 -40.667 -15.667 -73 -47 -97s-73 -36 -125 -36zM275.997 53.999c44 0 80 11 108 33s42 50.667 42 86v83h-174
c-31.333 0 -56.333 -8.66699 -75 -26s-28 -41 -28 -71c0 -32 11.333 -57.5 34 -76.5s53.667 -28.5 93 -28.5zM266.997 644.999l-135 140h86l88 -86l85 86h87l-134 -140h-77z" />
    <glyph glyph-name="Gcaron" unicode="&#x1e6;" 
d="M305 -10c-43.333 0 -80.833 8.33301 -112.5 25s-56.167 40.667 -73.5 72s-26 68 -26 110v336c0 42.667 8.66699 79.5 26 110.5s41.833 54.833 73.5 71.5s69.167 25 112.5 25c42.667 0 79.834 -8.5 111.501 -25.5s56.167 -41.167 73.5 -72.5s26 -68.666 26 -111.999h-79
c0 44 -11.667 78.167 -35 102.5s-55.666 36.5 -96.999 36.5s-73.833 -11.833 -97.5 -35.5s-35.5 -57.167 -35.5 -100.5v-336c0 -42.667 11.833 -76 35.5 -100s56.167 -36 97.5 -36s73.666 12.167 96.999 36.5s35 58.5 35 102.5v95h-155v73h234v-168
c0 -42.667 -8.66699 -79.834 -26 -111.501s-41.833 -56 -73.5 -73s-68.834 -25.5 -111.501 -25.5zM264 810l-135 140h86l88 -86l85 86h87l-134 -140h-77z" />
    <glyph glyph-name="gcaron" unicode="&#x1e7;" 
d="M164 -180l0.000976562 71.999h167c31.333 0 54.5 7.33301 69.5 22s22.5 37 22.5 67v64l2 104h-18l19 23c0 -41.333 -13.667 -74.333 -41 -99s-64 -37 -110 -37c-56 0 -100.333 18.5 -133 55.5s-49 86.5 -49 148.5v117c0 62 16.333 111.333 49 148s77 55 133 55
c46 0 82.667 -12.167 110 -36.5s41 -57.166 41 -98.499l-18 23h16v102h78v-569c0 -50.667 -14.833 -90.167 -44.5 -118.5s-71.834 -42.5 -126.501 -42.5h-167zM298.001 104.999c39.333 0 70.166 12.1689 92.499 36.502s33.5 58.166 33.5 101.499v110
c0 43.333 -11.167 77.166 -33.5 101.499s-53.166 36.5 -92.499 36.5c-40 0 -71 -12 -93 -36s-33 -58 -33 -102v-110c0 -44 11 -78 33 -102s53 -36 93 -36zM259.001 645.001l-135 140h86l88 -86l85 86h87l-134 -140h-77z" />
    <glyph glyph-name="uni01EA" unicode="&#x1ea;" 
d="M376 -201c-34 0 -61.335 8.33203 -82.002 24.999s-31 38.334 -31 65.001c0 10 2.16699 20.667 6.5 32s10.833 23 19.5 35s19 23.667 31 35c-2.66699 0 -6 -0.166992 -10 -0.5s-7.33301 -0.5 -10 -0.5c-42.667 0 -79.5 8.33301 -110.5 25s-54.833 40.5 -71.5 71.5
s-25 67.833 -25 110.5v336c0 42.667 8.33301 79.5 25 110.5s40.5 54.833 71.5 71.5s67.833 25 110.5 25s79.5 -8.33301 110.5 -25s54.833 -40.5 71.5 -71.5s25 -67.833 25 -110.5v-336c0 -40 -7.5 -75 -22.5 -105s-36.167 -53.667 -63.5 -71l-23 -20
c-21.333 -18 -36.666 -35.167 -45.999 -51.5s-14 -31.5 -14 -45.5c0 -14.667 4.83301 -26.667 14.5 -36s22.834 -14 39.501 -14h61v-55h-77zM299.998 60.999c41.333 0 73 11.833 95 35.5s33 57.167 33 100.5v336c0 43.333 -11.167 76.833 -33.5 100.5
s-53.833 35.5 -94.5 35.5s-72.167 -11.833 -94.5 -35.5s-33.5 -57.167 -33.5 -100.5v-336c0 -43.333 11.167 -76.833 33.5 -100.5s53.833 -35.5 94.5 -35.5z" />
    <glyph glyph-name="uni01EB" unicode="&#x1eb;" 
d="M372 -201c-34 0 -61.3359 8.33203 -82.0029 24.999s-31 38.334 -31 65.001c0 14.667 4.33301 30.167 13 46.5s24.334 34.833 47.001 55.5c-2 0 -4 -0.166992 -6 -0.5s-4 -0.5 -6 -0.5h-7c-42.667 0 -79.5 8.33301 -110.5 25s-54.833 40.5 -71.5 71.5
s-25 67.833 -25 110.5v156c0 42.667 8.33301 79.5 25 110.5s40.5 54.833 71.5 71.5s67.833 25 110.5 25s79.5 -8.33301 110.5 -25s54.833 -40.5 71.5 -71.5s25 -67.833 25 -110.5v-156c0 -40 -7.33301 -74.833 -22 -104.5s-35.667 -53.167 -63 -70.5l-25 -21
c-21.333 -18.667 -37.166 -36 -47.499 -52s-15.5 -31 -15.5 -45c0 -14.667 4.83301 -26.667 14.5 -36s22.834 -14 39.501 -14h61v-55h-77zM299.997 59.999c41.333 0 73 11.833 95 35.5s33 57.5 33 101.5v156c0 44 -11.167 77.833 -33.5 101.5s-53.833 35.5 -94.5 35.5
s-72.167 -11.833 -94.5 -35.5s-33.5 -57.5 -33.5 -101.5v-156c0 -44 11.167 -77.833 33.5 -101.5s53.833 -35.5 94.5 -35.5z" />
    <glyph glyph-name="uni01F4" unicode="&#x1f4;" 
d="M305 -10c-43.333 0 -80.833 8.33301 -112.5 25s-56.167 40.667 -73.5 72s-26 68 -26 110v336c0 42.667 8.66699 79.5 26 110.5s41.833 54.833 73.5 71.5s69.167 25 112.5 25c42.667 0 79.834 -8.5 111.501 -25.5s56.167 -41.167 73.5 -72.5s26 -68.666 26 -111.999h-79
c0 44 -11.667 78.167 -35 102.5s-55.666 36.5 -96.999 36.5s-73.833 -11.833 -97.5 -35.5s-35.5 -57.167 -35.5 -100.5v-336c0 -42.667 11.833 -76 35.5 -100s56.167 -36 97.5 -36s73.666 12.167 96.999 36.5s35 58.5 35 102.5v95h-155v73h234v-168
c0 -42.667 -8.66699 -79.834 -26 -111.501s-41.833 -56 -73.5 -73s-68.834 -25.5 -111.501 -25.5zM250 810l106 140h87l-112 -140h-81z" />
    <glyph glyph-name="uni01F5" unicode="&#x1f5;" 
d="M164 -180l0.000976562 71.999h167c31.333 0 54.5 7.33301 69.5 22s22.5 37 22.5 67v64l2 104h-18l19 23c0 -41.333 -13.667 -74.333 -41 -99s-64 -37 -110 -37c-56 0 -100.333 18.5 -133 55.5s-49 86.5 -49 148.5v117c0 62 16.333 111.333 49 148s77 55 133 55
c46 0 82.667 -12.167 110 -36.5s41 -57.166 41 -98.499l-18 23h16v102h78v-569c0 -50.667 -14.833 -90.167 -44.5 -118.5s-71.834 -42.5 -126.501 -42.5h-167zM298.001 104.999c39.333 0 70.166 12.1689 92.499 36.502s33.5 58.166 33.5 101.499v110
c0 43.333 -11.167 77.166 -33.5 101.499s-53.166 36.5 -92.499 36.5c-40 0 -71 -12 -93 -36s-33 -58 -33 -102v-110c0 -44 11 -78 33 -102s53 -36 93 -36zM247.001 645.001l106 140h87l-112 -140h-81z" />
    <glyph glyph-name="AEacute" unicode="&#x1fc;" 
d="M31 0l157 730h382v-72h-189v-243h161v-72h-161v-271h189v-72h-266v206h-149l-44 -206h-80zM169 273h135v385h-55zM253 810l106 140h87l-112 -140h-81z" />
    <glyph glyph-name="aeacute" unicode="&#x1fd;" 
d="M171 -10c-41.333 0 -74.166 13.001 -98.499 39.001s-36.5 60.333 -36.5 103v57c0 40.667 13.333 73 40 97s62.334 36 107.001 36h83v80c0 29.333 -6.16699 51.666 -18.5 66.999s-30.833 23 -55.5 23c-20.667 0 -37.5 -6.5 -50.5 -19.5s-19.833 -30.167 -20.5 -51.5h-76
c0.666992 42 13.334 75.667 38.001 101s57 38 97 38c26 0 47.667 -4.5 65 -13.5s30.5 -19.667 39.5 -32s14.5 -24.5 16.5 -36.5h4c2 12 7.5 24.167 16.5 36.5s21.667 23 38 32s36.833 13.5 61.5 13.5c44 0 78.833 -14.167 104.5 -42.5s38.5 -66.5 38.5 -114.5v-145h-225
v-111c0 -26 6.83301 -47.333 20.5 -64s31.5 -25 53.5 -25c22.667 0 40.667 6.5 54 19.5s20.333 30.167 21 51.5h76c-0.666992 -42 -13.834 -75.667 -39.501 -101s-59.834 -38 -102.501 -38c-25.333 0 -46.333 4.33301 -63 13s-29.334 19.334 -38.001 32.001
s-14 24.667 -16 36h-4c-2 -11.333 -8 -23.333 -18 -36s-24 -23.334 -42 -32.001s-41.333 -13 -70 -13zM188 58.001c23.333 0 42.166 8.33203 56.499 24.999s21.5 38 21.5 64v111h-81c-21.333 0 -38.166 -6.16699 -50.499 -18.5s-18.5 -29.166 -18.5 -50.499v-57
c0 -22 6.5 -39.833 19.5 -53.5s30.5 -20.5 52.5 -20.5zM339 322h148.999v81c0 26.667 -6.66699 48.167 -20 64.5s-31.666 24.5 -54.999 24.5c-22.667 0 -40.667 -8.16699 -54 -24.5s-20 -37.833 -20 -64.5v-81zM250.999 645l106 140h87l-112 -140h-81z" />
    <glyph glyph-name="Oslashacute" unicode="&#x1fe;" 
d="M39 -40l448 790h74l-448 -790h-74zM300 -10c-42.667 0 -79.5 8.33301 -110.5 25s-54.833 40.5 -71.5 71.5s-25 67.833 -25 110.5v336c0 42.667 8.33301 79.5 25 110.5s40.5 54.833 71.5 71.5s67.833 25 110.5 25s79.5 -8.33301 110.5 -25s54.833 -40.5 71.5 -71.5
s25 -67.833 25 -110.5v-336c0 -42.667 -8.33301 -79.5 -25 -110.5s-40.5 -54.833 -71.5 -71.5s-67.833 -25 -110.5 -25zM300 61c41.333 0 73 11.833 95 35.5s33 57.167 33 100.5v336c0 43.333 -11.167 76.833 -33.5 100.5s-53.833 35.5 -94.5 35.5
s-72.167 -11.833 -94.5 -35.5s-33.5 -57.167 -33.5 -100.5v-336c0 -43.333 11.167 -76.833 33.5 -100.5s53.833 -35.5 94.5 -35.5zM248 810l106 140h87l-112 -140h-81z" />
    <glyph glyph-name="oslashacute" unicode="&#x1ff;" 
d="M41 -30l438 620h80l-439 -620h-79zM300 -10c-42.667 0 -79.5 8.33301 -110.5 25s-54.833 40.5 -71.5 71.5s-25 67.833 -25 110.5v156c0 42.667 8.33301 79.5 25 110.5s40.5 54.833 71.5 71.5s67.833 25 110.5 25s79.5 -8.33301 110.5 -25s54.833 -40.5 71.5 -71.5
s25 -67.833 25 -110.5v-156c0 -42.667 -8.33301 -79.5 -25 -110.5s-40.5 -54.833 -71.5 -71.5s-67.833 -25 -110.5 -25zM300 60c41.333 0 73.666 12.167 96.999 36.5s35 57.833 35 100.5v156c0 43.333 -11.667 77 -35 101s-55.666 36 -96.999 36s-73.666 -12 -96.999 -36
s-35 -57.667 -35 -101v-156c0 -42.667 11.667 -76.167 35 -100.5s55.666 -36.5 96.999 -36.5zM251 645l106 140h87l-112 -140h-81z" />
    <glyph glyph-name="uni0218" unicode="&#x218;" 
d="M304 -10c-46.667 0 -86.999 7.99805 -120.999 23.998s-60.333 38.833 -79 68.5s-28.334 65.167 -29.001 106.5h80c0 -39.333 13.333 -70.5 40 -93.5s63 -34.5 109 -34.5c44 0 78.5 11 103.5 33s37.5 52.333 37.5 91c0 32 -8.66699 59.833 -26 83.5
s-41.666 40.167 -72.999 49.5l-95 30c-50 14.667 -88.5 39.834 -115.5 75.501s-40.5 77.5 -40.5 125.5c0 39.333 8.66699 73.166 26 101.499s41.833 50.5 73.5 66.5s68.834 24 111.501 24c63.333 0 114 -17.667 152 -53s57 -82.666 57 -141.999h-79c0 38 -11.667 68 -35 90
s-55.333 33 -96 33s-72.5 -9.83301 -95.5 -29.5s-34.5 -47.5 -34.5 -83.5c0 -31.333 8.66699 -58.666 26 -81.999s41.666 -40 72.999 -50l95 -30c49.333 -15.333 87.666 -41.333 114.999 -78s41 -79.667 41 -129c0 -39.333 -9.16699 -73.833 -27.5 -103.5
s-44 -52.667 -77 -69s-71.833 -24.5 -116.5 -24.5zM197.001 -240.002l93 145h95l-105 -145h-83z" />
    <glyph glyph-name="uni0219" unicode="&#x219;" 
d="M280 -9c-36 0 -67.6689 5.99805 -95.002 17.998s-49 28.833 -65 50.5s-25.667 46.834 -29 75.501h79c4.66699 -22 16.5 -39.667 35.5 -53s43.833 -20 74.5 -20h49c35.333 0 62.166 7.83301 80.499 23.5s27.5 36.5 27.5 62.5c0 24.667 -8 44.667 -24 60s-39 25.333 -69 30
l-83 13c-52 8.66699 -91.167 25.334 -117.5 50.001s-39.5 59.334 -39.5 104.001c0 48.667 15.833 86.5 47.5 113.5s77.5 40.5 137.5 40.5h39c52 0 93.833 -12.333 125.5 -37s50.834 -58 57.501 -100h-80c-4 20 -14.833 36 -32.5 48s-41.167 18 -70.5 18h-39
c-35.333 0 -61.666 -7.16699 -78.999 -21.5s-26 -34.833 -26 -61.5c0 -24 7.33301 -42.167 22 -54.5s37 -20.833 67 -25.5l82 -13c54.667 -8.66699 95.334 -25.834 122.001 -51.501s40 -61.5 40 -107.5c0 -50 -16 -89.5 -48 -118.5s-78.667 -43.5 -140 -43.5h-49z
M188.998 -240.002l93 145h95l-105 -145h-83z" />
    <glyph glyph-name="uni021A" unicode="&#x21a;" 
d="M261 0v658h-205v73h488v-73h-204v-658h-79zM162 -240l93 145h95l-105 -145h-83z" />
    <glyph glyph-name="uni021B" unicode="&#x21b;" 
d="M360 0c-46 0 -81.667 12.167 -107 36.5s-38 58.833 -38 103.5v338h-156v72h156v155h80v-155h221v-72h-221v-338c0 -45.333 21.667 -68 65 -68h146v-72h-146zM197 -240l93 145h95l-105 -145h-83z" />
    <glyph glyph-name="uni0232" unicode="&#x232;" 
d="M260 0v275l-221 455h82l150 -308c8 -16 14.5 -30 19.5 -42s8.5 -21 10.5 -27c2 6 5.66699 15 11 27l19 42l148 308h82l-221 -455v-275h-80zM145 844v66h310v-66h-310z" />
    <glyph glyph-name="uni0233" unicode="&#x233;" 
d="M184 -180l80.999 214.998l-204 515h88l130 -343c5.33301 -13.333 10.5 -28.166 15.5 -44.499s8.83301 -29.833 11.5 -40.5c3.33301 10.667 7.33301 24.334 12 41.001s9.33398 31.667 14.001 45l122 342h85l-271 -730h-84zM144.999 673.998v66h310v-66h-310z" />
    <glyph glyph-name="uni0237" unicode="&#x237;" 
d="M88 -180l0.000976562 73h130c43.333 0 76.666 11.5 99.999 34.5s35 55.5 35 97.5v453h-236v72h315v-525c0 -62.667 -19.167 -112.5 -57.5 -149.5s-90.5 -55.5 -156.5 -55.5h-130z" />
    <glyph glyph-name="uni0259" unicode="&#x259;" 
d="M300 -10c-42.667 0 -79.3311 8.5 -109.998 25.5s-54.334 41.167 -71.001 72.5s-25 67.666 -25 108.999v97h334v59c0 44.667 -10.667 79.167 -32 103.5s-53.333 36.5 -96 36.5c-35.333 0 -63.333 -7 -84 -21s-34.334 -34.333 -41.001 -61h-79
c6.66699 46 28.167 82.333 64.5 109s82.833 40 139.5 40c42.667 0 79.334 -8.5 110.001 -25.5s54.334 -41 71.001 -72s25 -67.5 25 -109.5v-156c0 -41.333 -8.33301 -77.666 -25 -108.999s-40.334 -55.5 -71.001 -72.5s-67.334 -25.5 -110.001 -25.5zM300.003 57
c42.667 0 74.667 12.167 96 36.5s32 58.833 32 103.5v35h-264l8 9v-44c0 -44.667 10.833 -79.167 32.5 -103.5s53.5 -36.5 95.5 -36.5z" />
    <glyph glyph-name="uni02B9" unicode="&#x2b9;" 
d="M170 410l79 311h119l-128 -311h-70z" />
    <glyph glyph-name="uni02BA" unicode="&#x2ba;" 
d="M334 409l79 311h119l-129 -311h-69zM60 409l79 311h119l-128 -311h-70z" />
    <glyph glyph-name="uni02BC" unicode="&#x2bc;" 
d="M170 465l79 311h119l-128 -311h-70z" />
    <glyph glyph-name="circumflex" unicode="&#x2c6;" 
d="M127 645l134 140h77l135 -140h-86l-87 86l-85 -86h-88z" />
    <glyph glyph-name="caron" unicode="&#x2c7;" 
d="M262 645l-135 140h86l88 -86l85 86h87l-134 -140h-77z" />
    <glyph glyph-name="uni02C9" unicode="&#x2c9;" 
d="M145 674v66h310v-66h-310z" />
    <glyph glyph-name="breve" unicode="&#x2d8;" 
d="M300 641c-47.333 0 -85.1689 13.167 -113.502 39.5s-42.5 61.166 -42.5 104.499h64c0 -27.333 8.16699 -49.333 24.5 -66s38.5 -25 66.5 -25c28.667 0 51.334 8.33301 68.001 25s25 38.667 25 66h64c0 -43.333 -14.167 -78.166 -42.5 -104.499
s-66.166 -39.5 -113.499 -39.5z" />
    <glyph glyph-name="dotaccent" unicode="&#x2d9;" 
d="M300 651c-20.667 0 -37.167 5.33203 -49.5 15.999s-18.5 25.334 -18.5 44.001c0 19.333 6.16699 34.666 18.5 45.999s28.833 17 49.5 17s37.167 -5.66699 49.5 -17s18.5 -26.666 18.5 -45.999c0 -18 -6.16699 -32.5 -18.5 -43.5s-28.833 -16.5 -49.5 -16.5z" />
    <glyph glyph-name="ring" unicode="&#x2da;" 
d="M300 610c-34.667 0 -62.667 10.167 -84 30.5s-32 46.833 -32 79.5c0 33.333 10.667 60 32 80s49.333 30 84 30s62.667 -10.167 84 -30.5s32 -46.833 32 -79.5s-10.667 -59.167 -32 -79.5s-49.333 -30.5 -84 -30.5zM300 658c18.667 0 33.5 5.66699 44.5 17
s16.5 26.333 16.5 45c0 19.333 -5.5 34.666 -16.5 45.999s-25.833 17 -44.5 17s-33.5 -5.66699 -44.5 -17s-16.5 -26.666 -16.5 -45.999c0 -18.667 5.5 -33.667 16.5 -45s25.833 -17 44.5 -17z" />
    <glyph glyph-name="ogonek" unicode="&#x2db;" 
d="M306 -201c-34.667 0 -62.333 8.33203 -83 24.999s-31 38.334 -31 65.001c0 19.333 6.66699 39 20 59s35 40.667 65 62h65l-11 -9c-22 -18.667 -38.167 -36 -48.5 -52s-15.5 -31 -15.5 -45c0 -14.667 5 -26.667 15 -36s23 -14 39 -14h61v-55h-76z" />
    <glyph glyph-name="tilde" unicode="&#x2dc;" 
d="M371 650c-19.333 0 -35.3311 3.83301 -47.998 11.5s-23.5 16.5 -32.5 26.5s-17.833 18.833 -26.5 26.5s-18.667 11.5 -30 11.5c-10.667 0 -19.334 -3.33301 -26.001 -10s-10 -16.667 -10 -30v-31h-58v31c0 30 8.16699 53.167 24.5 69.5s38.166 24.5 65.499 24.5
c19.333 0 35.5 -3.83301 48.5 -11.5s24 -16.5 33 -26.5s17.667 -18.833 26 -26.5s18.5 -11.5 30.5 -11.5c10.667 0 19 3.33301 25 10s9 16.667 9 30v31h58v-31c0 -30 -8 -53.167 -24 -69.5s-37.667 -24.5 -65 -24.5z" />
    <glyph glyph-name="hungarumlaut" unicode="&#x2dd;" 
d="M328 645l109 140h83l-114 -140h-78zM155 645l109 140h83l-115 -140h-77z" />
    <glyph glyph-name="uni02F3" unicode="&#x2f3;" 
d="M300 -249c-34.667 0 -62.667 9.16699 -84 27.5s-32 42.166 -32 71.499s10.667 53.166 32 71.499s49.333 27.5 84 27.5s62.667 -9.16699 84 -27.5s32 -42.166 32 -71.499s-10.667 -53.166 -32 -71.499s-49.333 -27.5 -84 -27.5zM299 -202c19.333 0 34.5 4.83301 45.5 14.5
s16.5 22.167 16.5 37.5c0 17.333 -5.33301 30.5 -16 39.5s-26 13.5 -46 13.5c-18 0 -32.5 -4.83301 -43.5 -14.5s-16.5 -22.5 -16.5 -38.5c0 -15.333 5.5 -27.833 16.5 -37.5s25.5 -14.5 43.5 -14.5z" />
    <glyph glyph-name="uni02F7" unicode="&#x2f7;" 
d="M371 -210c-19.333 0 -35.3311 3.83301 -47.998 11.5s-23.5 16.5 -32.5 26.5s-17.833 18.833 -26.5 26.5s-18.667 11.5 -30 11.5c-10.667 0 -19.334 -3.33301 -26.001 -10s-10 -16.667 -10 -30v-31h-58v31c0 30 8.16699 53.167 24.5 69.5s38.166 24.5 65.499 24.5
c19.333 0 35.5 -3.83301 48.5 -11.5s24 -16.5 33 -26.5s17.667 -18.833 26 -26.5s18.5 -11.5 30.5 -11.5c10.667 0 19 3.33301 25 10s9 16.667 9 30v31h58v-31c0 -30 -8 -53.167 -24 -69.5s-37.667 -24.5 -65 -24.5z" />
    <glyph glyph-name="gravecomb" unicode="&#x300;" horiz-adv-x="0" 
d="M301 645l-114 140h90l109 -140h-85z" />
    <glyph glyph-name="acutecomb" unicode="&#x301;" horiz-adv-x="0" 
d="M218 645l106 140h87l-112 -140h-81z" />
    <glyph glyph-name="uni0302" unicode="&#x302;" horiz-adv-x="0" 
d="M127 645l134 140h77l135 -140h-86l-87 86l-85 -86h-88z" />
    <glyph glyph-name="tildecomb" unicode="&#x303;" horiz-adv-x="0" 
d="M371 650c-19.333 0 -35.3311 3.83301 -47.998 11.5s-23.5 16.5 -32.5 26.5s-17.833 18.833 -26.5 26.5s-18.667 11.5 -30 11.5c-10.667 0 -19.334 -3.33301 -26.001 -10s-10 -16.667 -10 -30v-31h-58v31c0 30 8.16699 53.167 24.5 69.5s38.166 24.5 65.499 24.5
c19.333 0 35.5 -3.83301 48.5 -11.5s24 -16.5 33 -26.5s17.667 -18.833 26 -26.5s18.5 -11.5 30.5 -11.5c10.667 0 19 3.33301 25 10s9 16.667 9 30v31h58v-31c0 -30 -8 -53.167 -24 -69.5s-37.667 -24.5 -65 -24.5z" />
    <glyph glyph-name="uni0304" unicode="&#x304;" horiz-adv-x="0" 
d="M145 674v66h310v-66h-310z" />
    <glyph glyph-name="uni0306" unicode="&#x306;" horiz-adv-x="0" 
d="M300 641c-47.333 0 -85.1689 13.167 -113.502 39.5s-42.5 61.166 -42.5 104.499h64c0 -27.333 8.16699 -49.333 24.5 -66s38.5 -25 66.5 -25c28.667 0 51.334 8.33301 68.001 25s25 38.667 25 66h64c0 -43.333 -14.167 -78.166 -42.5 -104.499
s-66.166 -39.5 -113.499 -39.5z" />
    <glyph glyph-name="uni0307" unicode="&#x307;" horiz-adv-x="0" 
d="M300 651c-20.667 0 -37.167 5.33203 -49.5 15.999s-18.5 25.334 -18.5 44.001c0 19.333 6.16699 34.666 18.5 45.999s28.833 17 49.5 17s37.167 -5.66699 49.5 -17s18.5 -26.666 18.5 -45.999c0 -18 -6.16699 -32.5 -18.5 -43.5s-28.833 -16.5 -49.5 -16.5z" />
    <glyph glyph-name="uni0308" unicode="&#x308;" horiz-adv-x="0" 
d="M410 651c-18 0 -32.667 5.33203 -44 15.999s-17 25.334 -17 44.001c0 19.333 5.66699 34.666 17 45.999s26 17 44 17c18.667 0 33.5 -5.66699 44.5 -17s16.5 -26.666 16.5 -45.999c0 -18 -5.5 -32.5 -16.5 -43.5s-25.833 -16.5 -44.5 -16.5zM190 650.999
c-18 0 -32.667 5.33203 -44 15.999s-17 25.334 -17 44.001c0 19.333 5.66699 34.666 17 45.999s26 17 44 17s32.667 -5.66699 44 -17s17 -26.666 17 -45.999c0 -18 -5.66699 -32.5 -17 -43.5s-26 -16.5 -44 -16.5z" />
    <glyph glyph-name="hookabovecomb" unicode="&#x309;" horiz-adv-x="0" 
d="M262 645l52 66c10 14 15 25.333 15 34c0 14.667 -11.333 22 -34 22h-82v57h101c24.667 0 44.667 -6.16699 60 -18.5s23 -29.5 23 -51.5c0 -20.667 -6 -38.667 -18 -54l-41 -55h-76z" />
    <glyph glyph-name="uni030A" unicode="&#x30a;" horiz-adv-x="0" 
d="M300 610c-34.667 0 -62.667 10.167 -84 30.5s-32 46.833 -32 79.5c0 33.333 10.667 60 32 80s49.333 30 84 30s62.667 -10.167 84 -30.5s32 -46.833 32 -79.5s-10.667 -59.167 -32 -79.5s-49.333 -30.5 -84 -30.5zM300 658c18.667 0 33.5 5.66699 44.5 17
s16.5 26.333 16.5 45c0 19.333 -5.5 34.666 -16.5 45.999s-25.833 17 -44.5 17s-33.5 -5.66699 -44.5 -17s-16.5 -26.666 -16.5 -45.999c0 -18.667 5.5 -33.667 16.5 -45s25.833 -17 44.5 -17z" />
    <glyph glyph-name="uni030B" unicode="&#x30b;" horiz-adv-x="0" 
d="M328 645l109 140h83l-114 -140h-78zM155 645l109 140h83l-115 -140h-77z" />
    <glyph glyph-name="uni030C" unicode="&#x30c;" horiz-adv-x="0" 
d="M262 645l-135 140h86l88 -86l85 86h87l-134 -140h-77z" />
    <glyph glyph-name="uni030F" unicode="&#x30f;" horiz-adv-x="0" 
d="M272 645h-78l-114 140h83zM445 645h-77l-115 140h83z" />
    <glyph glyph-name="uni0312" unicode="&#x312;" horiz-adv-x="0" 
d="M411 880l-84 -235h-109l126 235h67z" />
    <glyph glyph-name="uni031B" unicode="&#x31b;" horiz-adv-x="0" 
d="M58 493l-0.000976562 57h34c12 0 21.333 3.5 28 10.5s10 16.5 10 28.5v71h65v-75c0 -27.333 -9.16699 -49.5 -27.5 -66.5s-42.166 -25.5 -71.499 -25.5h-38z" />
    <glyph glyph-name="dotbelowcomb" unicode="&#x323;" horiz-adv-x="0" 
d="M300 -211c-20.667 0 -37.167 5.5 -49.5 16.5s-18.5 25.833 -18.5 44.5c0 19.333 6.16699 34.5 18.5 45.5s28.833 16.5 49.5 16.5s37.167 -5.5 49.5 -16.5s18.5 -26.167 18.5 -45.5c0 -18.667 -6.16699 -33.5 -18.5 -44.5s-28.833 -16.5 -49.5 -16.5z" />
    <glyph glyph-name="uni0325" unicode="&#x325;" horiz-adv-x="0" 
d="M300 -249c-34.667 0 -62.667 9.16699 -84 27.5s-32 42.166 -32 71.499s10.667 53.166 32 71.499s49.333 27.5 84 27.5s62.667 -9.16699 84 -27.5s32 -42.166 32 -71.499s-10.667 -53.166 -32 -71.499s-49.333 -27.5 -84 -27.5zM299 -202c19.333 0 34.5 4.83301 45.5 14.5
s16.5 22.167 16.5 37.5c0 17.333 -5.33301 30.5 -16 39.5s-26 13.5 -46 13.5c-18 0 -32.5 -4.83301 -43.5 -14.5s-16.5 -22.5 -16.5 -38.5c0 -15.333 5.5 -27.833 16.5 -37.5s25.5 -14.5 43.5 -14.5z" />
    <glyph glyph-name="uni0326" unicode="&#x326;" horiz-adv-x="0" 
d="M197 -240l93 145h95l-105 -145h-83z" />
    <glyph glyph-name="uni0327" unicode="&#x327;" horiz-adv-x="0" 
d="M206 -201v50h73c15.333 0 27.5 4 36.5 12s13.5 16.333 13.5 25c0 12.667 -9.5 23.5 -28.5 32.5s-45.5 13.5 -79.5 13.5l35 94h53l-22 -61c17.333 -1.33301 35 -5.33301 53 -12s33.333 -16 46 -28s19 -26.667 19 -44c0 -22.667 -10.5 -42 -31.5 -58s-48.833 -24 -83.5 -24
h-84z" />
    <glyph glyph-name="uni0328" unicode="&#x328;" horiz-adv-x="0" 
d="M306 -201c-34.667 0 -62.333 8.33203 -83 24.999s-31 38.334 -31 65.001c0 19.333 6.66699 39 20 59s35 40.667 65 62h65l-11 -9c-22 -18.667 -38.167 -36 -48.5 -52s-15.5 -31 -15.5 -45c0 -14.667 5 -26.667 15 -36s23 -14 39 -14h61v-55h-76z" />
    <glyph glyph-name="uni0336" unicode="&#x336;" horiz-adv-x="0" 
d="M-630 294v62h660v-62h-660z" />
    <glyph glyph-name="uni0338" unicode="&#x338;" horiz-adv-x="0" 
d="M123 -60l296 840h58l-296 -840h-58z" />
    <glyph glyph-name="uni0374" unicode="&#x374;" 
d="M170 410l79 311h119l-128 -311h-70z" />
    <glyph glyph-name="uni0375" unicode="&#x375;" 
d="M172 -160l78 311h120l-129 -311h-69z" />
    <glyph glyph-name="uni037E" unicode="&#x37e;" 
d="M175 -160l79 311h119l-128 -311h-70zM291 413c-21.333 0 -39 6.83301 -53 20.5s-21 31.167 -21 52.5s7 39 21 53s31.667 21 53 21h18c21.333 0 38.833 -7 52.5 -21s20.5 -31.667 20.5 -53s-6.83301 -38.833 -20.5 -52.5s-31.167 -20.5 -52.5 -20.5h-18z" />
    <glyph glyph-name="tonos" unicode="&#x384;" 
d="M218 645l106 140h87l-112 -140h-81z" />
    <glyph glyph-name="dieresistonos" unicode="&#x385;" 
d="M263 769l79 131h72l-88 -131h-63zM410 651c-18 0 -32.667 5.33203 -44 15.999s-17 25.334 -17 44.001c0 19.333 5.66699 34.666 17 45.999s26 17 44 17c18.667 0 33.5 -5.66699 44.5 -17s16.5 -26.666 16.5 -45.999c0 -18 -5.5 -32.5 -16.5 -43.5
s-25.833 -16.5 -44.5 -16.5zM190 650.999c-18 0 -32.667 5.33203 -44 15.999s-17 25.334 -17 44.001c0 19.333 5.66699 34.666 17 45.999s26 17 44 17s32.667 -5.66699 44 -17s17 -26.666 17 -45.999c0 -18 -5.66699 -32.5 -17 -43.5s-26 -16.5 -44 -16.5z" />
    <glyph glyph-name="Alphatonos" unicode="&#x386;" 
d="M55 0l193 730h105l192 -730h-80l-51 198h-228l-50 -198h-81zM202 266h195l-62 244c-10 40.667 -18 74.834 -24 102.501s-9.66699 45.5 -11 53.5c-1.33301 -8 -5 -25.833 -11 -53.5s-14 -61.834 -24 -102.501zM24 569l56 160h84l-64 -160h-76z" />
    <glyph glyph-name="anoteleia" unicode="&#x387;" 
d="M300 261c-24.667 0 -44.167 7.16699 -58.5 21.5s-21.5 33.5 -21.5 57.5c0 25.333 7.16699 45.333 21.5 60s33.833 22 58.5 22s44.167 -7.33301 58.5 -22s21.5 -34.667 21.5 -60c0 -24 -7.16699 -43.167 -21.5 -57.5s-33.833 -21.5 -58.5 -21.5z" />
    <glyph glyph-name="Epsilontonos" unicode="&#x388;" 
d="M105 0v730h412v-72h-333v-241h298v-71h-298v-274h333v-72h-412zM-99 569l56 160h84l-64 -160h-76z" />
    <glyph glyph-name="Etatonos" unicode="&#x389;" 
d="M-99 569l56 160h84l-64 -160h-76zM98 0v730h79v-316h246v316h79v-730h-79v341h-246v-341h-79z" />
    <glyph glyph-name="Iotatonos" unicode="&#x38a;" 
d="M-99 569l56 160h84l-64 -160h-76zM109 0v72h151v586h-151v72h382v-72h-150v-586h150v-72h-382z" />
    <glyph glyph-name="Omicrontonos" unicode="&#x38c;" 
d="M-66 569l56 160h84l-64 -160h-76zM300 -10c-42.667 0 -79.5 8.33301 -110.5 25s-54.833 40.5 -71.5 71.5s-25 67.833 -25 110.5v336c0 42.667 8.33301 79.5 25 110.5s40.5 54.833 71.5 71.5s67.833 25 110.5 25s79.5 -8.33301 110.5 -25s54.833 -40.5 71.5 -71.5
s25 -67.833 25 -110.5v-336c0 -42.667 -8.33301 -79.5 -25 -110.5s-40.5 -54.833 -71.5 -71.5s-67.833 -25 -110.5 -25zM300 61c41.333 0 73 11.833 95 35.5s33 57.167 33 100.5v336c0 43.333 -11.167 76.833 -33.5 100.5s-53.833 35.5 -94.5 35.5
s-72.167 -11.833 -94.5 -35.5s-33.5 -57.167 -33.5 -100.5v-336c0 -43.333 11.167 -76.833 33.5 -100.5s53.833 -35.5 94.5 -35.5z" />
    <glyph glyph-name="Upsilontonos" unicode="&#x38e;" 
d="M-112 569l56 160h84l-64 -160h-76zM260 0v275l-221 455h82l150 -308c8 -16 14.5 -30 19.5 -42s8.5 -21 10.5 -27c2 6 5.66699 15 11 27l19 42l148 308h82l-221 -455v-275h-80z" />
    <glyph glyph-name="Omegatonos" unicode="&#x38f;" 
d="M50 0l0.000976562 71h150v7c-15.333 2 -31.833 8.66699 -49.5 20s-32.5 28.333 -44.5 51s-18 51.667 -18 87v292c0 43.333 8.66699 80.833 26 112.5s42 56.167 74 73.5s69.333 26 112 26c44 0 81.667 -8.66699 113 -26s55.666 -41.833 72.999 -73.5s26 -69.167 26 -112.5
v-292c0 -35.333 -6 -64.333 -18 -87s-26.667 -39.5 -44 -50.5s-34 -17.5 -50 -19.5v-8h151v-71h-211v103c28 0 50.5 12 67.5 36s25.5 55 25.5 93v296c0 44 -12 78.5 -36 103.5s-56.333 37.5 -97 37.5c-40 0 -72.167 -12.5 -96.5 -37.5s-36.5 -59.5 -36.5 -103.5v-296
c0 -38 8.5 -69 25.5 -93s39.5 -36 67.5 -36v-103h-210zM-65.999 569l56 160h84l-64 -160h-76z" />
    <glyph glyph-name="iotadieresistonos" unicode="&#x390;" 
d="M416 0c-31.333 0 -58.667 6 -82 18s-41.333 29.333 -54 52s-19 49.334 -19 80.001v328h-202v72h281v-400c0 -24.667 6.83301 -43.834 20.5 -57.501s32.167 -20.5 55.5 -20.5h131v-72h-131zM262.999 769l79 131h72l-88 -131h-63zM409.999 651
c-18 0 -32.667 5.33203 -44 15.999s-17 25.334 -17 44.001c0 19.333 5.66699 34.666 17 45.999s26 17 44 17c18.667 0 33.5 -5.66699 44.5 -17s16.5 -26.666 16.5 -45.999c0 -18 -5.5 -32.5 -16.5 -43.5s-25.833 -16.5 -44.5 -16.5zM189.999 650.999
c-18 0 -32.667 5.33203 -44 15.999s-17 25.334 -17 44.001c0 19.333 5.66699 34.666 17 45.999s26 17 44 17s32.667 -5.66699 44 -17s17 -26.666 17 -45.999c0 -18 -5.66699 -32.5 -17 -43.5s-26 -16.5 -44 -16.5z" />
    <glyph glyph-name="Alpha" unicode="&#x391;" 
d="M55 0l193 730h105l192 -730h-80l-51 198h-228l-50 -198h-81zM202 266h195l-62 244c-10 40.667 -18 74.834 -24 102.501s-9.66699 45.5 -11 53.5c-1.33301 -8 -5 -25.833 -11 -53.5s-14 -61.834 -24 -102.501z" />
    <glyph glyph-name="Beta" unicode="&#x392;" 
d="M98 0l0.000976562 729.999h201c65.333 0 116.666 -16.833 153.999 -50.5s56 -79.834 56 -138.501c0 -33.333 -6.83301 -62.5 -20.5 -87.5s-33 -44.333 -58 -58s-55.167 -20.167 -90.5 -19.5v14c38 0 70.833 -7.5 98.5 -22.5s49.167 -36.667 64.5 -65
s23 -61.833 23 -100.5c0 -41.333 -8.66699 -77.166 -26 -107.499s-42 -53.666 -74 -69.999s-70.333 -24.5 -115 -24.5h-213zM175.001 71.999l129 -0.000976562c44.667 0 79.834 11.833 105.501 35.5s38.5 55.834 38.5 96.501c0 42 -12.833 75.833 -38.5 101.5
s-60.834 38.5 -105.501 38.5h-129v-272zM175.001 412.998h124c40.667 0 72.667 11 96 33s35 52 35 90s-11.5 67.833 -34.5 89.5s-55.167 32.5 -96.5 32.5h-124v-245z" />
    <glyph glyph-name="Gamma" unicode="&#x393;" 
d="M113 0v730h419v-72h-340v-658h-79z" />
    <glyph glyph-name="uni0394" unicode="&#x394;" 
d="M55 0l193 730h105l192 -730h-80l-130 510c-8 33.333 -15 64.5 -21 93.5s-10.667 50.5 -14 64.5c-2.66699 -14 -7.16699 -35.5 -13.5 -64.5s-13.5 -60.167 -21.5 -93.5l-129 -510h-81zM104 0v71h395v-71h-395z" />
    <glyph glyph-name="Epsilon" unicode="&#x395;" 
d="M105 0v730h412v-72h-333v-241h298v-71h-298v-274h333v-72h-412z" />
    <glyph glyph-name="Zeta" unicode="&#x396;" 
d="M87 0v79l336 579h-332v72h411v-81l-335 -577h346v-72h-426z" />
    <glyph glyph-name="Eta" unicode="&#x397;" 
d="M98 0v730h79v-316h246v316h79v-730h-79v341h-246v-341h-79z" />
    <glyph glyph-name="Theta" unicode="&#x398;" 
d="M204 341v73h192v-73h-192zM300 -10c-42.667 0 -79.5 8.33301 -110.5 25s-54.833 40.5 -71.5 71.5s-25 67.833 -25 110.5v336c0 42.667 8.33301 79.5 25 110.5s40.5 54.833 71.5 71.5s67.833 25 110.5 25s79.5 -8.33301 110.5 -25s54.833 -40.5 71.5 -71.5
s25 -67.833 25 -110.5v-336c0 -42.667 -8.33301 -79.5 -25 -110.5s-40.5 -54.833 -71.5 -71.5s-67.833 -25 -110.5 -25zM300 61c41.333 0 73 11.833 95 35.5s33 57.167 33 100.5v336c0 43.333 -11.167 76.833 -33.5 100.5s-53.833 35.5 -94.5 35.5
s-72.167 -11.833 -94.5 -35.5s-33.5 -57.167 -33.5 -100.5v-336c0 -43.333 11.167 -76.833 33.5 -100.5s53.833 -35.5 94.5 -35.5z" />
    <glyph glyph-name="Iota" unicode="&#x399;" 
d="M109 0v72h151v586h-151v72h382v-72h-150v-586h150v-72h-382z" />
    <glyph glyph-name="Kappa" unicode="&#x39a;" 
d="M97 0v730h79v-317h120l162 317h87l-179 -350l189 -380h-92l-169 343h-118v-343h-79z" />
    <glyph glyph-name="Lambda" unicode="&#x39b;" 
d="M55 0l193 730h105l192 -730h-80l-130 510l-19 81.5c-5.33301 23.667 -9.33301 42.334 -12 56.001l-4 20.5l-4 -20.5c-2.66699 -13.667 -6.66699 -32.334 -12 -56.001l-19 -81.5l-129 -510h-81z" />
    <glyph glyph-name="Mu" unicode="&#x39c;" 
d="M80 0l-0.00292969 730h107l83 -248c6.66699 -19.333 13 -39 19 -59s10.333 -35.667 13 -47l13.5 47c5.66699 20 11.834 40 18.501 60l79 247h107v-730h-78v312c0 28 0.833008 59.167 2.5 93.5s3.83398 68.833 6.50098 103.5l8 99.5l7 81.5l-123 -369h-84l-124 369
c2.66699 -22.667 5.33398 -49.167 8.00098 -79.5s5 -62.666 7 -96.999s3.83301 -68.833 5.5 -103.5s2.5 -67.334 2.5 -98.001v-312h-78z" />
    <glyph glyph-name="Nu" unicode="&#x39d;" 
d="M95 0v730.003h106l235 -638c-0.666992 15.333 -1.66699 34.166 -3 56.499s-2.5 45.166 -3.5 68.499s-1.5 44.333 -1.5 63v450h77v-730h-107l-233 638c1.33301 -13.333 2.33301 -30.5 3 -51.5s1.5 -43.333 2.5 -67s1.5 -46.834 1.5 -69.501v-450h-77z" />
    <glyph glyph-name="Xi" unicode="&#x39e;" 
d="M81 657v73h438v-73h-438zM81 0v73h438v-73h-438zM114 333v74h372v-74h-372z" />
    <glyph glyph-name="Omicron" unicode="&#x39f;" 
d="M300 -10c-42.667 0 -79.5 8.33301 -110.5 25s-54.833 40.5 -71.5 71.5s-25 67.833 -25 110.5v336c0 42.667 8.33301 79.5 25 110.5s40.5 54.833 71.5 71.5s67.833 25 110.5 25s79.5 -8.33301 110.5 -25s54.833 -40.5 71.5 -71.5s25 -67.833 25 -110.5v-336
c0 -42.667 -8.33301 -79.5 -25 -110.5s-40.5 -54.833 -71.5 -71.5s-67.833 -25 -110.5 -25zM300 61c41.333 0 73 11.833 95 35.5s33 57.167 33 100.5v336c0 43.333 -11.167 76.833 -33.5 100.5s-53.833 35.5 -94.5 35.5s-72.167 -11.833 -94.5 -35.5
s-33.5 -57.167 -33.5 -100.5v-336c0 -43.333 11.167 -76.833 33.5 -100.5s53.833 -35.5 94.5 -35.5z" />
    <glyph glyph-name="Pi" unicode="&#x3a0;" 
d="M98 0v730h404v-730h-80v658h-244v-658h-80z" />
    <glyph glyph-name="Rho" unicode="&#x3a1;" 
d="M97 0v730.002h229c44.667 0 83.5 -8.66699 116.5 -26s58.5 -41.833 76.5 -73.5s27 -69.167 27 -112.5c0 -42.667 -9 -79.834 -27 -111.501s-43.5 -56.334 -76.5 -74.001s-71.833 -26.5 -116.5 -26.5h-150v-306h-79zM176 378.002h150c42 0 75.5 12.667 100.5 38
s37.5 59.333 37.5 102c0 43.333 -12.5 77.5 -37.5 102.5s-58.5 37.5 -100.5 37.5h-150v-280z" />
    <glyph glyph-name="Sigma" unicode="&#x3a3;" 
d="M55 0v73l324 295l-324 289v73h485v-71h-314l-72 3l285 -253v-80l-292 -261l72 3h321v-71h-485z" />
    <glyph glyph-name="Tau" unicode="&#x3a4;" 
d="M261 0v658h-205v73h488v-73h-204v-658h-79z" />
    <glyph glyph-name="Upsilon" unicode="&#x3a5;" 
d="M260 0v275l-221 455h82l150 -308c8 -16 14.5 -30 19.5 -42s8.5 -21 10.5 -27c2 6 5.66699 15 11 27l19 42l148 308h82l-221 -455v-275h-80z" />
    <glyph glyph-name="Phi" unicode="&#x3a6;" 
d="M263 -25v70c-41.333 0 -77.5 8.5 -108.5 25.5s-55 41 -72 72s-25.5 67.167 -25.5 108.5v239c0 42.667 8.33301 79.667 25 111s40.5 55.666 71.5 72.999s67.5 26 109.5 26v70h74v-70c42 0 78.5 -8.66699 109.5 -26s54.833 -41.666 71.5 -72.999s25 -68.333 25 -111v-239
c0 -41.333 -8.5 -77.5 -25.5 -108.5s-40.833 -55 -71.5 -72s-67 -25.5 -109 -25.5v-70h-74zM263 113v519c-26.667 0 -49.834 -5.83301 -69.501 -17.5s-34.834 -28 -45.501 -49s-16 -46.167 -16 -75.5v-239c0 -28 5.33301 -52.333 16 -73s25.834 -36.667 45.501 -48
s42.834 -17 69.501 -17zM337 113c27.333 0 50.666 5.66699 69.999 17s34.333 27.333 45 48s16 45 16 73v239c0 29.333 -5.33301 54.5 -16 75.5s-25.667 37.333 -45 49s-42.666 17.5 -69.999 17.5v-519z" />
    <glyph glyph-name="Chi" unicode="&#x3a7;" 
d="M43 0l212 373l-199 357h91l115 -218l20.5 -38.5l18.5 -35.5l18.5 35.5l20.5 38.5l117 218h87l-199 -352l212 -378h-91l-128 237l-20.5 39c-7.66699 14.667 -13.5 26.667 -17.5 36l-18.5 -35.5l-20.5 -38.5l-130 -238h-88z" />
    <glyph glyph-name="Psi" unicode="&#x3a8;" 
d="M263 0l-0.000976562 170c-41.333 0 -77.5 8.5 -108.5 25.5s-55 41 -72 72s-25.5 67.167 -25.5 108.5v354h75v-354c0 -28 5.33301 -52.333 16 -73s25.834 -36.667 45.501 -48s42.834 -17 69.501 -17v492h74v-492c27.333 0 50.666 5.66699 69.999 17s34.333 27.333 45 48
s16 45 16 73v354h75v-354c0 -41.333 -8.5 -77.5 -25.5 -108.5s-40.833 -55 -71.5 -72s-67 -25.5 -109 -25.5v-170h-74z" />
    <glyph glyph-name="uni03A9" unicode="&#x3a9;" 
d="M50 0l0.000976562 71h150v7c-15.333 2 -31.833 8.66699 -49.5 20s-32.5 28.333 -44.5 51s-18 51.667 -18 87v292c0 43.333 8.66699 80.833 26 112.5s42 56.167 74 73.5s69.333 26 112 26c44 0 81.667 -8.66699 113 -26s55.666 -41.833 72.999 -73.5s26 -69.167 26 -112.5
v-292c0 -35.333 -6 -64.333 -18 -87s-26.667 -39.5 -44 -50.5s-34 -17.5 -50 -19.5v-8h151v-71h-211v103c28 0 50.5 12 67.5 36s25.5 55 25.5 93v296c0 44 -12 78.5 -36 103.5s-56.333 37.5 -97 37.5c-40 0 -72.167 -12.5 -96.5 -37.5s-36.5 -59.5 -36.5 -103.5v-296
c0 -38 8.5 -69 25.5 -93s39.5 -36 67.5 -36v-103h-210z" />
    <glyph glyph-name="Iotadieresis" unicode="&#x3aa;" 
d="M109 0v72h151v586h-151v72h382v-72h-150v-586h150v-72h-382zM411 819c-18 0 -32.667 5.5 -44 16.5s-17 25.833 -17 44.5c0 19.333 5.66699 34.5 17 45.5s26 16.5 44 16.5c18.667 0 33.5 -5.5 44.5 -16.5s16.5 -26.167 16.5 -45.5c0 -18.667 -5.5 -33.5 -16.5 -44.5
s-25.833 -16.5 -44.5 -16.5zM191 819c-18 0 -32.667 5.5 -44 16.5s-17 25.833 -17 44.5c0 19.333 5.66699 34.5 17 45.5s26 16.5 44 16.5s32.667 -5.5 44 -16.5s17 -26.167 17 -45.5c0 -18.667 -5.66699 -33.5 -17 -44.5s-26 -16.5 -44 -16.5z" />
    <glyph glyph-name="Upsilondieresis" unicode="&#x3ab;" 
d="M260 0v275l-221 455h82l150 -308c8 -16 14.5 -30 19.5 -42s8.5 -21 10.5 -27c2 6 5.66699 15 11 27l19 42l148 308h82l-221 -455v-275h-80zM411 819c-18 0 -32.667 5.5 -44 16.5s-17 25.833 -17 44.5c0 19.333 5.66699 34.5 17 45.5s26 16.5 44 16.5
c18.667 0 33.5 -5.5 44.5 -16.5s16.5 -26.167 16.5 -45.5c0 -18.667 -5.5 -33.5 -16.5 -44.5s-25.833 -16.5 -44.5 -16.5zM191 819c-18 0 -32.667 5.5 -44 16.5s-17 25.833 -17 44.5c0 19.333 5.66699 34.5 17 45.5s26 16.5 44 16.5s32.667 -5.5 44 -16.5
s17 -26.167 17 -45.5c0 -18.667 -5.66699 -33.5 -17 -44.5s-26 -16.5 -44 -16.5z" />
    <glyph glyph-name="alphatonos" unicode="&#x3ac;" 
d="M273 -10c-55.333 0 -99 18.332 -131 54.999s-48 86.334 -48 149.001v163c0 62.667 16.167 112.167 48.5 148.5s75.833 54.5 130.5 54.5c46 0 82.833 -12.5 110.5 -37.5s41.5 -59.167 41.5 -102.5l-23 33h20v97h80v-550h-80v97h-18l21 33
c0 -42.667 -13.833 -76.667 -41.5 -102s-64.5 -38 -110.5 -38zM298 58.999c39.333 0 69.833 12.1699 91.5 36.5029s32.5 58.166 32.5 101.499v156c0 43.333 -10.833 77.166 -32.5 101.499s-52.167 36.5 -91.5 36.5c-40 0 -70.833 -11.833 -92.5 -35.5
s-32.5 -57.834 -32.5 -102.501v-156c0 -44 10.833 -78 32.5 -102s52.5 -36 92.5 -36zM242 645.002l106 140h86l-111 -140h-81z" />
    <glyph glyph-name="epsilontonos" unicode="&#x3ad;" 
d="M326 -8l-48.9971 -0.00195312c-58.667 0 -105.5 14.5 -140.5 43.5s-52.5 67.167 -52.5 114.5c0 40 10.5 71.5 31.5 94.5s53.167 35.833 96.5 38.5v4c-36.667 2.66699 -65.167 14.834 -85.5 36.501s-30.5 49.167 -30.5 82.5c0 30.667 7.5 57.334 22.5 80.001
s36.167 40.334 63.5 53.001s59.666 19 96.999 19h52c54 0 98 -13 132 -39s54.333 -59.667 61 -101h-83c-4.66699 20 -16.5 36.5 -35.5 49.5s-43.833 19.5 -74.5 19.5h-52c-20 0 -37.5 -3.5 -52.5 -10.5s-26.667 -16.833 -35 -29.5s-12.5 -27.667 -12.5 -45
c0 -25.333 8.66699 -46 26 -62s41.333 -24 72 -24h121v-69h-123c-34.667 0 -61.334 -8.66699 -80.001 -26s-28 -40 -28 -68c0 -26 9.83301 -47.5 29.5 -64.5s46.5 -25.5 80.5 -25.5h49c33.333 0 60.333 6.16699 81 18.5s33.667 28.166 39 47.499h83
c-6.66699 -42 -27.834 -75.333 -63.501 -100s-82.167 -37 -139.5 -37zM231.003 644.998l106 140h87l-112 -140h-81z" />
    <glyph glyph-name="etatonos" unicode="&#x3ae;" 
d="M97 0l-0.000976562 550h79v-102h20l-22 -29c0 44 13.5 78.5 40.5 103.5s63.833 37.5 110.5 37.5c54.667 0 98.334 -17.167 131.001 -51.5s49 -80.833 49 -139.5v-549h-79v540c0 42 -11 74.667 -33 98s-52 35 -90 35c-39.333 0 -70.333 -12.333 -93 -37s-34 -59 -34 -103
v-353h-79zM255.999 645l106 140h87l-112 -140h-81z" />
    <glyph glyph-name="iotatonos" unicode="&#x3af;" 
d="M416 0c-31.333 0 -58.667 6 -82 18s-41.333 29.333 -54 52s-19 49.334 -19 80.001v328h-202v72h281v-400c0 -24.667 6.83301 -43.834 20.5 -57.501s32.167 -20.5 55.5 -20.5h131v-72h-131zM220.999 645l106 140h87l-112 -140h-81z" />
    <glyph glyph-name="upsilondieresistonos" unicode="&#x3b0;" 
d="M299 -10c-62 0 -111.5 18.667 -148.5 56s-55.5 88 -55.5 152v352h79v-352c0 -43.333 11.167 -77.166 33.5 -101.499s52.833 -36.5 91.5 -36.5c39.333 0 70.333 12.167 93 36.5s34 58.166 34 101.499v352h79v-352c0 -64 -18.667 -114.667 -56 -152s-87.333 -56 -150 -56z
M263 769l79 131h72l-88 -131h-63zM410 651c-18 0 -32.667 5.33203 -44 15.999s-17 25.334 -17 44.001c0 19.333 5.66699 34.666 17 45.999s26 17 44 17c18.667 0 33.5 -5.66699 44.5 -17s16.5 -26.666 16.5 -45.999c0 -18 -5.5 -32.5 -16.5 -43.5s-25.833 -16.5 -44.5 -16.5
zM190 650.999c-18 0 -32.667 5.33203 -44 15.999s-17 25.334 -17 44.001c0 19.333 5.66699 34.666 17 45.999s26 17 44 17s32.667 -5.66699 44 -17s17 -26.666 17 -45.999c0 -18 -5.66699 -32.5 -17 -43.5s-26 -16.5 -44 -16.5z" />
    <glyph glyph-name="alpha" unicode="&#x3b1;" 
d="M273 -10c-55.333 0 -99 18.332 -131 54.999s-48 86.334 -48 149.001v163c0 62.667 16.167 112.167 48.5 148.5s75.833 54.5 130.5 54.5c46 0 82.833 -12.5 110.5 -37.5s41.5 -59.167 41.5 -102.5l-23 33h20v97h80v-550h-80v97h-18l21 33
c0 -42.667 -13.833 -76.667 -41.5 -102s-64.5 -38 -110.5 -38zM298 58.999c39.333 0 69.833 12.1699 91.5 36.5029s32.5 58.166 32.5 101.499v156c0 43.333 -10.833 77.166 -32.5 101.499s-52.167 36.5 -91.5 36.5c-40 0 -70.833 -11.833 -92.5 -35.5
s-32.5 -57.834 -32.5 -102.501v-156c0 -44 10.833 -78 32.5 -102s52.5 -36 92.5 -36z" />
    <glyph glyph-name="beta" unicode="&#x3b2;" 
d="M97 -180l0.000976562 715.997c0 41.333 8.5 77.333 25.5 108s41 54.334 72 71.001s67.5 25 109.5 25s78.5 -7.33301 109.5 -22s55.167 -36 72.5 -64s26 -61.667 26 -101c0 -41.333 -10.5 -76.833 -31.5 -106.5s-49.5 -49.5 -85.5 -59.5c40.667 -10 72.667 -30.5 96 -61.5
s35 -70.167 35 -117.5c0 -41.333 -8.83301 -77.666 -26.5 -108.999s-42.334 -55.666 -74.001 -72.999s-69.5 -26 -113.5 -26h-136v-180h-79zM176.001 71.9971l129.001 0.00292969c43.333 0 77.166 12.333 101.499 37s36.5 57.667 36.5 99s-12 73.666 -36 96.999
s-58 35 -102 35h-43v69h42c38.667 0 69.167 12.167 91.5 36.5s33.5 55.166 33.5 92.499c0 40.667 -11.167 72.5 -33.5 95.5s-52.833 34.5 -91.5 34.5s-69.667 -11.833 -93 -35.5s-35 -55.834 -35 -96.501v-464z" />
    <glyph glyph-name="gamma" unicode="&#x3b3;" 
d="M260 -180l-0.00292969 180l-196 550h82l125 -374c4.66699 -13.333 8.83398 -26.5 12.501 -39.5s6.83398 -25 9.50098 -36s4.83398 -19.667 6.50098 -26l2.5 -9.5l2.5 9.5l6.5 26c2.66699 11 6 23 10 36l12 39.5l122 374h81l-196 -550v-180h-80z" />
    <glyph glyph-name="delta" unicode="&#x3b4;" 
d="M73 216c0 42.667 8.50098 80.333 25.501 113s40.5 58.334 70.5 77.001s64 28 102 28c16.667 0 32.167 -2 46.5 -6s25.166 -9.33301 32.499 -16l4 4l-241 238v76h364v-67h-284l225 -219c18 -16.667 35 -36.334 51 -59.001s29.5 -48.167 40.5 -76.5s16.5 -59.5 16.5 -93.5
c0 -43.333 -9.66699 -82 -29 -116s-46 -60.667 -80 -80s-73.333 -29 -118 -29c-44 0 -83.167 9.66699 -117.5 29s-61 46 -80 80s-28.5 73 -28.5 117zM153.001 218.999c0 -31.333 6.33301 -58.832 19 -82.499s30 -42.334 52 -56.001s47 -20.5 75 -20.5
c29.333 0 54.833 6.66699 76.5 20s39 32 52 56s19.5 51.667 19.5 83c0 30.667 -6.5 58 -19.5 82s-30.333 42.667 -52 56s-47.167 20 -76.5 20c-28 0 -53 -6.66699 -75 -20s-39.333 -32 -52 -56s-19 -51.333 -19 -82z" />
    <glyph glyph-name="epsilon" unicode="&#x3b5;" 
d="M326 -8l-48.9971 -0.00195312c-58.667 0 -105.5 14.5 -140.5 43.5s-52.5 67.167 -52.5 114.5c0 40 10.5 71.5 31.5 94.5s53.167 35.833 96.5 38.5v4c-36.667 2.66699 -65.167 14.834 -85.5 36.501s-30.5 49.167 -30.5 82.5c0 30.667 7.5 57.334 22.5 80.001
s36.167 40.334 63.5 53.001s59.666 19 96.999 19h52c54 0 98 -13 132 -39s54.333 -59.667 61 -101h-83c-4.66699 20 -16.5 36.5 -35.5 49.5s-43.833 19.5 -74.5 19.5h-52c-20 0 -37.5 -3.5 -52.5 -10.5s-26.667 -16.833 -35 -29.5s-12.5 -27.667 -12.5 -45
c0 -25.333 8.66699 -46 26 -62s41.333 -24 72 -24h121v-69h-123c-34.667 0 -61.334 -8.66699 -80.001 -26s-28 -40 -28 -68c0 -26 9.83301 -47.5 29.5 -64.5s46.5 -25.5 80.5 -25.5h49c33.333 0 60.333 6.16699 81 18.5s33.667 28.166 39 47.499h83
c-6.66699 -42 -27.834 -75.333 -63.501 -100s-82.167 -37 -139.5 -37z" />
    <glyph glyph-name="zeta" unicode="&#x3b6;" 
d="M72 179c0 21.333 3.16797 42.666 9.50098 63.999s16.833 44.5 31.5 69.5s35.167 53.5 61.5 85.5s59.666 69.167 99.999 111.5l146.5 148.5h-330v72h411v-81l-153 -160c-39.333 -40 -71.666 -75.167 -96.999 -105.5s-45.333 -57.5 -60 -81.5s-25 -45.667 -31 -65
s-9 -38.666 -9 -57.999c0 -34 9.66699 -60.5 29 -79.5s46 -28.5 80 -28.5h142c45.333 0 78.833 -9.16699 100.5 -27.5s30.5 -48.5 26.5 -90.5l-12 -133h-79l12 133c3.33301 31.333 -12.667 47 -48 47h-142c-60.667 0 -107.334 15.667 -140.001 47s-49 75.333 -49 132z" />
    <glyph glyph-name="eta" unicode="&#x3b7;" 
d="M97 0l-0.000976562 550h79v-102h20l-22 -29c0 44 13.5 78.5 40.5 103.5s63.833 37.5 110.5 37.5c54.667 0 98.334 -17.167 131.001 -51.5s49 -80.833 49 -139.5v-549h-79v540c0 42 -11 74.667 -33 98s-52 35 -90 35c-39.333 0 -70.333 -12.333 -93 -37s-34 -59 -34 -103
v-353h-79z" />
    <glyph glyph-name="theta" unicode="&#x3b8;" 
d="M300 -10c-42.667 0 -79.5 8.33301 -110.5 25s-54.833 40.5 -71.5 71.5s-25 67.833 -25 110.5v326c0 42.667 8.33301 79.5 25 110.5s40.5 54.833 71.5 71.5s67.833 25 110.5 25s79.5 -8.33301 110.5 -25s54.833 -40.5 71.5 -71.5s25 -67.833 25 -110.5v-326
c0 -42.667 -8.33301 -79.5 -25 -110.5s-40.5 -54.833 -71.5 -71.5s-67.833 -25 -110.5 -25zM300 60c41.333 0 73 11.833 95 35.5s33 57.5 33 101.5v326c0 44 -11.167 77.833 -33.5 101.5s-53.833 35.5 -94.5 35.5s-72.167 -11.833 -94.5 -35.5s-33.5 -57.5 -33.5 -101.5
v-326c0 -44 11.167 -77.833 33.5 -101.5s53.833 -35.5 94.5 -35.5zM158 398h282v-69h-282v69z" />
    <glyph glyph-name="iota" unicode="&#x3b9;" 
d="M416 0c-31.333 0 -58.667 6 -82 18s-41.333 29.333 -54 52s-19 49.334 -19 80.001v328h-202v72h281v-400c0 -24.667 6.83301 -43.834 20.5 -57.501s32.167 -20.5 55.5 -20.5h131v-72h-131z" />
    <glyph glyph-name="kappa" unicode="&#x3ba;" 
d="M101 0v550h80v-231h104l163 231h91l-185 -262l189 -288h-93l-165 250h-104v-250h-80z" />
    <glyph glyph-name="lambda" unicode="&#x3bb;" 
d="M55 0l215 540l-74 190h85l264 -730h-86l-119 357c-8 22.667 -14.833 44.667 -20.5 66s-9.5 37.333 -11.5 48c-2 -10.667 -6 -26.667 -12 -48s-13.333 -43.333 -22 -66l-132 -357h-87z" />
    <glyph glyph-name="uni03BC" unicode="&#x3bc;" 
d="M97 -180l-0.00195312 730.001h79v-356c0 -42.667 10.833 -75.667 32.5 -99s51.834 -35 90.501 -35c39.333 0 70 11.667 92 35s33 56.333 33 99v356h79v-356c0 -62.667 -17.333 -112.334 -52 -149.001s-82.334 -55 -143.001 -55c-29.333 0 -54.5 3.83301 -75.5 11.5
s-37.667 17.667 -50 30s-21.166 24.833 -26.499 37.5h-4c0.666992 0 2.33398 -4.33301 5.00098 -13s5 -19 7 -31s3.33301 -23.667 4 -35l8 -170h-79z" />
    <glyph glyph-name="nu" unicode="&#x3bd;" 
d="M247 0l-186 550h81l127 -381l19 -61.5l14 -47.5l14 47.5l19 61.5l124 381h80l-186 -550h-106z" />
    <glyph glyph-name="xi" unicode="&#x3be;" 
d="M71 205c0 46.667 11.501 85.6641 34.501 116.997s56.167 53 99.5 65c-38 10.667 -67.5 30.834 -88.5 60.501s-31.5 65.5 -31.5 107.5c0 57.333 20 102.666 60 135.999s93.667 50 161 50c46.667 0 86.5 -8.16699 119.5 -24.5s58.5 -39.666 76.5 -69.999
s27 -66.166 27 -107.499h-79c0 40 -12.833 72 -38.5 96s-60.167 36 -103.5 36c-42.667 0 -76.834 -10.833 -102.501 -32.5s-38.5 -52.5 -38.5 -92.5s12.667 -72.833 38 -98.5s59.333 -38.5 102 -38.5h88v-72h-88c-48.667 0 -86.334 -11.5 -113.001 -34.5
s-40 -55.5 -40 -97.5c0 -42.667 13.333 -75.5 40 -98.5s64.334 -34.5 113.001 -34.5h96c45.333 0 78.833 -9 100.5 -27s30.5 -48.333 26.5 -91l-12 -133h-79l12 133c3.33301 31.333 -12.667 47 -48 47h-96c-75.333 0 -133.5 18.333 -174.5 55s-61.5 86.334 -61.5 149.001z
" />
    <glyph glyph-name="omicron" unicode="&#x3bf;" 
d="M300 -9c-42.667 0 -79.667 8.33301 -111 25s-55.666 40.667 -72.999 72s-26 68.333 -26 111v152c0 43.333 8.66699 80.5 26 111.5s41.666 54.833 72.999 71.5s68.333 25 111 25s79.667 -8.33301 111 -25s55.666 -40.5 72.999 -71.5s26 -67.833 26 -110.5v-153
c0 -42.667 -8.66699 -79.667 -26 -111s-41.666 -55.333 -72.999 -72s-68.333 -25 -111 -25zM300 62c41.333 0 73.333 11.667 96 35s34 57.333 34 102v152c0 44.667 -11.5 78.667 -34.5 102s-54.833 35 -95.5 35s-72.5 -11.667 -95.5 -35s-34.5 -57.333 -34.5 -102v-152
c0 -44.667 11.5 -78.667 34.5 -102s54.833 -35 95.5 -35z" />
    <glyph glyph-name="pi" unicode="&#x3c0;" 
d="M531 -5c-47.333 0 -85.167 14.833 -113.5 44.5s-42.5 69.167 -42.5 118.5v321h-185v-479h-80v480h-82v70h524v-68h-98v-328c0 -27.333 6.5 -48.333 19.5 -63s30.833 -22 53.5 -22h25v-74h-21z" />
    <glyph glyph-name="rho" unicode="&#x3c1;" 
d="M98 -180l-0.000976562 537.001c0 42 8.33301 78.167 25 108.5s40.334 53.666 71.001 69.999s67 24.5 109 24.5s78.167 -8.16699 108.5 -24.5s53.666 -39.5 69.999 -69.5s24.5 -66.333 24.5 -109v-163c0 -42 -7.33301 -78.167 -22 -108.5s-35.167 -53.833 -61.5 -70.5
s-58.166 -25 -95.499 -25c-46 0 -82.833 12.667 -110.5 38s-41.5 59.333 -41.5 102l21 -33h-20l2 -112v-165h-80zM301.999 59.001c40 0 70.833 11.998 92.5 35.998s32.5 58 32.5 102v156c0 44.667 -10.833 78.834 -32.5 102.501s-52.5 35.5 -92.5 35.5
c-39.333 0 -70 -12 -92 -36s-32.667 -58 -32 -102v-156c0 -43.333 11 -77.166 33 -101.499s52.333 -36.5 91 -36.5z" />
    <glyph glyph-name="uni03C2" unicode="&#x3c2;" 
d="M93 203l0.000976562 149.998c0 42.667 8.5 79.5 25.5 110.5s41.333 54.833 73 71.5s68.834 25 111.501 25s79.667 -7.66699 111 -23s55.666 -37.166 72.999 -65.499s26 -62.166 26 -101.499h-79c0 38 -11.833 67.333 -35.5 88s-55.5 31 -95.5 31
c-40.667 0 -72.667 -11.833 -96 -35.5s-35 -57.167 -35 -100.5v-150c0 -42 11.667 -74.5 35 -97.5s55.333 -34.5 96 -34.5h101c45.333 0 78.833 -9.16699 100.5 -27.5s30.5 -48.5 26.5 -90.5l-12 -133h-79l12 133c3.33301 31.333 -12.667 47 -48 47h-101
c-64.667 0 -115.834 17.667 -153.501 53s-56.5 85.333 -56.5 150z" />
    <glyph glyph-name="sigma" unicode="&#x3c3;" 
d="M93 197v155.999c0 42.667 8.33301 79.5 25 110.5s40.5 54.833 71.5 71.5s67.833 25 110.5 25h227v-70h-115v-21l-26 24c14.667 0 29 -3.66699 43 -11s27 -17.166 39 -29.499s21.5 -27 28.5 -44s10.5 -35.5 10.5 -55.5v-156c0 -42.667 -8.33301 -79.5 -25 -110.5
s-40.5 -54.833 -71.5 -71.5s-67.833 -25 -110.5 -25s-79.5 8.33301 -110.5 25s-54.833 40.5 -71.5 71.5s-25 67.833 -25 110.5zM172 196.999c0 -44 11.167 -77.833 33.5 -101.5s53.833 -35.5 94.5 -35.5c41.333 0 73 11.833 95 35.5s33 57.5 33 101.5v156
c0 44 -10.5 77.833 -31.5 101.5s-53.167 35.5 -96.5 35.5c-40.667 0 -72.167 -11.833 -94.5 -35.5s-33.5 -57.5 -33.5 -101.5v-156z" />
    <glyph glyph-name="tau" unicode="&#x3c4;" 
d="M385 0c-46 0 -81.667 12.167 -107 36.5s-38 58.833 -38 103.5v338h-181v72h457v-72h-196v-338c0 -45.333 21.667 -68 65 -68h121v-72h-121z" />
    <glyph glyph-name="upsilon" unicode="&#x3c5;" 
d="M299 -10c-62 0 -111.5 18.667 -148.5 56s-55.5 88 -55.5 152v352h79v-352c0 -43.333 11.167 -77.166 33.5 -101.499s52.833 -36.5 91.5 -36.5c39.333 0 70.333 12.167 93 36.5s34 58.166 34 101.499v352h79v-352c0 -64 -18.667 -114.667 -56 -152s-87.333 -56 -150 -56z
" />
    <glyph glyph-name="phi" unicode="&#x3c6;" 
d="M263 -180v180.001c-64 0 -114 18 -150 54s-54 85.333 -54 148v348h74v-348c0 -42.667 11.667 -76.334 35 -101.001s56.333 -37 99 -37v486h102c53.333 0 95.333 -14.5 126 -43.5s46 -68.5 46 -118.5v-186c0 -62.667 -18 -112 -54 -148s-86 -54 -150 -54v-180h-74z
M333 64.001c42 0 74.833 12.3311 98.5 36.998s35.5 58.334 35.5 101.001v186c0 30.667 -8.66699 54.834 -26 72.501s-41.333 26.5 -72 26.5h-36v-423z" />
    </font>
</defs>
</svg>
